<ttFont>
    <TTGlyph name=".notdef" xMin="-49" yMin="-192" xMax="535" yMax="832">
      <contour>
        <pt x="155" y="832" on="1"/>
        <pt x="535" y="832" on="1"/>
        <pt x="331" y="-192" on="1"/>
        <pt x="-49" y="-192" on="1"/>
      </contour>
      <contour>
        <pt x="117" y="21" on="0"/>
        <pt x="154" y="-10" on="0"/>
        <pt x="183" y="-10" on="1"/>
        <pt x="213" y="-10" on="0"/>
        <pt x="258" y="22" on="0"/>
        <pt x="264" y="52" on="1"/>
        <pt x="266" y="64" on="0"/>
        <pt x="266" y="69" on="1"/>
        <pt x="266" y="97" on="0"/>
        <pt x="228" y="128" on="0"/>
        <pt x="199" y="128" on="1"/>
        <pt x="165" y="128" on="0"/>
        <pt x="117" y="86" on="0"/>
        <pt x="117" y="49" on="1"/>
      </contour>
      <contour>
        <pt x="274" y="567" on="0"/>
        <pt x="354" y="531" on="0"/>
        <pt x="354" y="505" on="1"/>
        <pt x="354" y="496" on="0"/>
        <pt x="353" y="492" on="1"/>
        <pt x="348" y="467" on="0"/>
        <pt x="319" y="430" on="0"/>
        <pt x="290" y="403" on="1"/>
        <pt x="259" y="373" on="0"/>
        <pt x="218" y="325" on="0"/>
        <pt x="180" y="247" on="0"/>
        <pt x="170" y="192" on="1"/>
        <pt x="258" y="192" on="1"/>
        <pt x="271" y="252" on="0"/>
        <pt x="321" y="322" on="0"/>
        <pt x="364" y="361" on="1"/>
        <pt x="399" y="393" on="0"/>
        <pt x="437" y="443" on="0"/>
        <pt x="445" y="482" on="1"/>
        <pt x="448" y="499" on="0"/>
        <pt x="448" y="514" on="1"/>
        <pt x="448" y="577" on="0"/>
        <pt x="320" y="643" on="0"/>
        <pt x="173" y="645" on="1"/>
        <pt x="160" y="573" on="1"/>
      </contour>
    </TTGlyph>
    <TTGlyph name="A" xMin="-15" yMin="0" xMax="393" yMax="642">
      <contour>
        <pt x="38" y="188" on="0"/>
        <pt x="180" y="520" on="0"/>
        <pt x="263" y="642" on="1"/>
        <pt x="347" y="642" on="1"/>
        <pt x="393" y="494" on="0"/>
        <pt x="393" y="285" on="1"/>
        <pt x="393" y="151" on="0"/>
        <pt x="373" y="0" on="1"/>
        <pt x="279" y="0" on="1"/>
        <pt x="291" y="107" on="0"/>
        <pt x="296" y="176" on="1"/>
        <pt x="136" y="176" on="1"/>
        <pt x="103" y="78" on="0"/>
        <pt x="81" y="0" on="1"/>
        <pt x="-15" y="0" on="1"/>
      </contour>
      <contour>
        <pt x="300" y="248" on="1"/>
        <pt x="301" y="275" on="0"/>
        <pt x="301" y="327" on="1"/>
        <pt x="301" y="450" on="0"/>
        <pt x="287" y="535" on="1"/>
        <pt x="220" y="411" on="0"/>
        <pt x="161" y="248" on="1"/>
      </contour>
    </TTGlyph>
    <TTGlyph name="A.hex" xMin="-15" yMin="0" xMax="384" yMax="578">
      <contour>
        <pt x="33" y="168" on="0"/>
        <pt x="169" y="468" on="0"/>
        <pt x="250" y="578" on="1"/>
        <pt x="334" y="578" on="1"/>
        <pt x="384" y="432" on="0"/>
        <pt x="384" y="218" on="1"/>
        <pt x="384" y="111" on="0"/>
        <pt x="372" y="0" on="1"/>
        <pt x="279" y="0" on="1"/>
        <pt x="287" y="84" on="0"/>
        <pt x="289" y="124" on="1"/>
        <pt x="120" y="124" on="1"/>
        <pt x="98" y="62" on="0"/>
        <pt x="81" y="0" on="1"/>
        <pt x="-15" y="0" on="1"/>
      </contour>
      <contour>
        <pt x="293" y="196" on="1"/>
        <pt x="294" y="216" on="0"/>
        <pt x="294" y="254" on="1"/>
        <pt x="294" y="381" on="0"/>
        <pt x="276" y="475" on="1"/>
        <pt x="205" y="355" on="0"/>
        <pt x="146" y="196" on="1"/>
      </contour>
    </TTGlyph>
    <TTGlyph name="A.short" xMin="-15" yMin="0" xMax="384" yMax="578">
      <component glyphName="A.hex" x="0" y="0" flags="0x400"/>
    </TTGlyph>
    <TTGlyph name="A.sups" xMin="119" yMin="320" xMax="376" yMax="641">
      <contour>
        <pt x="142" y="412" on="0"/>
        <pt x="213" y="568" on="0"/>
        <pt x="264" y="641" on="1"/>
        <pt x="345" y="641" on="1"/>
        <pt x="376" y="551" on="0"/>
        <pt x="376" y="444" on="1"/>
        <pt x="376" y="385" on="0"/>
        <pt x="367" y="320" on="1"/>
        <pt x="282" y="320" on="1"/>
        <pt x="288" y="357" on="0"/>
        <pt x="291" y="387" on="1"/>
        <pt x="223" y="387" on="1"/>
        <pt x="216" y="366" on="0"/>
        <pt x="204" y="320" on="1"/>
        <pt x="119" y="320" on="1"/>
      </contour>
      <contour>
        <pt x="295" y="448" on="1"/>
        <pt x="296" y="498" on="0"/>
        <pt x="290" y="543" on="1"/>
        <pt x="269" y="508" on="0"/>
        <pt x="246" y="448" on="1"/>
      </contour>
    </TTGlyph>
    <TTGlyph name="AE" xMin="-15" yMin="0" xMax="697" yMax="640">
      <contour>
        <pt x="594" y="72" on="1"/>
        <pt x="579" y="0" on="1"/>
        <pt x="252" y="0" on="1"/>
        <pt x="287" y="176" on="1"/>
        <pt x="133" y="176" on="1"/>
        <pt x="105" y="94" on="0"/>
        <pt x="79" y="0" on="1"/>
        <pt x="-15" y="0" on="1"/>
        <pt x="37" y="186" on="0"/>
        <pt x="175" y="518" on="0"/>
        <pt x="254" y="640" on="1"/>
        <pt x="697" y="640" on="1"/>
        <pt x="683" y="568" on="1"/>
        <pt x="457" y="568" on="1"/>
        <pt x="409" y="324" on="1"/>
        <pt x="583" y="324" on="1"/>
        <pt x="568" y="252" on="1"/>
        <pt x="394" y="252" on="1"/>
        <pt x="358" y="72" on="1"/>
      </contour>
      <contour>
        <pt x="301" y="248" on="1"/>
        <pt x="365" y="568" on="1"/>
        <pt x="298" y="568" on="1"/>
        <pt x="227" y="439" on="0"/>
        <pt x="158" y="248" on="1"/>
      </contour>
    </TTGlyph>
    <TTGlyph name="AEacute" xMin="-15" yMin="0" xMax="697" yMax="832">
      <component glyphName="AE" x="0" y="0" flags="0x400"/>
      <component glyphName="acutecomb.case" x="152" y="0" flags="0x400"/>
    </TTGlyph>
    <TTGlyph name="Aacute" xMin="-15" yMin="0" xMax="474" yMax="832">
      <component glyphName="A" x="0" y="0" flags="0x400"/>
      <component glyphName="acutecomb.case" x="0" y="0" flags="0x400"/>
    </TTGlyph>
    <TTGlyph name="Abreve" xMin="-15" yMin="0" xMax="481" yMax="841">
      <component glyphName="A" x="0" y="0" flags="0x400"/>
      <component glyphName="uni0306.case" x="0" y="0" flags="0x400"/>
    </TTGlyph>
    <TTGlyph name="Acircumflex" xMin="-15" yMin="0" xMax="466" yMax="842">
      <component glyphName="A" x="0" y="0" flags="0x400"/>
      <component glyphName="uni0302.case" x="0" y="0" flags="0x400"/>
    </TTGlyph>
    <TTGlyph name="Adieresis" xMin="-15" yMin="0" xMax="475" yMax="823">
      <component glyphName="A" x="0" y="0" flags="0x400"/>
      <component glyphName="uni0308.case" x="0" y="0" flags="0x400"/>
    </TTGlyph>
    <TTGlyph name="Agrave" xMin="-15" yMin="0" xMax="393" yMax="832">
      <component glyphName="A" x="0" y="0" flags="0x400"/>
      <component glyphName="gravecomb.case" x="0" y="0" flags="0x400"/>
    </TTGlyph>
    <TTGlyph name="Alpha" xMin="-15" yMin="0" xMax="393" yMax="642">
      <component glyphName="A" x="0" y="0" flags="0x400"/>
    </TTGlyph>
    <TTGlyph name="Alphatonos" xMin="-15" yMin="0" xMax="393" yMax="704">
      <component glyphName="A" x="0" y="0" flags="0x400"/>
      <component glyphName="tonos" x="-192" y="0" flags="0x400"/>
    </TTGlyph>
    <TTGlyph name="Amacron" xMin="-15" yMin="0" xMax="460" yMax="770">
      <component glyphName="A" x="0" y="0" flags="0x400"/>
      <component glyphName="uni0304.case" x="0" y="0" flags="0x400"/>
    </TTGlyph>
    <TTGlyph name="Aogonek" xMin="-15" yMin="-197" xMax="393" yMax="642">
      <component glyphName="A" x="0" y="0" flags="0x400"/>
      <component glyphName="uni0328" x="28" y="0" flags="0x400"/>
    </TTGlyph>
    <TTGlyph name="Aring" xMin="-15" yMin="0" xMax="455" yMax="894">
      <component glyphName="A" x="0" y="0" flags="0x400"/>
      <component glyphName="uni030A.case" x="13" y="64" flags="0x404"/>
    </TTGlyph>
    <TTGlyph name="Aringacute" xMin="-15" yMin="0" xMax="472" yMax="825">
      <component glyphName="A.short" x="0" y="0" flags="0x400"/>
      <component glyphName="uni030A.case" x="-21" y="-97" flags="0x404"/>
      <component glyphName="acutecomb.case" x="-2" y="-7" flags="0x404"/>
    </TTGlyph>
    <TTGlyph name="Atilde" xMin="-15" yMin="0" xMax="503" yMax="840">
      <component glyphName="A" x="0" y="0" flags="0x400"/>
      <component glyphName="tildecomb.case" x="0" y="0" flags="0x400"/>
    </TTGlyph>
    <TTGlyph name="B" xMin="10" yMin="0" xMax="449" yMax="640">
      <contour>
        <pt x="138" y="640" on="1"/>
        <pt x="274" y="640" on="1"/>
        <pt x="360" y="640" on="0"/>
        <pt x="449" y="572" on="0"/>
        <pt x="449" y="508" on="1"/>
        <pt x="449" y="450" on="0"/>
        <pt x="386" y="354" on="0"/>
        <pt x="329" y="312" on="1"/>
        <pt x="366" y="299" on="0"/>
        <pt x="408" y="242" on="0"/>
        <pt x="408" y="198" on="1"/>
        <pt x="408" y="139" on="0"/>
        <pt x="347" y="49" on="0"/>
        <pt x="240" y="0" on="0"/>
        <pt x="172" y="0" on="1"/>
        <pt x="10" y="0" on="1"/>
      </contour>
      <contour>
        <pt x="169" y="72" on="1"/>
        <pt x="238" y="72" on="0"/>
        <pt x="314" y="141" on="0"/>
        <pt x="314" y="201" on="1"/>
        <pt x="314" y="234" on="0"/>
        <pt x="266" y="268" on="0"/>
        <pt x="213" y="268" on="1"/>
        <pt x="156" y="268" on="1"/>
        <pt x="117" y="72" on="1"/>
      </contour>
      <contour>
        <pt x="256" y="340" on="1"/>
        <pt x="298" y="368" on="0"/>
        <pt x="351" y="456" on="0"/>
        <pt x="351" y="505" on="1"/>
        <pt x="351" y="537" on="0"/>
        <pt x="307" y="568" on="0"/>
        <pt x="259" y="568" on="1"/>
        <pt x="216" y="568" on="1"/>
        <pt x="170" y="340" on="1"/>
      </contour>
    </TTGlyph>
    <TTGlyph name="B.hex" xMin="10" yMin="0" xMax="438" yMax="576">
      <contour>
        <pt x="125" y="576" on="1"/>
        <pt x="261" y="576" on="1"/>
        <pt x="345" y="576" on="0"/>
        <pt x="438" y="515" on="0"/>
        <pt x="438" y="456" on="1"/>
        <pt x="438" y="437" on="0"/>
        <pt x="434" y="421" on="1"/>
        <pt x="419" y="344" on="0"/>
        <pt x="328" y="279" on="1"/>
        <pt x="364" y="266" on="0"/>
        <pt x="403" y="215" on="0"/>
        <pt x="403" y="178" on="1"/>
        <pt x="403" y="164" on="0"/>
        <pt x="400" y="147" on="1"/>
        <pt x="386" y="76" on="0"/>
        <pt x="264" y="0" on="0"/>
        <pt x="172" y="0" on="1"/>
        <pt x="10" y="0" on="1"/>
      </contour>
      <contour>
        <pt x="163" y="72" on="1"/>
        <pt x="231" y="72" on="0"/>
        <pt x="299" y="118" on="0"/>
        <pt x="308" y="164" on="1"/>
        <pt x="310" y="176" on="0"/>
        <pt x="310" y="180" on="1"/>
        <pt x="310" y="208" on="0"/>
        <pt x="260" y="236" on="0"/>
        <pt x="202" y="236" on="1"/>
        <pt x="149" y="236" on="1"/>
        <pt x="117" y="72" on="1"/>
      </contour>
      <contour>
        <pt x="251" y="308" on="1"/>
        <pt x="290" y="332" on="0"/>
        <pt x="340" y="414" on="0"/>
        <pt x="340" y="451" on="1"/>
        <pt x="340" y="478" on="0"/>
        <pt x="293" y="504" on="0"/>
        <pt x="238" y="504" on="1"/>
        <pt x="203" y="504" on="1"/>
        <pt x="164" y="308" on="1"/>
      </contour>
    </TTGlyph>
    <TTGlyph name="B.short" xMin="10" yMin="0" xMax="438" yMax="576">
      <component glyphName="B.hex" x="0" y="0" flags="0x400"/>
    </TTGlyph>
    <TTGlyph name="B.sups" xMin="127" yMin="320" xMax="400" yMax="640">
      <contour>
        <pt x="191" y="640" on="1"/>
        <pt x="294" y="640" on="1"/>
        <pt x="343" y="640" on="0"/>
        <pt x="400" y="600" on="0"/>
        <pt x="400" y="567" on="1"/>
        <pt x="400" y="544" on="0"/>
        <pt x="376" y="501" on="0"/>
        <pt x="348" y="478" on="1"/>
        <pt x="382" y="459" on="0"/>
        <pt x="382" y="420" on="1"/>
        <pt x="382" y="377" on="0"/>
        <pt x="308" y="320" on="0"/>
        <pt x="246" y="320" on="1"/>
        <pt x="127" y="320" on="1"/>
      </contour>
      <contour>
        <pt x="247" y="379" on="1"/>
        <pt x="288" y="379" on="0"/>
        <pt x="296" y="418" on="1"/>
        <pt x="301" y="443" on="0"/>
        <pt x="266" y="443" on="1"/>
        <pt x="236" y="443" on="1"/>
        <pt x="223" y="379" on="1"/>
      </contour>
      <contour>
        <pt x="282" y="502" on="1"/>
        <pt x="296" y="513" on="0"/>
        <pt x="313" y="545" on="0"/>
        <pt x="313" y="561" on="1"/>
        <pt x="313" y="572" on="0"/>
        <pt x="300" y="581" on="0"/>
        <pt x="284" y="581" on="1"/>
        <pt x="264" y="581" on="1"/>
        <pt x="248" y="502" on="1"/>
      </contour>
    </TTGlyph>
    <TTGlyph name="Beta" xMin="10" yMin="0" xMax="449" yMax="640">
      <component glyphName="B" x="0" y="0" flags="0x400"/>
    </TTGlyph>
    <TTGlyph name="C" xMin="42" yMin="-9" xMax="432" yMax="647">
      <contour>
        <pt x="122" y="-9" on="0"/>
        <pt x="42" y="73" on="0"/>
        <pt x="42" y="165" on="1"/>
        <pt x="42" y="233" on="0"/>
        <pt x="61" y="327" on="1"/>
        <pt x="85" y="447" on="0"/>
        <pt x="152" y="585" on="0"/>
        <pt x="252" y="647" on="0"/>
        <pt x="328" y="647" on="1"/>
        <pt x="382" y="647" on="0"/>
        <pt x="432" y="633" on="1"/>
        <pt x="410" y="567" on="1"/>
        <pt x="377" y="575" on="0"/>
        <pt x="338" y="575" on="1"/>
        <pt x="281" y="575" on="0"/>
        <pt x="215" y="523" on="0"/>
        <pt x="176" y="415" on="0"/>
        <pt x="156" y="312" on="1"/>
        <pt x="144" y="250" on="0"/>
        <pt x="132" y="177" on="0"/>
        <pt x="132" y="150" on="1"/>
        <pt x="132" y="104" on="0"/>
        <pt x="174" y="63" on="0"/>
        <pt x="224" y="63" on="1"/>
        <pt x="265" y="63" on="0"/>
        <pt x="311" y="75" on="1"/>
        <pt x="317" y="6" on="1"/>
        <pt x="265" y="-9" on="0"/>
        <pt x="208" y="-9" on="1"/>
      </contour>
    </TTGlyph>
    <TTGlyph name="C.hex" xMin="53" yMin="-9" xMax="450" yMax="583">
      <contour>
        <pt x="140" y="-9" on="0"/>
        <pt x="53" y="70" on="0"/>
        <pt x="53" y="161" on="1"/>
        <pt x="53" y="212" on="0"/>
        <pt x="69" y="295" on="1"/>
        <pt x="91" y="403" on="0"/>
        <pt x="158" y="527" on="0"/>
        <pt x="262" y="583" on="0"/>
        <pt x="342" y="583" on="1"/>
        <pt x="399" y="583" on="0"/>
        <pt x="450" y="569" on="1"/>
        <pt x="428" y="503" on="1"/>
        <pt x="392" y="511" on="0"/>
        <pt x="352" y="511" on="1"/>
        <pt x="289" y="511" on="0"/>
        <pt x="220" y="465" on="0"/>
        <pt x="182" y="371" on="0"/>
        <pt x="164" y="280" on="1"/>
        <pt x="145" y="185" on="0"/>
        <pt x="145" y="149" on="1"/>
        <pt x="145" y="103" on="0"/>
        <pt x="192" y="63" on="0"/>
        <pt x="251" y="63" on="1"/>
        <pt x="293" y="63" on="0"/>
        <pt x="342" y="75" on="1"/>
        <pt x="348" y="6" on="1"/>
        <pt x="294" y="-9" on="0"/>
        <pt x="235" y="-9" on="1"/>
      </contour>
    </TTGlyph>
    <TTGlyph name="C.short" xMin="53" yMin="-9" xMax="450" yMax="583">
      <component glyphName="C.hex" x="0" y="0" flags="0x400"/>
    </TTGlyph>
    <TTGlyph name="C.sups" xMin="162" yMin="316" xMax="415" yMax="644">
      <contour>
        <pt x="221" y="316" on="0"/>
        <pt x="162" y="378" on="0"/>
        <pt x="162" y="434" on="1"/>
        <pt x="162" y="460" on="0"/>
        <pt x="168" y="488" on="1"/>
        <pt x="184" y="564" on="0"/>
        <pt x="267" y="644" on="0"/>
        <pt x="330" y="644" on="1"/>
        <pt x="379" y="644" on="0"/>
        <pt x="415" y="630" on="1"/>
        <pt x="397" y="573" on="1"/>
        <pt x="364" y="581" on="0"/>
        <pt x="333" y="581" on="1"/>
        <pt x="302" y="581" on="0"/>
        <pt x="266" y="538" on="0"/>
        <pt x="253" y="473" on="1"/>
        <pt x="247" y="443" on="0"/>
        <pt x="247" y="424" on="1"/>
        <pt x="247" y="399" on="0"/>
        <pt x="266" y="379" on="0"/>
        <pt x="285" y="379" on="1"/>
        <pt x="302" y="379" on="0"/>
        <pt x="347" y="388" on="0"/>
        <pt x="354" y="389" on="1"/>
        <pt x="359" y="327" on="1"/>
        <pt x="322" y="316" on="0"/>
        <pt x="276" y="316" on="1"/>
      </contour>
    </TTGlyph>
    <TTGlyph name="Cacute" xMin="42" yMin="-9" xMax="474" yMax="832">
      <component glyphName="C" x="0" y="0" flags="0x400"/>
      <component glyphName="acutecomb.case" x="0" y="0" flags="0x400"/>
    </TTGlyph>
    <TTGlyph name="Ccaron" xMin="42" yMin="-9" xMax="497" yMax="842">
      <component glyphName="C" x="0" y="0" flags="0x400"/>
      <component glyphName="uni030C.case" x="0" y="0" flags="0x400"/>
    </TTGlyph>
    <TTGlyph name="Ccedilla" xMin="-4" yMin="-192" xMax="432" yMax="647">
      <component glyphName="C" x="0" y="0" flags="0x400"/>
      <component glyphName="uni0327" x="-52" y="0" flags="0x400"/>
    </TTGlyph>
    <TTGlyph name="Ccircumflex" xMin="42" yMin="-9" xMax="466" yMax="842">
      <component glyphName="C" x="0" y="0" flags="0x400"/>
      <component glyphName="uni0302.case" x="0" y="0" flags="0x400"/>
    </TTGlyph>
    <TTGlyph name="Cdotaccent" xMin="42" yMin="-9" xMax="432" yMax="822">
      <component glyphName="C" x="0" y="0" flags="0x400"/>
      <component glyphName="uni0307.case" x="0" y="0" flags="0x400"/>
    </TTGlyph>
    <TTGlyph name="Chi" xMin="-4" yMin="0" xMax="481" yMax="640">
      <component glyphName="X" x="0" y="0" flags="0x400"/>
    </TTGlyph>
    <TTGlyph name="D" xMin="10" yMin="0" xMax="465" yMax="640">
      <contour>
        <pt x="380" y="640" on="0"/>
        <pt x="465" y="551" on="0"/>
        <pt x="465" y="454" on="1"/>
        <pt x="465" y="391" on="0"/>
        <pt x="449" y="310" on="1"/>
        <pt x="426" y="196" on="0"/>
        <pt x="356" y="61" on="0"/>
        <pt x="248" y="0" on="0"/>
        <pt x="168" y="0" on="1"/>
        <pt x="10" y="0" on="1"/>
        <pt x="138" y="640" on="1"/>
        <pt x="290" y="640" on="1"/>
      </contour>
      <contour>
        <pt x="170" y="72" on="1"/>
        <pt x="227" y="72" on="0"/>
        <pt x="295" y="124" on="0"/>
        <pt x="335" y="229" on="0"/>
        <pt x="354" y="325" on="1"/>
        <pt x="374" y="428" on="0"/>
        <pt x="374" y="472" on="1"/>
        <pt x="374" y="524" on="0"/>
        <pt x="328" y="568" on="0"/>
        <pt x="275" y="568" on="1"/>
        <pt x="216" y="568" on="1"/>
        <pt x="117" y="72" on="1"/>
      </contour>
    </TTGlyph>
    <TTGlyph name="D.hex" xMin="10" yMin="0" xMax="425" yMax="576">
      <contour>
        <pt x="340" y="576" on="0"/>
        <pt x="425" y="493" on="0"/>
        <pt x="425" y="404" on="1"/>
        <pt x="425" y="352" on="0"/>
        <pt x="410" y="278" on="1"/>
        <pt x="389" y="175" on="0"/>
        <pt x="323" y="54" on="0"/>
        <pt x="219" y="0" on="0"/>
        <pt x="140" y="0" on="1"/>
        <pt x="10" y="0" on="1"/>
        <pt x="125" y="576" on="1"/>
        <pt x="249" y="576" on="1"/>
      </contour>
      <contour>
        <pt x="142" y="72" on="1"/>
        <pt x="198" y="72" on="0"/>
        <pt x="262" y="117" on="0"/>
        <pt x="298" y="208" on="0"/>
        <pt x="315" y="293" on="1"/>
        <pt x="332" y="381" on="0"/>
        <pt x="332" y="418" on="1"/>
        <pt x="332" y="464" on="0"/>
        <pt x="288" y="504" on="0"/>
        <pt x="234" y="504" on="1"/>
        <pt x="203" y="504" on="1"/>
        <pt x="117" y="72" on="1"/>
      </contour>
    </TTGlyph>
    <TTGlyph name="D.short" xMin="10" yMin="0" xMax="425" yMax="576">
      <component glyphName="D.hex" x="0" y="0" flags="0x400"/>
    </TTGlyph>
    <TTGlyph name="D.sups" xMin="124" yMin="320" xMax="404" yMax="640">
      <contour>
        <pt x="188" y="640" on="1"/>
        <pt x="289" y="640" on="1"/>
        <pt x="347" y="640" on="0"/>
        <pt x="404" y="588" on="0"/>
        <pt x="404" y="534" on="1"/>
        <pt x="404" y="503" on="0"/>
        <pt x="397" y="471" on="1"/>
        <pt x="381" y="391" on="0"/>
        <pt x="301" y="320" on="0"/>
        <pt x="232" y="320" on="1"/>
        <pt x="124" y="320" on="1"/>
      </contour>
      <contour>
        <pt x="235" y="381" on="1"/>
        <pt x="268" y="381" on="0"/>
        <pt x="300" y="425" on="0"/>
        <pt x="313" y="486" on="1"/>
        <pt x="321" y="526" on="0"/>
        <pt x="321" y="544" on="1"/>
        <pt x="321" y="564" on="0"/>
        <pt x="303" y="579" on="0"/>
        <pt x="280" y="579" on="1"/>
        <pt x="260" y="579" on="1"/>
        <pt x="221" y="381" on="1"/>
      </contour>
    </TTGlyph>
    <TTGlyph name="Dcaron" xMin="10" yMin="0" xMax="501" yMax="842">
      <component glyphName="D" x="0" y="0" flags="0x400"/>
      <component glyphName="uni030C.case" x="4" y="0" flags="0x400"/>
    </TTGlyph>
    <TTGlyph name="Dcroat" xMin="6" yMin="0" xMax="465" yMax="640">
      <component glyphName="Eth" x="0" y="0" flags="0x400"/>
    </TTGlyph>
    <TTGlyph name="E" xMin="10" yMin="0" xMax="457" yMax="640">
      <contour>
        <pt x="138" y="640" on="1"/>
        <pt x="457" y="640" on="1"/>
        <pt x="443" y="568" on="1"/>
        <pt x="216" y="568" on="1"/>
        <pt x="167" y="324" on="1"/>
        <pt x="340" y="324" on="1"/>
        <pt x="326" y="252" on="1"/>
        <pt x="153" y="252" on="1"/>
        <pt x="117" y="72" on="1"/>
        <pt x="354" y="72" on="1"/>
        <pt x="339" y="0" on="1"/>
        <pt x="10" y="0" on="1"/>
      </contour>
    </TTGlyph>
    <TTGlyph name="E.hex" xMin="10" yMin="0" xMax="454" yMax="576">
      <contour>
        <pt x="125" y="576" on="1"/>
        <pt x="454" y="576" on="1"/>
        <pt x="440" y="504" on="1"/>
        <pt x="203" y="504" on="1"/>
        <pt x="164" y="308" on="1"/>
        <pt x="347" y="308" on="1"/>
        <pt x="332" y="236" on="1"/>
        <pt x="149" y="236" on="1"/>
        <pt x="117" y="72" on="1"/>
        <pt x="364" y="72" on="1"/>
        <pt x="349" y="0" on="1"/>
        <pt x="10" y="0" on="1"/>
      </contour>
    </TTGlyph>
    <TTGlyph name="E.short" xMin="10" yMin="0" xMax="454" yMax="576">
      <component glyphName="E.hex" x="0" y="0" flags="0x400"/>
    </TTGlyph>
    <TTGlyph name="E.sups" xMin="137" yMin="320" xMax="407" yMax="640">
      <contour>
        <pt x="201" y="640" on="1"/>
        <pt x="407" y="640" on="1"/>
        <pt x="395" y="578" on="1"/>
        <pt x="273" y="578" on="1"/>
        <pt x="260" y="512" on="1"/>
        <pt x="370" y="512" on="1"/>
        <pt x="357" y="450" on="1"/>
        <pt x="247" y="450" on="1"/>
        <pt x="234" y="382" on="1"/>
        <pt x="360" y="382" on="1"/>
        <pt x="347" y="320" on="1"/>
        <pt x="137" y="320" on="1"/>
      </contour>
    </TTGlyph>
    <TTGlyph name="Eacute" xMin="10" yMin="0" xMax="458" yMax="832">
      <component glyphName="E" x="0" y="0" flags="0x400"/>
      <component glyphName="acutecomb.case" x="-16" y="0" flags="0x400"/>
    </TTGlyph>
    <TTGlyph name="Ebreve" xMin="10" yMin="0" xMax="465" yMax="841">
      <component glyphName="E" x="0" y="0" flags="0x400"/>
      <component glyphName="uni0306.case" x="-16" y="0" flags="0x400"/>
    </TTGlyph>
    <TTGlyph name="Ecaron" xMin="10" yMin="0" xMax="481" yMax="842">
      <component glyphName="E" x="0" y="0" flags="0x400"/>
      <component glyphName="uni030C.case" x="-16" y="0" flags="0x400"/>
    </TTGlyph>
    <TTGlyph name="Ecircumflex" xMin="10" yMin="0" xMax="457" yMax="842">
      <component glyphName="E" x="0" y="0" flags="0x400"/>
      <component glyphName="uni0302.case" x="-16" y="0" flags="0x400"/>
    </TTGlyph>
    <TTGlyph name="Edieresis" xMin="10" yMin="0" xMax="459" yMax="823">
      <component glyphName="E" x="0" y="0" flags="0x400"/>
      <component glyphName="uni0308.case" x="-16" y="0" flags="0x400"/>
    </TTGlyph>
    <TTGlyph name="Edotaccent" xMin="10" yMin="0" xMax="457" yMax="822">
      <component glyphName="E" x="0" y="0" flags="0x400"/>
      <component glyphName="uni0307.case" x="-16" y="0" flags="0x400"/>
    </TTGlyph>
    <TTGlyph name="Egrave" xMin="10" yMin="0" xMax="457" yMax="832">
      <component glyphName="E" x="0" y="0" flags="0x400"/>
      <component glyphName="gravecomb.case" x="-16" y="0" flags="0x400"/>
    </TTGlyph>
    <TTGlyph name="Emacron" xMin="10" yMin="0" xMax="457" yMax="770">
      <component glyphName="E" x="0" y="0" flags="0x400"/>
      <component glyphName="uni0304.case" x="-16" y="0" flags="0x400"/>
    </TTGlyph>
    <TTGlyph name="Eng" xMin="10" yMin="-15" xMax="453" yMax="644">
      <contour>
        <pt x="125" y="576" on="1"/>
        <pt x="136" y="640" on="1"/>
        <pt x="220" y="640" on="1"/>
        <pt x="214" y="595" on="1"/>
        <pt x="281" y="644" on="0"/>
        <pt x="344" y="644" on="1"/>
        <pt x="395" y="644" on="0"/>
        <pt x="453" y="592" on="0"/>
        <pt x="453" y="540" on="1"/>
        <pt x="453" y="524" on="0"/>
        <pt x="448" y="497" on="1"/>
        <pt x="383" y="174" on="1"/>
        <pt x="368" y="98" on="0"/>
        <pt x="297" y="11" on="0"/>
        <pt x="223" y="-15" on="1"/>
        <pt x="198" y="58" on="1"/>
        <pt x="241" y="75" on="0"/>
        <pt x="281" y="125" on="0"/>
        <pt x="291" y="173" on="1"/>
        <pt x="356" y="499" on="1"/>
        <pt x="359" y="516" on="0"/>
        <pt x="359" y="527" on="1"/>
        <pt x="359" y="570" on="0"/>
        <pt x="315" y="570" on="1"/>
        <pt x="269" y="570" on="0"/>
        <pt x="209" y="521" on="1"/>
        <pt x="102" y="0" on="1"/>
        <pt x="10" y="0" on="1"/>
      </contour>
    </TTGlyph>
    <TTGlyph name="Eng.loclNSM" xMin="11" yMin="-197" xMax="507" yMax="640">
      <contour>
        <pt x="240" y="-109" on="0"/>
        <pt x="283" y="-58" on="0"/>
        <pt x="293" y="-9" on="1"/>
        <pt x="297" y="7" on="1"/>
        <pt x="192" y="502" on="1"/>
        <pt x="91" y="0" on="1"/>
        <pt x="11" y="0" on="1"/>
        <pt x="139" y="640" on="1"/>
        <pt x="251" y="640" on="1"/>
        <pt x="342" y="212" on="1"/>
        <pt x="427" y="640" on="1"/>
        <pt x="507" y="640" on="1"/>
        <pt x="378" y="-8" on="1"/>
        <pt x="362" y="-85" on="0"/>
        <pt x="289" y="-171" on="0"/>
        <pt x="217" y="-197" on="1"/>
        <pt x="193" y="-127" on="1"/>
      </contour>
    </TTGlyph>
    <TTGlyph name="Eogonek" xMin="10" yMin="-197" xMax="457" yMax="640">
      <component glyphName="E" x="0" y="0" flags="0x400"/>
      <component glyphName="uni0328" x="-6" y="0" flags="0x400"/>
    </TTGlyph>
    <TTGlyph name="Epsilon" xMin="10" yMin="0" xMax="457" yMax="640">
      <component glyphName="E" x="0" y="0" flags="0x400"/>
    </TTGlyph>
    <TTGlyph name="Epsilontonos" xMin="51" yMin="0" xMax="521" yMax="704">
      <component glyphName="tonos" x="-192" y="0" flags="0x400"/>
      <component glyphName="Epsilon" x="64" y="0" flags="0x400"/>
    </TTGlyph>
    <TTGlyph name="Eta" xMin="10" yMin="0" xMax="508" yMax="640">
      <component glyphName="H" x="0" y="0" flags="0x400"/>
    </TTGlyph>
    <TTGlyph name="Etatonos" xMin="51" yMin="0" xMax="572" yMax="704">
      <component glyphName="tonos" x="-192" y="0" flags="0x400"/>
      <component glyphName="Eta" x="64" y="0" flags="0x400"/>
    </TTGlyph>
    <TTGlyph name="Eth" xMin="6" yMin="0" xMax="465" yMax="640">
      <contour>
        <pt x="75" y="324" on="1"/>
        <pt x="138" y="640" on="1"/>
        <pt x="290" y="640" on="1"/>
        <pt x="380" y="640" on="0"/>
        <pt x="465" y="551" on="0"/>
        <pt x="465" y="454" on="1"/>
        <pt x="465" y="391" on="0"/>
        <pt x="449" y="310" on="1"/>
        <pt x="426" y="196" on="0"/>
        <pt x="356" y="61" on="0"/>
        <pt x="248" y="0" on="0"/>
        <pt x="168" y="0" on="1"/>
        <pt x="10" y="0" on="1"/>
        <pt x="60" y="252" on="1"/>
        <pt x="6" y="252" on="1"/>
        <pt x="20" y="324" on="1"/>
      </contour>
      <contour>
        <pt x="170" y="72" on="1"/>
        <pt x="227" y="72" on="0"/>
        <pt x="295" y="124" on="0"/>
        <pt x="335" y="229" on="0"/>
        <pt x="354" y="325" on="1"/>
        <pt x="374" y="428" on="0"/>
        <pt x="374" y="472" on="1"/>
        <pt x="374" y="524" on="0"/>
        <pt x="328" y="568" on="0"/>
        <pt x="275" y="568" on="1"/>
        <pt x="216" y="568" on="1"/>
        <pt x="167" y="324" on="1"/>
        <pt x="261" y="324" on="1"/>
        <pt x="247" y="252" on="1"/>
        <pt x="153" y="252" on="1"/>
        <pt x="117" y="72" on="1"/>
      </contour>
    </TTGlyph>
    <TTGlyph name="Euro" xMin="52" yMin="-7" xMax="480" yMax="583">
      <contour>
        <pt x="315" y="65" on="0"/>
        <pt x="364" y="82" on="1"/>
        <pt x="374" y="12" on="1"/>
        <pt x="348" y="3" on="0"/>
        <pt x="291" y="-7" on="0"/>
        <pt x="268" y="-7" on="1"/>
        <pt x="100" y="-7" on="0"/>
        <pt x="108" y="187" on="1"/>
        <pt x="52" y="187" on="1"/>
        <pt x="66" y="258" on="1"/>
        <pt x="115" y="258" on="1"/>
        <pt x="119" y="281" on="0"/>
        <pt x="122" y="296" on="1"/>
        <pt x="126" y="316" on="1"/>
        <pt x="78" y="316" on="1"/>
        <pt x="92" y="387" on="1"/>
        <pt x="145" y="387" on="1"/>
        <pt x="178" y="484" on="0"/>
        <pt x="290" y="583" on="0"/>
        <pt x="374" y="583" on="1"/>
        <pt x="428" y="583" on="0"/>
        <pt x="480" y="562" on="1"/>
        <pt x="453" y="498" on="1"/>
        <pt x="419" y="511" on="0"/>
        <pt x="378" y="511" on="1"/>
        <pt x="332" y="511" on="0"/>
        <pt x="264" y="452" on="0"/>
        <pt x="240" y="387" on="1"/>
        <pt x="412" y="387" on="1"/>
        <pt x="380" y="316" on="1"/>
        <pt x="219" y="316" on="1"/>
        <pt x="214" y="300" on="0"/>
        <pt x="211" y="281" on="1"/>
        <pt x="209" y="274" on="0"/>
        <pt x="207" y="258" on="1"/>
        <pt x="357" y="258" on="1"/>
        <pt x="327" y="187" on="1"/>
        <pt x="198" y="187" on="1"/>
        <pt x="197" y="179" on="0"/>
        <pt x="197" y="165" on="1"/>
        <pt x="197" y="111" on="0"/>
        <pt x="237" y="65" on="0"/>
        <pt x="278" y="65" on="1"/>
      </contour>
    </TTGlyph>
    <TTGlyph name="F" xMin="10" yMin="0" xMax="440" yMax="640">
      <contour>
        <pt x="138" y="640" on="1"/>
        <pt x="440" y="640" on="1"/>
        <pt x="426" y="568" on="1"/>
        <pt x="216" y="568" on="1"/>
        <pt x="167" y="324" on="1"/>
        <pt x="329" y="324" on="1"/>
        <pt x="314" y="252" on="1"/>
        <pt x="153" y="252" on="1"/>
        <pt x="102" y="0" on="1"/>
        <pt x="10" y="0" on="1"/>
      </contour>
    </TTGlyph>
    <TTGlyph name="F.hex" xMin="9" yMin="0" xMax="464" yMax="576">
      <contour>
        <pt x="124" y="576" on="1"/>
        <pt x="464" y="576" on="1"/>
        <pt x="450" y="504" on="1"/>
        <pt x="202" y="504" on="1"/>
        <pt x="163" y="308" on="1"/>
        <pt x="347" y="308" on="1"/>
        <pt x="332" y="236" on="1"/>
        <pt x="148" y="236" on="1"/>
        <pt x="101" y="0" on="1"/>
        <pt x="9" y="0" on="1"/>
      </contour>
    </TTGlyph>
    <TTGlyph name="F.short" xMin="9" yMin="0" xMax="464" yMax="576">
      <component glyphName="F.hex" x="0" y="0" flags="0x400"/>
    </TTGlyph>
    <TTGlyph name="F.sups" xMin="137" yMin="320" xMax="413" yMax="640">
      <contour>
        <pt x="201" y="640" on="1"/>
        <pt x="413" y="640" on="1"/>
        <pt x="401" y="579" on="1"/>
        <pt x="273" y="579" on="1"/>
        <pt x="258" y="506" on="1"/>
        <pt x="366" y="506" on="1"/>
        <pt x="354" y="445" on="1"/>
        <pt x="246" y="445" on="1"/>
        <pt x="221" y="320" on="1"/>
        <pt x="137" y="320" on="1"/>
      </contour>
    </TTGlyph>
    <TTGlyph name="G" xMin="43" yMin="-9" xMax="477" yMax="647">
      <contour>
        <pt x="132" y="-9" on="0"/>
        <pt x="43" y="76" on="0"/>
        <pt x="43" y="173" on="1"/>
        <pt x="43" y="236" on="0"/>
        <pt x="61" y="327" on="1"/>
        <pt x="85" y="447" on="0"/>
        <pt x="156" y="585" on="0"/>
        <pt x="265" y="647" on="0"/>
        <pt x="348" y="647" on="1"/>
        <pt x="415" y="647" on="0"/>
        <pt x="477" y="630" on="1"/>
        <pt x="455" y="564" on="1"/>
        <pt x="409" y="575" on="0"/>
        <pt x="358" y="575" on="1"/>
        <pt x="292" y="575" on="0"/>
        <pt x="218" y="523" on="0"/>
        <pt x="176" y="415" on="0"/>
        <pt x="156" y="312" on="1"/>
        <pt x="134" y="200" on="0"/>
        <pt x="134" y="156" on="1"/>
        <pt x="134" y="106" on="0"/>
        <pt x="180" y="63" on="0"/>
        <pt x="236" y="63" on="1"/>
        <pt x="254" y="63" on="0"/>
        <pt x="278" y="66" on="1"/>
        <pt x="315" y="252" on="1"/>
        <pt x="219" y="252" on="1"/>
        <pt x="234" y="324" on="1"/>
        <pt x="421" y="324" on="1"/>
        <pt x="358" y="7" on="1"/>
        <pt x="328" y="-1" on="0"/>
        <pt x="255" y="-9" on="0"/>
        <pt x="228" y="-9" on="1"/>
      </contour>
    </TTGlyph>
    <TTGlyph name="G.short" xMin="47" yMin="-9" xMax="456" yMax="583">
      <contour>
        <pt x="134" y="-9" on="0"/>
        <pt x="47" y="71" on="0"/>
        <pt x="47" y="162" on="1"/>
        <pt x="47" y="212" on="0"/>
        <pt x="63" y="295" on="1"/>
        <pt x="85" y="403" on="0"/>
        <pt x="152" y="527" on="0"/>
        <pt x="256" y="583" on="0"/>
        <pt x="336" y="583" on="1"/>
        <pt x="399" y="583" on="0"/>
        <pt x="456" y="566" on="1"/>
        <pt x="434" y="500" on="1"/>
        <pt x="391" y="511" on="0"/>
        <pt x="346" y="511" on="1"/>
        <pt x="283" y="511" on="0"/>
        <pt x="214" y="465" on="0"/>
        <pt x="176" y="371" on="0"/>
        <pt x="158" y="280" on="1"/>
        <pt x="139" y="183" on="0"/>
        <pt x="139" y="147" on="1"/>
        <pt x="139" y="102" on="0"/>
        <pt x="183" y="63" on="0"/>
        <pt x="237" y="63" on="1"/>
        <pt x="250" y="63" on="0"/>
        <pt x="270" y="65" on="1"/>
        <pt x="300" y="220" on="1"/>
        <pt x="218" y="220" on="1"/>
        <pt x="232" y="292" on="1"/>
        <pt x="407" y="292" on="1"/>
        <pt x="350" y="7" on="1"/>
        <pt x="323" y="-1" on="0"/>
        <pt x="256" y="-9" on="0"/>
        <pt x="229" y="-9" on="1"/>
      </contour>
    </TTGlyph>
    <TTGlyph name="G.sups" xMin="138" yMin="315" xMax="411" yMax="647">
      <contour>
        <pt x="194" y="315" on="0"/>
        <pt x="138" y="366" on="0"/>
        <pt x="138" y="423" on="1"/>
        <pt x="138" y="454" on="0"/>
        <pt x="145" y="489" on="1"/>
        <pt x="162" y="572" on="0"/>
        <pt x="241" y="647" on="0"/>
        <pt x="314" y="647" on="1"/>
        <pt x="361" y="647" on="0"/>
        <pt x="411" y="635" on="1"/>
        <pt x="394" y="575" on="1"/>
        <pt x="349" y="584" on="0"/>
        <pt x="316" y="584" on="1"/>
        <pt x="275" y="584" on="0"/>
        <pt x="241" y="537" on="0"/>
        <pt x="229" y="474" on="1"/>
        <pt x="220" y="431" on="0"/>
        <pt x="220" y="410" on="1"/>
        <pt x="220" y="392" on="0"/>
        <pt x="235" y="378" on="0"/>
        <pt x="253" y="378" on="1"/>
        <pt x="260" y="378" on="0"/>
        <pt x="278" y="380" on="1"/>
        <pt x="304" y="512" on="1"/>
        <pt x="388" y="512" on="1"/>
        <pt x="351" y="327" on="1"/>
        <pt x="330" y="322" on="0"/>
        <pt x="273" y="315" on="0"/>
        <pt x="250" y="315" on="1"/>
      </contour>
    </TTGlyph>
    <TTGlyph name="Gamma" xMin="10" yMin="0" xMax="440" yMax="640">
      <component glyphName="uni0413" x="0" y="0" flags="0x400"/>
    </TTGlyph>
    <TTGlyph name="Gbreve" xMin="43" yMin="-9" xMax="501" yMax="841">
      <component glyphName="G" x="0" y="0" flags="0x400"/>
      <component glyphName="uni0306.case" x="20" y="0" flags="0x400"/>
    </TTGlyph>
    <TTGlyph name="Gcaron" xMin="43" yMin="-9" xMax="517" yMax="842">
      <component glyphName="G" x="0" y="0" flags="0x400"/>
      <component glyphName="uni030C.case" x="20" y="0" flags="0x400"/>
    </TTGlyph>
    <TTGlyph name="Gcircumflex" xMin="43" yMin="-9" xMax="486" yMax="842">
      <component glyphName="G" x="0" y="0" flags="0x400"/>
      <component glyphName="uni0302.case" x="20" y="0" flags="0x400"/>
    </TTGlyph>
    <TTGlyph name="Gdotaccent" xMin="43" yMin="-9" xMax="477" yMax="822">
      <component glyphName="G" x="0" y="0" flags="0x400"/>
      <component glyphName="uni0307.case" x="20" y="0" flags="0x400"/>
    </TTGlyph>
    <TTGlyph name="H" xMin="10" yMin="0" xMax="508" yMax="640">
      <contour>
        <pt x="138" y="640" on="1"/>
        <pt x="230" y="640" on="1"/>
        <pt x="167" y="324" on="1"/>
        <pt x="353" y="324" on="1"/>
        <pt x="416" y="640" on="1"/>
        <pt x="508" y="640" on="1"/>
        <pt x="380" y="0" on="1"/>
        <pt x="288" y="0" on="1"/>
        <pt x="339" y="252" on="1"/>
        <pt x="153" y="252" on="1"/>
        <pt x="102" y="0" on="1"/>
        <pt x="10" y="0" on="1"/>
      </contour>
    </TTGlyph>
    <TTGlyph name="H.sups" xMin="127" yMin="320" xMax="423" yMax="640">
      <contour>
        <pt x="191" y="640" on="1"/>
        <pt x="275" y="640" on="1"/>
        <pt x="250" y="512" on="1"/>
        <pt x="314" y="512" on="1"/>
        <pt x="339" y="640" on="1"/>
        <pt x="423" y="640" on="1"/>
        <pt x="359" y="320" on="1"/>
        <pt x="275" y="320" on="1"/>
        <pt x="301" y="449" on="1"/>
        <pt x="237" y="449" on="1"/>
        <pt x="211" y="320" on="1"/>
        <pt x="127" y="320" on="1"/>
      </contour>
    </TTGlyph>
    <TTGlyph name="Hbar" xMin="10" yMin="0" xMax="532" yMax="640">
      <contour>
        <pt x="98" y="440" on="1"/>
        <pt x="48" y="440" on="1"/>
        <pt x="63" y="508" on="1"/>
        <pt x="112" y="508" on="1"/>
        <pt x="138" y="640" on="1"/>
        <pt x="230" y="640" on="1"/>
        <pt x="204" y="508" on="1"/>
        <pt x="390" y="508" on="1"/>
        <pt x="416" y="640" on="1"/>
        <pt x="508" y="640" on="1"/>
        <pt x="482" y="508" on="1"/>
        <pt x="532" y="508" on="1"/>
        <pt x="517" y="440" on="1"/>
        <pt x="468" y="440" on="1"/>
        <pt x="380" y="0" on="1"/>
        <pt x="288" y="0" on="1"/>
        <pt x="339" y="252" on="1"/>
        <pt x="153" y="252" on="1"/>
        <pt x="102" y="0" on="1"/>
        <pt x="10" y="0" on="1"/>
      </contour>
      <contour>
        <pt x="353" y="324" on="1"/>
        <pt x="376" y="440" on="1"/>
        <pt x="190" y="440" on="1"/>
        <pt x="167" y="324" on="1"/>
      </contour>
    </TTGlyph>
    <TTGlyph name="Hcircumflex" xMin="10" yMin="0" xMax="508" yMax="842">
      <component glyphName="H" x="0" y="0" flags="0x400"/>
      <component glyphName="uni0302.case" x="16" y="0" flags="0x400"/>
    </TTGlyph>
    <TTGlyph name="I" xMin="4" yMin="0" xMax="349" yMax="640">
      <contour>
        <pt x="18" y="68" on="1"/>
        <pt x="84" y="72" on="1"/>
        <pt x="183" y="568" on="1"/>
        <pt x="123" y="572" on="1"/>
        <pt x="136" y="640" on="1"/>
        <pt x="349" y="640" on="1"/>
        <pt x="336" y="572" on="1"/>
        <pt x="275" y="568" on="1"/>
        <pt x="176" y="72" on="1"/>
        <pt x="240" y="68" on="1"/>
        <pt x="226" y="0" on="1"/>
        <pt x="4" y="0" on="1"/>
      </contour>
    </TTGlyph>
    <TTGlyph name="I.cv02" xMin="21" yMin="0" xMax="241" yMax="640">
      <contour>
        <pt x="149" y="640" on="1"/>
        <pt x="241" y="640" on="1"/>
        <pt x="113" y="0" on="1"/>
        <pt x="21" y="0" on="1"/>
      </contour>
    </TTGlyph>
    <TTGlyph name="I.short" xMin="13" yMin="0" xMax="456" yMax="576">
      <contour>
        <pt x="26" y="61" on="1"/>
        <pt x="148" y="72" on="1"/>
        <pt x="234" y="504" on="1"/>
        <pt x="120" y="515" on="1"/>
        <pt x="132" y="576" on="1"/>
        <pt x="456" y="576" on="1"/>
        <pt x="444" y="515" on="1"/>
        <pt x="326" y="504" on="1"/>
        <pt x="240" y="72" on="1"/>
        <pt x="358" y="61" on="1"/>
        <pt x="345" y="0" on="1"/>
        <pt x="13" y="0" on="1"/>
      </contour>
    </TTGlyph>
    <TTGlyph name="I.short.cv02" xMin="133" yMin="0" xMax="340" yMax="576">
      <contour>
        <pt x="248" y="576" on="1"/>
        <pt x="340" y="576" on="1"/>
        <pt x="225" y="0" on="1"/>
        <pt x="133" y="0" on="1"/>
      </contour>
    </TTGlyph>
    <TTGlyph name="I.sups" xMin="137" yMin="320" xMax="413" yMax="640">
      <contour>
        <pt x="349" y="320" on="1"/>
        <pt x="137" y="320" on="1"/>
        <pt x="148" y="374" on="1"/>
        <pt x="214" y="382" on="1"/>
        <pt x="253" y="578" on="1"/>
        <pt x="191" y="586" on="1"/>
        <pt x="201" y="640" on="1"/>
        <pt x="413" y="640" on="1"/>
        <pt x="403" y="586" on="1"/>
        <pt x="337" y="578" on="1"/>
        <pt x="298" y="382" on="1"/>
        <pt x="360" y="374" on="1"/>
      </contour>
    </TTGlyph>
    <TTGlyph name="IJ" xMin="4" yMin="-8" xMax="764" yMax="640">
      <component glyphName="I" x="0" y="0" flags="0x400"/>
      <component glyphName="J" x="320" y="0" flags="0x400"/>
    </TTGlyph>
    <TTGlyph name="Iacute" xMin="4" yMin="0" xMax="410" yMax="832">
      <component glyphName="I" x="0" y="0" flags="0x400"/>
      <component glyphName="acutecomb.case" x="-64" y="0" flags="0x400"/>
    </TTGlyph>
    <TTGlyph name="Iacute.cv02" xMin="21" yMin="0" xMax="362" yMax="832">
      <component glyphName="I.cv02" x="0" y="0" flags="0x400"/>
      <component glyphName="acutecomb.case" x="-112" y="0" flags="0x400"/>
    </TTGlyph>
    <TTGlyph name="Ibreve" xMin="4" yMin="0" xMax="417" yMax="841">
      <component glyphName="I" x="0" y="0" flags="0x400"/>
      <component glyphName="uni0306.case" x="-64" y="0" flags="0x400"/>
    </TTGlyph>
    <TTGlyph name="Ibreve.cv02" xMin="21" yMin="0" xMax="369" yMax="841">
      <component glyphName="I.cv02" x="0" y="0" flags="0x400"/>
      <component glyphName="uni0306.case" x="-112" y="0" flags="0x400"/>
    </TTGlyph>
    <TTGlyph name="Icapitalsmall.cv02" xMin="4" yMin="0" xMax="349" yMax="640">
      <contour>
        <pt x="18" y="68" on="1"/>
        <pt x="84" y="72" on="1"/>
        <pt x="183" y="568" on="1"/>
        <pt x="123" y="572" on="1"/>
        <pt x="136" y="640" on="1"/>
        <pt x="349" y="640" on="1"/>
        <pt x="336" y="572" on="1"/>
        <pt x="275" y="568" on="1"/>
        <pt x="176" y="72" on="1"/>
        <pt x="240" y="68" on="1"/>
        <pt x="226" y="0" on="1"/>
        <pt x="4" y="0" on="1"/>
      </contour>
    </TTGlyph>
    <TTGlyph name="Icircumflex" xMin="4" yMin="0" xMax="402" yMax="842">
      <component glyphName="I" x="0" y="0" flags="0x400"/>
      <component glyphName="uni0302.case" x="-64" y="0" flags="0x400"/>
    </TTGlyph>
    <TTGlyph name="Icircumflex.cv02" xMin="21" yMin="0" xMax="354" yMax="842">
      <component glyphName="I.cv02" x="0" y="0" flags="0x400"/>
      <component glyphName="uni0302.case" x="-112" y="0" flags="0x400"/>
    </TTGlyph>
    <TTGlyph name="Idieresis" xMin="4" yMin="0" xMax="411" yMax="823">
      <component glyphName="I" x="0" y="0" flags="0x400"/>
      <component glyphName="uni0308.case" x="-64" y="0" flags="0x400"/>
    </TTGlyph>
    <TTGlyph name="Idieresis.cv02" xMin="21" yMin="0" xMax="363" yMax="823">
      <component glyphName="I.cv02" x="0" y="0" flags="0x400"/>
      <component glyphName="uni0308.case" x="-112" y="0" flags="0x400"/>
    </TTGlyph>
    <TTGlyph name="Idotaccent" xMin="4" yMin="0" xMax="349" yMax="822">
      <component glyphName="I" x="0" y="0" flags="0x400"/>
      <component glyphName="uni0307.case" x="-64" y="0" flags="0x400"/>
    </TTGlyph>
    <TTGlyph name="Idotaccent.cv02" xMin="21" yMin="0" xMax="284" yMax="822">
      <component glyphName="I.cv02" x="0" y="0" flags="0x400"/>
      <component glyphName="uni0307.case" x="-112" y="0" flags="0x400"/>
    </TTGlyph>
    <TTGlyph name="Igrave" xMin="4" yMin="0" xMax="349" yMax="832">
      <component glyphName="I" x="0" y="0" flags="0x400"/>
      <component glyphName="gravecomb.case" x="-64" y="0" flags="0x400"/>
    </TTGlyph>
    <TTGlyph name="Igrave.cv02" xMin="21" yMin="0" xMax="245" yMax="832">
      <component glyphName="I.cv02" x="0" y="0" flags="0x400"/>
      <component glyphName="gravecomb.case" x="-112" y="0" flags="0x400"/>
    </TTGlyph>
    <TTGlyph name="Imacron" xMin="4" yMin="0" xMax="396" yMax="770">
      <component glyphName="I" x="0" y="0" flags="0x400"/>
      <component glyphName="uni0304.case" x="-64" y="0" flags="0x400"/>
    </TTGlyph>
    <TTGlyph name="Imacron.cv02" xMin="21" yMin="0" xMax="348" yMax="770">
      <component glyphName="I.cv02" x="0" y="0" flags="0x400"/>
      <component glyphName="uni0304.case" x="-112" y="0" flags="0x400"/>
    </TTGlyph>
    <TTGlyph name="Iogonek" xMin="4" yMin="-197" xMax="349" yMax="640">
      <component glyphName="I" x="0" y="0" flags="0x400"/>
      <component glyphName="uni0328" x="-119" y="0" flags="0x400"/>
    </TTGlyph>
    <TTGlyph name="Iogonek.cv02" xMin="-54" yMin="-197" xMax="241" yMax="640">
      <component glyphName="I.cv02" x="0" y="0" flags="0x400"/>
      <component glyphName="uni0328" x="-232" y="0" flags="0x400"/>
    </TTGlyph>
    <TTGlyph name="Iota" xMin="4" yMin="0" xMax="349" yMax="640">
      <component glyphName="I" x="0" y="0" flags="0x400"/>
    </TTGlyph>
    <TTGlyph name="Iota.cv02" xMin="21" yMin="0" xMax="241" yMax="640">
      <component glyphName="I.cv02" x="0" y="0" flags="0x400"/>
    </TTGlyph>
    <TTGlyph name="Iotadieresis" xMin="4" yMin="0" xMax="411" yMax="823">
      <component glyphName="Iota" x="0" y="0" flags="0x400"/>
      <component glyphName="uni0308.case" x="-64" y="0" flags="0x400"/>
    </TTGlyph>
    <TTGlyph name="Iotadieresis.cv02" xMin="21" yMin="0" xMax="363" yMax="823">
      <component glyphName="Iota.cv02" x="0" y="0" flags="0x400"/>
      <component glyphName="uni0308.case" x="-112" y="0" flags="0x400"/>
    </TTGlyph>
    <TTGlyph name="Iotatonos" xMin="51" yMin="0" xMax="413" yMax="704">
      <component glyphName="tonos" x="-192" y="0" flags="0x400"/>
      <component glyphName="Iota" x="64" y="0" flags="0x400"/>
    </TTGlyph>
    <TTGlyph name="Iotatonos.cv02" xMin="51" yMin="0" xMax="305" yMax="704">
      <component glyphName="tonos" x="-192" y="0" flags="0x400"/>
      <component glyphName="Iota.cv02" x="64" y="0" flags="0x400"/>
    </TTGlyph>
    <TTGlyph name="Itilde" xMin="4" yMin="0" xMax="439" yMax="840">
      <component glyphName="I" x="0" y="0" flags="0x400"/>
      <component glyphName="tildecomb.case" x="-64" y="0" flags="0x400"/>
    </TTGlyph>
    <TTGlyph name="Itilde.cv02" xMin="21" yMin="0" xMax="391" yMax="840">
      <component glyphName="I.cv02" x="0" y="0" flags="0x400"/>
      <component glyphName="tildecomb.case" x="-112" y="0" flags="0x400"/>
    </TTGlyph>
    <TTGlyph name="J" xMin="7" yMin="-8" xMax="444" yMax="640">
      <contour>
        <pt x="96" y="102" on="0"/>
        <pt x="123" y="64" on="0"/>
        <pt x="154" y="64" on="1"/>
        <pt x="199" y="64" on="0"/>
        <pt x="248" y="121" on="0"/>
        <pt x="259" y="173" on="1"/>
        <pt x="337" y="564" on="1"/>
        <pt x="183" y="564" on="1"/>
        <pt x="198" y="640" on="1"/>
        <pt x="444" y="640" on="1"/>
        <pt x="350" y="170" on="1"/>
        <pt x="314" y="-8" on="0"/>
        <pt x="152" y="-8" on="1"/>
        <pt x="79" y="-8" on="0"/>
        <pt x="9" y="67" on="0"/>
        <pt x="7" y="132" on="1"/>
        <pt x="94" y="145" on="1"/>
      </contour>
    </TTGlyph>
    <TTGlyph name="J.cv03" xMin="7" yMin="-8" xMax="444" yMax="640">
      <contour>
        <pt x="79" y="-8" on="0"/>
        <pt x="9" y="67" on="0"/>
        <pt x="7" y="132" on="1"/>
        <pt x="94" y="145" on="1"/>
        <pt x="96" y="102" on="0"/>
        <pt x="123" y="64" on="0"/>
        <pt x="154" y="64" on="1"/>
        <pt x="199" y="64" on="0"/>
        <pt x="248" y="121" on="0"/>
        <pt x="259" y="173" on="1"/>
        <pt x="353" y="640" on="1"/>
        <pt x="444" y="640" on="1"/>
        <pt x="350" y="170" on="1"/>
        <pt x="314" y="-8" on="0"/>
        <pt x="152" y="-8" on="1"/>
      </contour>
    </TTGlyph>
    <TTGlyph name="J.sups" xMin="135" yMin="314" xMax="413" yMax="640">
      <contour>
        <pt x="185" y="314" on="0"/>
        <pt x="135" y="323" on="1"/>
        <pt x="149" y="382" on="1"/>
        <pt x="184" y="377" on="0"/>
        <pt x="216" y="377" on="1"/>
        <pt x="248" y="377" on="0"/>
        <pt x="281" y="403" on="0"/>
        <pt x="288" y="436" on="1"/>
        <pt x="317" y="577" on="1"/>
        <pt x="199" y="577" on="1"/>
        <pt x="211" y="640" on="1"/>
        <pt x="413" y="640" on="1"/>
        <pt x="370" y="426" on="1"/>
        <pt x="347" y="314" on="0"/>
        <pt x="221" y="314" on="1"/>
      </contour>
    </TTGlyph>
    <TTGlyph name="Jcircumflex" xMin="7" yMin="-8" xMax="480" yMax="842">
      <component glyphName="J" x="0" y="0" flags="0x400"/>
      <component glyphName="uni0302.case" x="14" y="0" flags="0x400"/>
    </TTGlyph>
    <TTGlyph name="Jcircumflex.cv03" xMin="7" yMin="-8" xMax="558" yMax="842">
      <component glyphName="J.cv03" x="0" y="0" flags="0x400"/>
      <component glyphName="uni0302.case" x="92" y="0" flags="0x400"/>
    </TTGlyph>
    <TTGlyph name="K" xMin="10" yMin="0" xMax="491" yMax="640">
      <contour>
        <pt x="138" y="640" on="1"/>
        <pt x="230" y="640" on="1"/>
        <pt x="168" y="329" on="1"/>
        <pt x="199" y="329" on="1"/>
        <pt x="267" y="400" on="0"/>
        <pt x="356" y="540" on="0"/>
        <pt x="392" y="640" on="1"/>
        <pt x="491" y="640" on="1"/>
        <pt x="451" y="538" on="0"/>
        <pt x="356" y="392" on="0"/>
        <pt x="283" y="322" on="1"/>
        <pt x="380" y="299" on="0"/>
        <pt x="380" y="185" on="1"/>
        <pt x="380" y="160" on="0"/>
        <pt x="378" y="147" on="1"/>
        <pt x="361" y="0" on="1"/>
        <pt x="265" y="0" on="1"/>
        <pt x="287" y="147" on="1"/>
        <pt x="291" y="179" on="0"/>
        <pt x="291" y="189" on="1"/>
        <pt x="291" y="227" on="0"/>
        <pt x="253" y="257" on="0"/>
        <pt x="209" y="257" on="1"/>
        <pt x="154" y="257" on="1"/>
        <pt x="102" y="0" on="1"/>
        <pt x="10" y="0" on="1"/>
      </contour>
    </TTGlyph>
    <TTGlyph name="K.short" xMin="10" yMin="0" xMax="479" yMax="576">
      <contour>
        <pt x="125" y="576" on="1"/>
        <pt x="217" y="576" on="1"/>
        <pt x="163" y="302" on="1"/>
        <pt x="195" y="302" on="1"/>
        <pt x="260" y="365" on="0"/>
        <pt x="346" y="489" on="0"/>
        <pt x="379" y="576" on="1"/>
        <pt x="479" y="576" on="1"/>
        <pt x="443" y="485" on="0"/>
        <pt x="353" y="356" on="0"/>
        <pt x="283" y="295" on="1"/>
        <pt x="380" y="272" on="0"/>
        <pt x="380" y="176" on="1"/>
        <pt x="380" y="167" on="0"/>
        <pt x="378" y="147" on="1"/>
        <pt x="361" y="0" on="1"/>
        <pt x="265" y="0" on="1"/>
        <pt x="287" y="147" on="1"/>
        <pt x="289" y="165" on="0"/>
        <pt x="289" y="172" on="1"/>
        <pt x="289" y="205" on="0"/>
        <pt x="250" y="230" on="0"/>
        <pt x="204" y="230" on="1"/>
        <pt x="148" y="230" on="1"/>
        <pt x="102" y="0" on="1"/>
        <pt x="10" y="0" on="1"/>
      </contour>
    </TTGlyph>
    <TTGlyph name="K.sups" xMin="131" yMin="320" xMax="433" yMax="640">
      <contour>
        <pt x="195" y="640" on="1"/>
        <pt x="279" y="640" on="1"/>
        <pt x="253" y="506" on="1"/>
        <pt x="270" y="506" on="1"/>
        <pt x="295" y="534" on="0"/>
        <pt x="331" y="596" on="0"/>
        <pt x="346" y="640" on="1"/>
        <pt x="433" y="640" on="1"/>
        <pt x="416" y="591" on="0"/>
        <pt x="376" y="524" on="0"/>
        <pt x="345" y="492" on="1"/>
        <pt x="381" y="468" on="0"/>
        <pt x="375" y="407" on="1"/>
        <pt x="368" y="320" on="1"/>
        <pt x="282" y="320" on="1"/>
        <pt x="293" y="414" on="1"/>
        <pt x="294" y="418" on="0"/>
        <pt x="294" y="425" on="1"/>
        <pt x="294" y="436" on="0"/>
        <pt x="284" y="445" on="0"/>
        <pt x="272" y="445" on="1"/>
        <pt x="240" y="445" on="1"/>
        <pt x="215" y="320" on="1"/>
        <pt x="131" y="320" on="1"/>
      </contour>
    </TTGlyph>
    <TTGlyph name="Kappa" xMin="10" yMin="0" xMax="491" yMax="640">
      <component glyphName="K" x="0" y="0" flags="0x400"/>
    </TTGlyph>
    <TTGlyph name="L" xMin="10" yMin="0" xMax="319" yMax="640">
      <contour>
        <pt x="138" y="640" on="1"/>
        <pt x="230" y="640" on="1"/>
        <pt x="118" y="76" on="1"/>
        <pt x="319" y="76" on="1"/>
        <pt x="303" y="0" on="1"/>
        <pt x="10" y="0" on="1"/>
      </contour>
    </TTGlyph>
    <TTGlyph name="L.sups" xMin="137" yMin="320" xMax="362" yMax="640">
      <contour>
        <pt x="349" y="320" on="1"/>
        <pt x="137" y="320" on="1"/>
        <pt x="201" y="640" on="1"/>
        <pt x="285" y="640" on="1"/>
        <pt x="234" y="383" on="1"/>
        <pt x="362" y="383" on="1"/>
      </contour>
    </TTGlyph>
    <TTGlyph name="Lacute" xMin="10" yMin="0" xMax="351" yMax="832">
      <component glyphName="L" x="0" y="0" flags="0x400"/>
      <component glyphName="acutecomb.case" x="-123" y="0" flags="0x400"/>
    </TTGlyph>
    <TTGlyph name="Lambda" xMin="-15" yMin="0" xMax="390" yMax="642">
      <contour>
        <pt x="37" y="188" on="0"/>
        <pt x="179" y="520" on="0"/>
        <pt x="263" y="642" on="1"/>
        <pt x="347" y="642" on="1"/>
        <pt x="390" y="494" on="0"/>
        <pt x="390" y="285" on="1"/>
        <pt x="390" y="147" on="0"/>
        <pt x="372" y="0" on="1"/>
        <pt x="279" y="0" on="1"/>
        <pt x="300" y="182" on="0"/>
        <pt x="300" y="329" on="1"/>
        <pt x="300" y="448" on="0"/>
        <pt x="287" y="535" on="1"/>
        <pt x="171" y="324" on="0"/>
        <pt x="81" y="0" on="1"/>
        <pt x="-15" y="0" on="1"/>
      </contour>
    </TTGlyph>
    <TTGlyph name="Lcaron" xMin="10" yMin="0" xMax="434" yMax="640">
      <component glyphName="L" x="0" y="0" flags="0x400"/>
      <component glyphName="uni030C.alt" x="-96" y="0" flags="0x400"/>
    </TTGlyph>
    <TTGlyph name="Ldot" xMin="10" yMin="0" xMax="386" yMax="640">
      <component glyphName="L" x="0" y="0" flags="0x400"/>
      <component glyphName="period" x="215" y="246" flags="0x404"/>
    </TTGlyph>
    <TTGlyph name="Lslash" xMin="-52" yMin="0" xMax="319" yMax="640">
      <component glyphName="L" x="0" y="0" flags="0x400"/>
      <component glyphName="_part.slash.comp" x="-112" y="0" flags="0x400"/>
    </TTGlyph>
    <TTGlyph name="M" xMin="10" yMin="0" xMax="604" yMax="640">
      <contour>
        <pt x="138" y="640" on="1"/>
        <pt x="249" y="640" on="1"/>
        <pt x="291" y="347" on="1"/>
        <pt x="296" y="272" on="1"/>
        <pt x="333" y="347" on="1"/>
        <pt x="491" y="640" on="1"/>
        <pt x="604" y="640" on="1"/>
        <pt x="476" y="0" on="1"/>
        <pt x="384" y="0" on="1"/>
        <pt x="459" y="373" on="1"/>
        <pt x="490" y="493" on="1"/>
        <pt x="452" y="410" on="1"/>
        <pt x="307" y="150" on="1"/>
        <pt x="242" y="150" on="1"/>
        <pt x="203" y="410" on="1"/>
        <pt x="195" y="498" on="1"/>
        <pt x="177" y="373" on="1"/>
        <pt x="102" y="0" on="1"/>
        <pt x="10" y="0" on="1"/>
      </contour>
    </TTGlyph>
    <TTGlyph name="M.sups" xMin="108" yMin="320" xMax="428" yMax="640">
      <contour>
        <pt x="151" y="521" on="0"/>
        <pt x="186" y="640" on="1"/>
        <pt x="271" y="640" on="1"/>
        <pt x="278" y="493" on="1"/>
        <pt x="343" y="640" on="1"/>
        <pt x="428" y="640" on="1"/>
        <pt x="416" y="520" on="0"/>
        <pt x="380" y="320" on="1"/>
        <pt x="303" y="320" on="1"/>
        <pt x="313" y="365" on="0"/>
        <pt x="330" y="472" on="1"/>
        <pt x="336" y="506" on="1"/>
        <pt x="282" y="388" on="1"/>
        <pt x="232" y="388" on="1"/>
        <pt x="226" y="508" on="1"/>
        <pt x="209" y="440" on="0"/>
        <pt x="185" y="320" on="1"/>
        <pt x="108" y="320" on="1"/>
      </contour>
    </TTGlyph>
    <TTGlyph name="Mu" xMin="10" yMin="0" xMax="604" yMax="640">
      <component glyphName="M" x="0" y="0" flags="0x400"/>
    </TTGlyph>
    <TTGlyph name="N" xMin="11" yMin="0" xMax="507" yMax="640">
      <contour>
        <pt x="189" y="484" on="1"/>
        <pt x="91" y="0" on="1"/>
        <pt x="11" y="0" on="1"/>
        <pt x="139" y="640" on="1"/>
        <pt x="250" y="640" on="1"/>
        <pt x="332" y="169" on="1"/>
        <pt x="427" y="640" on="1"/>
        <pt x="507" y="640" on="1"/>
        <pt x="379" y="0" on="1"/>
        <pt x="273" y="0" on="1"/>
      </contour>
    </TTGlyph>
    <TTGlyph name="N.short" xMin="10" yMin="0" xMax="463" yMax="576">
      <contour>
        <pt x="222" y="576" on="1"/>
        <pt x="286" y="237" on="1"/>
        <pt x="292" y="137" on="1"/>
        <pt x="376" y="576" on="1"/>
        <pt x="463" y="576" on="1"/>
        <pt x="348" y="0" on="1"/>
        <pt x="251" y="0" on="1"/>
        <pt x="188" y="340" on="1"/>
        <pt x="181" y="438" on="1"/>
        <pt x="97" y="0" on="1"/>
        <pt x="10" y="0" on="1"/>
        <pt x="125" y="576" on="1"/>
      </contour>
    </TTGlyph>
    <TTGlyph name="N.sups" xMin="119" yMin="320" xMax="431" yMax="640">
      <contour>
        <pt x="183" y="640" on="1"/>
        <pt x="291" y="640" on="1"/>
        <pt x="315" y="443" on="1"/>
        <pt x="354" y="640" on="1"/>
        <pt x="431" y="640" on="1"/>
        <pt x="367" y="320" on="1"/>
        <pt x="259" y="320" on="1"/>
        <pt x="235" y="517" on="1"/>
        <pt x="196" y="320" on="1"/>
        <pt x="119" y="320" on="1"/>
      </contour>
    </TTGlyph>
    <TTGlyph name="Nacute" xMin="11" yMin="0" xMax="507" yMax="832">
      <component glyphName="N" x="0" y="0" flags="0x400"/>
      <component glyphName="acutecomb.case" x="16" y="0" flags="0x400"/>
    </TTGlyph>
    <TTGlyph name="Ncaron" xMin="11" yMin="0" xMax="513" yMax="842">
      <component glyphName="N" x="0" y="0" flags="0x400"/>
      <component glyphName="uni030C.case" x="16" y="0" flags="0x400"/>
    </TTGlyph>
    <TTGlyph name="Ntilde" xMin="11" yMin="0" xMax="519" yMax="840">
      <component glyphName="N" x="0" y="0" flags="0x400"/>
      <component glyphName="tildecomb.case" x="16" y="0" flags="0x400"/>
    </TTGlyph>
    <TTGlyph name="Nu" xMin="11" yMin="0" xMax="507" yMax="640">
      <component glyphName="N" x="0" y="0" flags="0x400"/>
    </TTGlyph>
    <TTGlyph name="O" xMin="37" yMin="-10" xMax="482" yMax="650">
      <contour>
        <pt x="37" y="-10" on="0"/>
        <pt x="37" y="187" on="1"/>
        <pt x="37" y="242" on="0"/>
        <pt x="53" y="327" on="1"/>
        <pt x="86" y="491" on="0"/>
        <pt x="217" y="650" on="0"/>
        <pt x="320" y="650" on="1"/>
        <pt x="402" y="650" on="0"/>
        <pt x="482" y="556" on="0"/>
        <pt x="482" y="460" on="1"/>
        <pt x="482" y="399" on="0"/>
        <pt x="465" y="312" on="1"/>
        <pt x="433" y="150" on="0"/>
        <pt x="303" y="-10" on="0"/>
        <pt x="199" y="-10" on="1"/>
      </contour>
      <contour>
        <pt x="127" y="214" on="0"/>
        <pt x="127" y="164" on="1"/>
        <pt x="127" y="111" on="0"/>
        <pt x="163" y="64" on="0"/>
        <pt x="202" y="64" on="1"/>
        <pt x="266" y="64" on="0"/>
        <pt x="343" y="185" on="0"/>
        <pt x="372" y="327" on="1"/>
        <pt x="392" y="424" on="0"/>
        <pt x="392" y="477" on="1"/>
        <pt x="392" y="530" on="0"/>
        <pt x="355" y="576" on="0"/>
        <pt x="316" y="576" on="1"/>
        <pt x="253" y="576" on="0"/>
        <pt x="174" y="455" on="0"/>
        <pt x="146" y="312" on="1"/>
      </contour>
    </TTGlyph>
    <TTGlyph name="O.short" xMin="32" yMin="-10" xMax="442" yMax="586">
      <contour>
        <pt x="106" y="-10" on="0"/>
        <pt x="32" y="83" on="0"/>
        <pt x="32" y="172" on="1"/>
        <pt x="32" y="227" on="0"/>
        <pt x="45" y="291" on="1"/>
        <pt x="106" y="586" on="0"/>
        <pt x="294" y="586" on="1"/>
        <pt x="369" y="586" on="0"/>
        <pt x="442" y="494" on="0"/>
        <pt x="442" y="406" on="1"/>
        <pt x="442" y="354" on="0"/>
        <pt x="428" y="284" on="1"/>
        <pt x="399" y="138" on="0"/>
        <pt x="278" y="-10" on="0"/>
        <pt x="180" y="-10" on="1"/>
      </contour>
      <contour>
        <pt x="123" y="199" on="0"/>
        <pt x="123" y="153" on="1"/>
        <pt x="123" y="106" on="0"/>
        <pt x="155" y="64" on="0"/>
        <pt x="189" y="64" on="1"/>
        <pt x="241" y="64" on="0"/>
        <pt x="310" y="173" on="0"/>
        <pt x="333" y="291" on="1"/>
        <pt x="350" y="376" on="0"/>
        <pt x="350" y="424" on="1"/>
        <pt x="350" y="470" on="0"/>
        <pt x="319" y="512" on="0"/>
        <pt x="285" y="512" on="1"/>
        <pt x="233" y="512" on="0"/>
        <pt x="163" y="402" on="0"/>
        <pt x="140" y="284" on="1"/>
      </contour>
    </TTGlyph>
    <TTGlyph name="O.sups" xMin="141" yMin="316" xMax="410" yMax="644">
      <contour>
        <pt x="191" y="316" on="0"/>
        <pt x="141" y="376" on="0"/>
        <pt x="141" y="428" on="1"/>
        <pt x="141" y="456" on="0"/>
        <pt x="147" y="487" on="1"/>
        <pt x="161" y="558" on="0"/>
        <pt x="237" y="644" on="0"/>
        <pt x="305" y="644" on="1"/>
        <pt x="359" y="644" on="0"/>
        <pt x="410" y="584" on="0"/>
        <pt x="410" y="531" on="1"/>
        <pt x="410" y="505" on="0"/>
        <pt x="404" y="473" on="1"/>
        <pt x="390" y="402" on="0"/>
        <pt x="312" y="316" on="0"/>
        <pt x="245" y="316" on="1"/>
      </contour>
      <contour>
        <pt x="222" y="440" on="0"/>
        <pt x="222" y="421" on="1"/>
        <pt x="222" y="379" on="0"/>
        <pt x="252" y="379" on="1"/>
        <pt x="278" y="379" on="0"/>
        <pt x="311" y="427" on="0"/>
        <pt x="323" y="487" on="1"/>
        <pt x="329" y="519" on="0"/>
        <pt x="329" y="538" on="1"/>
        <pt x="329" y="561" on="0"/>
        <pt x="314" y="581" on="0"/>
        <pt x="298" y="581" on="1"/>
        <pt x="272" y="581" on="0"/>
        <pt x="240" y="533" on="0"/>
        <pt x="228" y="473" on="1"/>
      </contour>
    </TTGlyph>
    <TTGlyph name="OE" xMin="40" yMin="0" xMax="721" yMax="640">
      <contour>
        <pt x="137" y="0" on="0"/>
        <pt x="40" y="105" on="0"/>
        <pt x="40" y="208" on="1"/>
        <pt x="40" y="263" on="0"/>
        <pt x="53" y="327" on="1"/>
        <pt x="84" y="485" on="0"/>
        <pt x="234" y="640" on="0"/>
        <pt x="354" y="640" on="1"/>
        <pt x="721" y="640" on="1"/>
        <pt x="707" y="568" on="1"/>
        <pt x="487" y="568" on="1"/>
        <pt x="438" y="324" on="1"/>
        <pt x="604" y="324" on="1"/>
        <pt x="590" y="252" on="1"/>
        <pt x="424" y="252" on="1"/>
        <pt x="388" y="72" on="1"/>
        <pt x="618" y="72" on="1"/>
        <pt x="603" y="0" on="1"/>
        <pt x="232" y="0" on="1"/>
      </contour>
      <contour>
        <pt x="131" y="239" on="0"/>
        <pt x="131" y="190" on="1"/>
        <pt x="131" y="128" on="0"/>
        <pt x="183" y="73" on="0"/>
        <pt x="241" y="73" on="1"/>
        <pt x="296" y="73" on="1"/>
        <pt x="395" y="567" on="1"/>
        <pt x="346" y="567" on="1"/>
        <pt x="266" y="567" on="0"/>
        <pt x="174" y="450" on="0"/>
        <pt x="146" y="312" on="1"/>
      </contour>
    </TTGlyph>
    <TTGlyph name="Oacute" xMin="37" yMin="-10" xMax="490" yMax="832">
      <component glyphName="O" x="0" y="0" flags="0x400"/>
      <component glyphName="acutecomb.case" x="16" y="0" flags="0x400"/>
    </TTGlyph>
    <TTGlyph name="Obreve" xMin="37" yMin="-10" xMax="497" yMax="841">
      <component glyphName="O" x="0" y="0" flags="0x400"/>
      <component glyphName="uni0306.case" x="16" y="0" flags="0x400"/>
    </TTGlyph>
    <TTGlyph name="Ocircumflex" xMin="37" yMin="-10" xMax="482" yMax="842">
      <component glyphName="O" x="0" y="0" flags="0x400"/>
      <component glyphName="uni0302.case" x="16" y="0" flags="0x400"/>
    </TTGlyph>
    <TTGlyph name="Odieresis" xMin="37" yMin="-10" xMax="491" yMax="823">
      <component glyphName="O" x="0" y="0" flags="0x400"/>
      <component glyphName="uni0308.case" x="16" y="0" flags="0x400"/>
    </TTGlyph>
    <TTGlyph name="Ograve" xMin="37" yMin="-10" xMax="482" yMax="832">
      <component glyphName="O" x="0" y="0" flags="0x400"/>
      <component glyphName="gravecomb.case" x="16" y="0" flags="0x400"/>
    </TTGlyph>
    <TTGlyph name="Ohorn" xMin="37" yMin="-10" xMax="565" yMax="772">
      <contour>
        <pt x="37" y="-10" on="0"/>
        <pt x="37" y="187" on="1"/>
        <pt x="37" y="242" on="0"/>
        <pt x="53" y="327" on="1"/>
        <pt x="86" y="491" on="0"/>
        <pt x="217" y="650" on="0"/>
        <pt x="320" y="650" on="1"/>
        <pt x="351" y="650" on="0"/>
        <pt x="381" y="644" on="1"/>
        <pt x="401" y="640" on="0"/>
        <pt x="411" y="640" on="1"/>
        <pt x="437" y="640" on="0"/>
        <pt x="468" y="668" on="0"/>
        <pt x="474" y="699" on="1"/>
        <pt x="479" y="730" on="0"/>
        <pt x="481" y="772" on="1"/>
        <pt x="563" y="772" on="1"/>
        <pt x="565" y="746" on="0"/>
        <pt x="565" y="729" on="1"/>
        <pt x="565" y="700" on="0"/>
        <pt x="560" y="676" on="1"/>
        <pt x="551" y="633" on="0"/>
        <pt x="505" y="585" on="0"/>
        <pt x="461" y="575" on="1"/>
        <pt x="482" y="532" on="0"/>
        <pt x="482" y="460" on="1"/>
        <pt x="482" y="393" on="0"/>
        <pt x="465" y="312" on="1"/>
        <pt x="433" y="149" on="0"/>
        <pt x="305" y="-10" on="0"/>
        <pt x="199" y="-10" on="1"/>
      </contour>
      <contour>
        <pt x="127" y="214" on="0"/>
        <pt x="127" y="164" on="1"/>
        <pt x="127" y="111" on="0"/>
        <pt x="163" y="64" on="0"/>
        <pt x="202" y="64" on="1"/>
        <pt x="266" y="64" on="0"/>
        <pt x="343" y="185" on="0"/>
        <pt x="372" y="327" on="1"/>
        <pt x="392" y="424" on="0"/>
        <pt x="392" y="477" on="1"/>
        <pt x="392" y="530" on="0"/>
        <pt x="355" y="576" on="0"/>
        <pt x="316" y="576" on="1"/>
        <pt x="253" y="576" on="0"/>
        <pt x="174" y="455" on="0"/>
        <pt x="146" y="312" on="1"/>
      </contour>
    </TTGlyph>
    <TTGlyph name="Ohorn.short" xMin="32" yMin="-10" xMax="520" yMax="708">
      <contour>
        <pt x="108" y="-10" on="0"/>
        <pt x="32" y="84" on="0"/>
        <pt x="32" y="173" on="1"/>
        <pt x="32" y="225" on="0"/>
        <pt x="46" y="295" on="1"/>
        <pt x="75" y="437" on="0"/>
        <pt x="198" y="586" on="0"/>
        <pt x="291" y="586" on="1"/>
        <pt x="317" y="586" on="0"/>
        <pt x="341" y="580" on="1"/>
        <pt x="359" y="576" on="0"/>
        <pt x="368" y="576" on="1"/>
        <pt x="417" y="576" on="0"/>
        <pt x="429" y="635" on="1"/>
        <pt x="434" y="657" on="0"/>
        <pt x="436" y="708" on="1"/>
        <pt x="518" y="708" on="1"/>
        <pt x="520" y="682" on="0"/>
        <pt x="520" y="668" on="1"/>
        <pt x="520" y="636" on="0"/>
        <pt x="515" y="612" on="1"/>
        <pt x="507" y="570" on="0"/>
        <pt x="462" y="523" on="0"/>
        <pt x="420" y="512" on="1"/>
        <pt x="442" y="471" on="0"/>
        <pt x="442" y="404" on="1"/>
        <pt x="442" y="353" on="0"/>
        <pt x="428" y="280" on="1"/>
        <pt x="399" y="135" on="0"/>
        <pt x="278" y="-10" on="0"/>
        <pt x="183" y="-10" on="1"/>
      </contour>
      <contour>
        <pt x="123" y="195" on="0"/>
        <pt x="123" y="153" on="1"/>
        <pt x="123" y="107" on="0"/>
        <pt x="154" y="64" on="0"/>
        <pt x="186" y="64" on="1"/>
        <pt x="240" y="64" on="0"/>
        <pt x="310" y="173" on="0"/>
        <pt x="334" y="295" on="1"/>
        <pt x="351" y="378" on="0"/>
        <pt x="351" y="424" on="1"/>
        <pt x="351" y="470" on="0"/>
        <pt x="320" y="512" on="0"/>
        <pt x="287" y="512" on="1"/>
        <pt x="234" y="512" on="0"/>
        <pt x="164" y="402" on="0"/>
        <pt x="139" y="280" on="1"/>
      </contour>
    </TTGlyph>
    <TTGlyph name="Ohungarumlaut" xMin="37" yMin="-10" xMax="522" yMax="832">
      <component glyphName="O" x="0" y="0" flags="0x400"/>
      <component glyphName="uni030B.case" x="16" y="0" flags="0x400"/>
    </TTGlyph>
    <TTGlyph name="Omacron" xMin="37" yMin="-10" xMax="482" yMax="770">
      <component glyphName="O" x="0" y="0" flags="0x400"/>
      <component glyphName="uni0304.case" x="16" y="0" flags="0x400"/>
    </TTGlyph>
    <TTGlyph name="Omegatonos" xMin="51" yMin="0" xMax="522" yMax="704">
      <component glyphName="tonos" x="-192" y="0" flags="0x400"/>
      <component glyphName="uni03A9" x="64" y="0" flags="0x400"/>
    </TTGlyph>
    <TTGlyph name="Omicron" xMin="37" yMin="-10" xMax="482" yMax="650">
      <component glyphName="O" x="0" y="0" flags="0x400"/>
    </TTGlyph>
    <TTGlyph name="Omicrontonos" xMin="51" yMin="-10" xMax="546" yMax="704">
      <component glyphName="tonos" x="-192" y="0" flags="0x400"/>
      <component glyphName="Omicron" x="64" y="0" flags="0x400"/>
    </TTGlyph>
    <TTGlyph name="Oslash" xMin="2" yMin="-21" xMax="517" yMax="661">
      <component glyphName="O" x="0" y="0" flags="0x400"/>
      <component glyphName="_part.slash.O" x="16" y="0" flags="0x400"/>
    </TTGlyph>
    <TTGlyph name="Oslashacute" xMin="2" yMin="-21" xMax="517" yMax="832">
      <component glyphName="Oslash" x="0" y="0" flags="0x400"/>
      <component glyphName="acutecomb.case" x="16" y="0" flags="0x400"/>
    </TTGlyph>
    <TTGlyph name="Otilde" xMin="37" yMin="-10" xMax="519" yMax="840">
      <component glyphName="O" x="0" y="0" flags="0x400"/>
      <component glyphName="tildecomb.case" x="16" y="0" flags="0x400"/>
    </TTGlyph>
    <TTGlyph name="P" xMin="10" yMin="0" xMax="450" yMax="640">
      <contour>
        <pt x="138" y="640" on="1"/>
        <pt x="297" y="640" on="1"/>
        <pt x="369" y="640" on="0"/>
        <pt x="450" y="555" on="0"/>
        <pt x="450" y="476" on="1"/>
        <pt x="450" y="447" on="0"/>
        <pt x="442" y="405" on="1"/>
        <pt x="421" y="299" on="0"/>
        <pt x="299" y="188" on="0"/>
        <pt x="212" y="188" on="1"/>
        <pt x="140" y="188" on="1"/>
        <pt x="102" y="0" on="1"/>
        <pt x="10" y="0" on="1"/>
      </contour>
      <contour>
        <pt x="206" y="260" on="1"/>
        <pt x="268" y="260" on="0"/>
        <pt x="333" y="342" on="0"/>
        <pt x="349" y="419" on="1"/>
        <pt x="357" y="459" on="0"/>
        <pt x="357" y="485" on="1"/>
        <pt x="357" y="526" on="0"/>
        <pt x="318" y="568" on="0"/>
        <pt x="273" y="568" on="1"/>
        <pt x="216" y="568" on="1"/>
        <pt x="154" y="260" on="1"/>
      </contour>
    </TTGlyph>
    <TTGlyph name="P.short" xMin="10" yMin="0" xMax="442" yMax="576">
      <contour>
        <pt x="125" y="576" on="1"/>
        <pt x="284" y="576" on="1"/>
        <pt x="358" y="576" on="0"/>
        <pt x="442" y="499" on="0"/>
        <pt x="442" y="429" on="1"/>
        <pt x="442" y="400" on="0"/>
        <pt x="437" y="377" on="1"/>
        <pt x="418" y="284" on="0"/>
        <pt x="300" y="188" on="0"/>
        <pt x="212" y="188" on="1"/>
        <pt x="140" y="188" on="1"/>
        <pt x="102" y="0" on="1"/>
        <pt x="10" y="0" on="1"/>
      </contour>
      <contour>
        <pt x="206" y="260" on="1"/>
        <pt x="268" y="260" on="0"/>
        <pt x="330" y="325" on="0"/>
        <pt x="342" y="384" on="1"/>
        <pt x="348" y="411" on="0"/>
        <pt x="348" y="433" on="1"/>
        <pt x="348" y="468" on="0"/>
        <pt x="308" y="504" on="0"/>
        <pt x="260" y="504" on="1"/>
        <pt x="203" y="504" on="1"/>
        <pt x="154" y="260" on="1"/>
      </contour>
    </TTGlyph>
    <TTGlyph name="P.sups" xMin="132" yMin="320" xMax="416" yMax="640">
      <contour>
        <pt x="196" y="640" on="1"/>
        <pt x="309" y="640" on="1"/>
        <pt x="362" y="640" on="0"/>
        <pt x="415" y="594" on="0"/>
        <pt x="416" y="550" on="1"/>
        <pt x="416" y="498" on="0"/>
        <pt x="340" y="433" on="0"/>
        <pt x="277" y="433" on="1"/>
        <pt x="239" y="433" on="1"/>
        <pt x="216" y="320" on="1"/>
        <pt x="132" y="320" on="1"/>
      </contour>
      <contour>
        <pt x="276" y="494" on="1"/>
        <pt x="300" y="494" on="0"/>
        <pt x="329" y="525" on="0"/>
        <pt x="329" y="549" on="1"/>
        <pt x="329" y="579" on="0"/>
        <pt x="297" y="579" on="1"/>
        <pt x="268" y="579" on="1"/>
        <pt x="251" y="494" on="1"/>
      </contour>
    </TTGlyph>
    <TTGlyph name="Phi" xMin="45" yMin="0" xMax="610" yMax="640">
      <component glyphName="uni0424" x="0" y="0" flags="0x400"/>
    </TTGlyph>
    <TTGlyph name="Pi" xMin="10" yMin="0" xMax="508" yMax="640">
      <component glyphName="uni041F" x="0" y="0" flags="0x400"/>
    </TTGlyph>
    <TTGlyph name="Psi" xMin="61" yMin="0" xMax="518" yMax="640">
      <contour>
        <pt x="339" y="274" on="0"/>
        <pt x="393" y="367" on="0"/>
        <pt x="410" y="451" on="1"/>
        <pt x="423" y="520" on="0"/>
        <pt x="440" y="640" on="1"/>
        <pt x="518" y="640" on="1"/>
        <pt x="513" y="526" on="0"/>
        <pt x="495" y="436" on="1"/>
        <pt x="472" y="323" on="0"/>
        <pt x="372" y="196" on="0"/>
        <pt x="279" y="185" on="1"/>
        <pt x="241" y="0" on="1"/>
        <pt x="149" y="0" on="1"/>
        <pt x="187" y="186" on="1"/>
        <pt x="61" y="205" on="0"/>
        <pt x="61" y="347" on="1"/>
        <pt x="61" y="388" on="0"/>
        <pt x="72" y="443" on="1"/>
        <pt x="93" y="545" on="0"/>
        <pt x="126" y="640" on="1"/>
        <pt x="208" y="640" on="1"/>
        <pt x="171" y="502" on="0"/>
        <pt x="160" y="444" on="1"/>
        <pt x="148" y="386" on="0"/>
        <pt x="148" y="345" on="1"/>
        <pt x="148" y="308" on="0"/>
        <pt x="173" y="264" on="0"/>
        <pt x="200" y="256" on="1"/>
        <pt x="277" y="640" on="1"/>
        <pt x="369" y="640" on="1"/>
        <pt x="293" y="259" on="1"/>
      </contour>
    </TTGlyph>
    <TTGlyph name="Q" xMin="37" yMin="-148" xMax="482" yMax="650">
      <contour>
        <pt x="177" y="-138" on="0"/>
        <pt x="170" y="-8" on="1"/>
        <pt x="37" y="8" on="0"/>
        <pt x="37" y="186" on="1"/>
        <pt x="37" y="250" on="0"/>
        <pt x="53" y="327" on="1"/>
        <pt x="86" y="491" on="0"/>
        <pt x="217" y="650" on="0"/>
        <pt x="320" y="650" on="1"/>
        <pt x="402" y="650" on="0"/>
        <pt x="482" y="556" on="0"/>
        <pt x="482" y="460" on="1"/>
        <pt x="482" y="399" on="0"/>
        <pt x="465" y="312" on="1"/>
        <pt x="437" y="171" on="0"/>
        <pt x="333" y="15" on="0"/>
        <pt x="252" y="-4" on="1"/>
        <pt x="253" y="-40" on="0"/>
        <pt x="308" y="-66" on="0"/>
        <pt x="373" y="-69" on="1"/>
        <pt x="353" y="-148" on="1"/>
      </contour>
      <contour>
        <pt x="127" y="214" on="0"/>
        <pt x="127" y="164" on="1"/>
        <pt x="127" y="111" on="0"/>
        <pt x="163" y="64" on="0"/>
        <pt x="202" y="64" on="1"/>
        <pt x="266" y="64" on="0"/>
        <pt x="343" y="185" on="0"/>
        <pt x="372" y="327" on="1"/>
        <pt x="392" y="424" on="0"/>
        <pt x="392" y="477" on="1"/>
        <pt x="392" y="530" on="0"/>
        <pt x="355" y="576" on="0"/>
        <pt x="316" y="576" on="1"/>
        <pt x="253" y="576" on="0"/>
        <pt x="174" y="455" on="0"/>
        <pt x="146" y="312" on="1"/>
      </contour>
    </TTGlyph>
    <TTGlyph name="Q.sups" xMin="141" yMin="256" xMax="410" yMax="644">
      <contour>
        <pt x="141" y="345" on="0"/>
        <pt x="141" y="428" on="1"/>
        <pt x="141" y="456" on="0"/>
        <pt x="147" y="487" on="1"/>
        <pt x="161" y="558" on="0"/>
        <pt x="237" y="644" on="0"/>
        <pt x="305" y="644" on="1"/>
        <pt x="359" y="644" on="0"/>
        <pt x="410" y="584" on="0"/>
        <pt x="410" y="531" on="1"/>
        <pt x="410" y="505" on="0"/>
        <pt x="404" y="473" on="1"/>
        <pt x="392" y="413" on="0"/>
        <pt x="332" y="332" on="0"/>
        <pt x="283" y="320" on="1"/>
        <pt x="270" y="256" on="1"/>
        <pt x="186" y="256" on="1"/>
        <pt x="199" y="324" on="1"/>
      </contour>
      <contour>
        <pt x="222" y="440" on="0"/>
        <pt x="222" y="421" on="1"/>
        <pt x="222" y="379" on="0"/>
        <pt x="252" y="379" on="1"/>
        <pt x="278" y="379" on="0"/>
        <pt x="311" y="427" on="0"/>
        <pt x="323" y="487" on="1"/>
        <pt x="329" y="519" on="0"/>
        <pt x="329" y="538" on="1"/>
        <pt x="329" y="561" on="0"/>
        <pt x="314" y="581" on="0"/>
        <pt x="298" y="581" on="1"/>
        <pt x="272" y="581" on="0"/>
        <pt x="240" y="533" on="0"/>
        <pt x="228" y="473" on="1"/>
      </contour>
    </TTGlyph>
    <TTGlyph name="R" xMin="10" yMin="0" xMax="453" yMax="640">
      <contour>
        <pt x="370" y="640" on="0"/>
        <pt x="453" y="561" on="0"/>
        <pt x="453" y="488" on="1"/>
        <pt x="453" y="461" on="0"/>
        <pt x="447" y="429" on="1"/>
        <pt x="432" y="354" on="0"/>
        <pt x="345" y="265" on="0"/>
        <pt x="279" y="253" on="1"/>
        <pt x="325" y="228" on="0"/>
        <pt x="373" y="124" on="0"/>
        <pt x="373" y="53" on="1"/>
        <pt x="373" y="27" on="0"/>
        <pt x="370" y="0" on="1"/>
        <pt x="278" y="0" on="1"/>
        <pt x="281" y="30" on="0"/>
        <pt x="281" y="55" on="1"/>
        <pt x="281" y="124" on="0"/>
        <pt x="237" y="209" on="0"/>
        <pt x="191" y="237" on="1"/>
        <pt x="150" y="237" on="1"/>
        <pt x="102" y="0" on="1"/>
        <pt x="10" y="0" on="1"/>
        <pt x="138" y="640" on="1"/>
        <pt x="297" y="640" on="1"/>
      </contour>
      <contour>
        <pt x="216" y="309" on="1"/>
        <pt x="278" y="309" on="0"/>
        <pt x="342" y="382" on="0"/>
        <pt x="355" y="449" on="1"/>
        <pt x="361" y="476" on="0"/>
        <pt x="361" y="498" on="1"/>
        <pt x="361" y="535" on="0"/>
        <pt x="321" y="573" on="0"/>
        <pt x="274" y="573" on="1"/>
        <pt x="217" y="573" on="1"/>
        <pt x="164" y="309" on="1"/>
      </contour>
    </TTGlyph>
    <TTGlyph name="R.short" xMin="10" yMin="0" xMax="443" yMax="576">
      <contour>
        <pt x="358" y="576" on="0"/>
        <pt x="443" y="501" on="0"/>
        <pt x="443" y="434" on="1"/>
        <pt x="443" y="406" on="0"/>
        <pt x="438" y="385" on="1"/>
        <pt x="424" y="314" on="0"/>
        <pt x="341" y="233" on="0"/>
        <pt x="277" y="221" on="1"/>
        <pt x="323" y="197" on="0"/>
        <pt x="372" y="103" on="0"/>
        <pt x="372" y="38" on="1"/>
        <pt x="372" y="26" on="0"/>
        <pt x="370" y="0" on="1"/>
        <pt x="278" y="0" on="1"/>
        <pt x="280" y="28" on="0"/>
        <pt x="280" y="39" on="1"/>
        <pt x="280" y="103" on="0"/>
        <pt x="234" y="180" on="0"/>
        <pt x="185" y="205" on="1"/>
        <pt x="143" y="205" on="1"/>
        <pt x="102" y="0" on="1"/>
        <pt x="10" y="0" on="1"/>
        <pt x="125" y="576" on="1"/>
        <pt x="284" y="576" on="1"/>
      </contour>
      <contour>
        <pt x="209" y="277" on="1"/>
        <pt x="271" y="277" on="0"/>
        <pt x="333" y="339" on="0"/>
        <pt x="344" y="394" on="1"/>
        <pt x="349" y="419" on="0"/>
        <pt x="349" y="435" on="1"/>
        <pt x="349" y="470" on="0"/>
        <pt x="308" y="504" on="0"/>
        <pt x="260" y="504" on="1"/>
        <pt x="203" y="504" on="1"/>
        <pt x="158" y="277" on="1"/>
      </contour>
    </TTGlyph>
    <TTGlyph name="R.sups" xMin="132" yMin="320" xMax="405" yMax="640">
      <contour>
        <pt x="348" y="640" on="0"/>
        <pt x="405" y="592" on="0"/>
        <pt x="405" y="550" on="1"/>
        <pt x="405" y="511" on="0"/>
        <pt x="366" y="459" on="0"/>
        <pt x="333" y="446" on="1"/>
        <pt x="365" y="414" on="0"/>
        <pt x="365" y="352" on="1"/>
        <pt x="365" y="342" on="0"/>
        <pt x="363" y="320" on="1"/>
        <pt x="278" y="320" on="1"/>
        <pt x="280" y="346" on="0"/>
        <pt x="280" y="356" on="1"/>
        <pt x="280" y="404" on="0"/>
        <pt x="257" y="425" on="1"/>
        <pt x="237" y="425" on="1"/>
        <pt x="216" y="320" on="1"/>
        <pt x="132" y="320" on="1"/>
        <pt x="196" y="640" on="1"/>
        <pt x="301" y="640" on="1"/>
      </contour>
      <contour>
        <pt x="267" y="488" on="1"/>
        <pt x="308" y="488" on="0"/>
        <pt x="318" y="537" on="1"/>
        <pt x="320" y="549" on="0"/>
        <pt x="320" y="553" on="1"/>
        <pt x="320" y="566" on="0"/>
        <pt x="306" y="577" on="0"/>
        <pt x="291" y="577" on="1"/>
        <pt x="268" y="577" on="1"/>
        <pt x="250" y="488" on="1"/>
      </contour>
    </TTGlyph>
    <TTGlyph name="Racute" xMin="10" yMin="0" xMax="458" yMax="832">
      <component glyphName="R" x="0" y="0" flags="0x400"/>
      <component glyphName="acutecomb.case" x="-16" y="0" flags="0x400"/>
    </TTGlyph>
    <TTGlyph name="Rcaron" xMin="10" yMin="0" xMax="481" yMax="842">
      <component glyphName="R" x="0" y="0" flags="0x400"/>
      <component glyphName="uni030C.case" x="-16" y="0" flags="0x400"/>
    </TTGlyph>
    <TTGlyph name="Rho" xMin="10" yMin="0" xMax="450" yMax="640">
      <component glyphName="P" x="0" y="0" flags="0x400"/>
    </TTGlyph>
    <TTGlyph name="S" xMin="9" yMin="-8" xMax="456" yMax="648">
      <contour>
        <pt x="122" y="-8" on="0"/>
        <pt x="42" y="8" on="0"/>
        <pt x="9" y="24" on="1"/>
        <pt x="32" y="89" on="1"/>
        <pt x="95" y="65" on="0"/>
        <pt x="161" y="65" on="1"/>
        <pt x="288" y="65" on="0"/>
        <pt x="288" y="155" on="1"/>
        <pt x="288" y="188" on="0"/>
        <pt x="250" y="232" on="0"/>
        <pt x="208" y="263" on="1"/>
        <pt x="172" y="289" on="0"/>
        <pt x="129" y="330" on="0"/>
        <pt x="98" y="394" on="0"/>
        <pt x="98" y="439" on="1"/>
        <pt x="98" y="535" on="0"/>
        <pt x="219" y="648" on="0"/>
        <pt x="334" y="648" on="1"/>
        <pt x="401" y="648" on="0"/>
        <pt x="456" y="628" on="1"/>
        <pt x="439" y="561" on="1"/>
        <pt x="392" y="575" on="0"/>
        <pt x="334" y="575" on="1"/>
        <pt x="193" y="575" on="0"/>
        <pt x="193" y="455" on="1"/>
        <pt x="193" y="426" on="0"/>
        <pt x="216" y="382" on="0"/>
        <pt x="250" y="351" on="0"/>
        <pt x="279" y="330" on="1"/>
        <pt x="313" y="305" on="0"/>
        <pt x="354" y="267" on="0"/>
        <pt x="383" y="207" on="0"/>
        <pt x="383" y="164" on="1"/>
        <pt x="383" y="85" on="0"/>
        <pt x="269" y="-8" on="0"/>
        <pt x="161" y="-8" on="1"/>
      </contour>
    </TTGlyph>
    <TTGlyph name="S.short" xMin="9" yMin="-8" xMax="446" yMax="584">
      <contour>
        <pt x="122" y="-8" on="0"/>
        <pt x="42" y="8" on="0"/>
        <pt x="9" y="24" on="1"/>
        <pt x="32" y="89" on="1"/>
        <pt x="95" y="65" on="0"/>
        <pt x="161" y="65" on="1"/>
        <pt x="226" y="65" on="0"/>
        <pt x="288" y="106" on="0"/>
        <pt x="288" y="143" on="1"/>
        <pt x="288" y="170" on="0"/>
        <pt x="249" y="206" on="0"/>
        <pt x="208" y="230" on="1"/>
        <pt x="169" y="253" on="0"/>
        <pt x="123" y="289" on="0"/>
        <pt x="89" y="349" on="0"/>
        <pt x="89" y="391" on="1"/>
        <pt x="89" y="479" on="0"/>
        <pt x="210" y="584" on="0"/>
        <pt x="324" y="584" on="1"/>
        <pt x="391" y="584" on="0"/>
        <pt x="446" y="564" on="1"/>
        <pt x="429" y="497" on="1"/>
        <pt x="382" y="511" on="0"/>
        <pt x="324" y="511" on="1"/>
        <pt x="254" y="511" on="0"/>
        <pt x="184" y="456" on="0"/>
        <pt x="184" y="404" on="1"/>
        <pt x="184" y="370" on="0"/>
        <pt x="227" y="328" on="0"/>
        <pt x="271" y="304" on="1"/>
        <pt x="308" y="282" on="0"/>
        <pt x="352" y="249" on="0"/>
        <pt x="383" y="194" on="0"/>
        <pt x="383" y="155" on="1"/>
        <pt x="383" y="81" on="0"/>
        <pt x="268" y="-8" on="0"/>
        <pt x="161" y="-8" on="1"/>
      </contour>
    </TTGlyph>
    <TTGlyph name="S.sups" xMin="141" yMin="316" xMax="402" yMax="644">
      <contour>
        <pt x="191" y="316" on="0"/>
        <pt x="141" y="329" on="1"/>
        <pt x="154" y="385" on="1"/>
        <pt x="194" y="377" on="0"/>
        <pt x="226" y="377" on="1"/>
        <pt x="258" y="377" on="0"/>
        <pt x="290" y="399" on="0"/>
        <pt x="290" y="417" on="1"/>
        <pt x="290" y="430" on="0"/>
        <pt x="270" y="445" on="0"/>
        <pt x="249" y="454" on="1"/>
        <pt x="217" y="468" on="0"/>
        <pt x="181" y="501" on="0"/>
        <pt x="181" y="537" on="1"/>
        <pt x="181" y="582" on="0"/>
        <pt x="250" y="644" on="0"/>
        <pt x="313" y="644" on="1"/>
        <pt x="359" y="644" on="0"/>
        <pt x="402" y="631" on="1"/>
        <pt x="387" y="575" on="1"/>
        <pt x="350" y="583" on="0"/>
        <pt x="318" y="583" on="1"/>
        <pt x="293" y="583" on="0"/>
        <pt x="261" y="564" on="0"/>
        <pt x="261" y="546" on="1"/>
        <pt x="261" y="534" on="0"/>
        <pt x="280" y="520" on="0"/>
        <pt x="299" y="512" on="1"/>
        <pt x="332" y="497" on="0"/>
        <pt x="370" y="461" on="0"/>
        <pt x="370" y="424" on="1"/>
        <pt x="370" y="377" on="0"/>
        <pt x="297" y="316" on="0"/>
        <pt x="234" y="316" on="1"/>
      </contour>
    </TTGlyph>
    <TTGlyph name="Sacute" xMin="9" yMin="-8" xMax="474" yMax="832">
      <component glyphName="S" x="0" y="0" flags="0x400"/>
      <component glyphName="acutecomb.case" x="0" y="0" flags="0x400"/>
    </TTGlyph>
    <TTGlyph name="Scaron" xMin="9" yMin="-8" xMax="497" yMax="842">
      <component glyphName="S" x="0" y="0" flags="0x400"/>
      <component glyphName="uni030C.case" x="0" y="0" flags="0x400"/>
    </TTGlyph>
    <TTGlyph name="Scedilla" xMin="8" yMin="-192" xMax="456" yMax="648">
      <component glyphName="S" x="0" y="0" flags="0x400"/>
      <component glyphName="uni0327" x="-40" y="0" flags="0x400"/>
    </TTGlyph>
    <TTGlyph name="Scircumflex" xMin="9" yMin="-8" xMax="466" yMax="842">
      <component glyphName="S" x="0" y="0" flags="0x400"/>
      <component glyphName="uni0302.case" x="0" y="0" flags="0x400"/>
    </TTGlyph>
    <TTGlyph name="Sigma" xMin="5" yMin="0" xMax="476" yMax="640">
      <contour>
        <pt x="16" y="56" on="1"/>
        <pt x="196" y="320" on="1"/>
        <pt x="135" y="584" on="1"/>
        <pt x="145" y="640" on="1"/>
        <pt x="476" y="640" on="1"/>
        <pt x="462" y="568" on="1"/>
        <pt x="234" y="568" on="1"/>
        <pt x="294" y="320" on="1"/>
        <pt x="126" y="72" on="1"/>
        <pt x="363" y="72" on="1"/>
        <pt x="348" y="0" on="1"/>
        <pt x="5" y="0" on="1"/>
      </contour>
    </TTGlyph>
    <TTGlyph name="T" xMin="103" yMin="0" xMax="497" yMax="640">
      <contour>
        <pt x="339" y="568" on="1"/>
        <pt x="225" y="0" on="1"/>
        <pt x="133" y="0" on="1"/>
        <pt x="247" y="568" on="1"/>
        <pt x="103" y="568" on="1"/>
        <pt x="117" y="640" on="1"/>
        <pt x="497" y="640" on="1"/>
        <pt x="483" y="568" on="1"/>
      </contour>
    </TTGlyph>
    <TTGlyph name="T.short" xMin="90" yMin="0" xMax="484" yMax="576">
      <contour>
        <pt x="326" y="504" on="1"/>
        <pt x="225" y="0" on="1"/>
        <pt x="133" y="0" on="1"/>
        <pt x="234" y="504" on="1"/>
        <pt x="90" y="504" on="1"/>
        <pt x="104" y="576" on="1"/>
        <pt x="484" y="576" on="1"/>
        <pt x="470" y="504" on="1"/>
      </contour>
    </TTGlyph>
    <TTGlyph name="T.sups" xMin="181" yMin="320" xMax="421" yMax="640">
      <contour>
        <pt x="253" y="577" on="1"/>
        <pt x="181" y="577" on="1"/>
        <pt x="193" y="640" on="1"/>
        <pt x="421" y="640" on="1"/>
        <pt x="409" y="577" on="1"/>
        <pt x="337" y="577" on="1"/>
        <pt x="285" y="320" on="1"/>
        <pt x="201" y="320" on="1"/>
      </contour>
    </TTGlyph>
    <TTGlyph name="Tau" xMin="103" yMin="0" xMax="497" yMax="640">
      <component glyphName="T" x="0" y="0" flags="0x400"/>
    </TTGlyph>
    <TTGlyph name="Tbar" xMin="97" yMin="0" xMax="497" yMax="640">
      <component glyphName="T" x="0" y="0" flags="0x400"/>
      <component glyphName="uni0335" x="13" y="64" flags="0x404"/>
    </TTGlyph>
    <TTGlyph name="Tcaron" xMin="103" yMin="0" xMax="497" yMax="842">
      <component glyphName="T" x="0" y="0" flags="0x400"/>
      <component glyphName="uni030C.case" x="0" y="0" flags="0x400"/>
    </TTGlyph>
    <TTGlyph name="Theta" xMin="37" yMin="-10" xMax="482" yMax="650">
      <contour>
        <pt x="37" y="-10" on="0"/>
        <pt x="37" y="187" on="1"/>
        <pt x="37" y="242" on="0"/>
        <pt x="53" y="327" on="1"/>
        <pt x="86" y="491" on="0"/>
        <pt x="217" y="650" on="0"/>
        <pt x="320" y="650" on="1"/>
        <pt x="402" y="650" on="0"/>
        <pt x="482" y="556" on="0"/>
        <pt x="482" y="460" on="1"/>
        <pt x="482" y="399" on="0"/>
        <pt x="465" y="312" on="1"/>
        <pt x="432" y="150" on="0"/>
        <pt x="303" y="-10" on="0"/>
        <pt x="199" y="-10" on="1"/>
      </contour>
      <contour>
        <pt x="127" y="200" on="0"/>
        <pt x="127" y="162" on="1"/>
        <pt x="127" y="110" on="0"/>
        <pt x="163" y="64" on="0"/>
        <pt x="202" y="64" on="1"/>
        <pt x="257" y="64" on="0"/>
        <pt x="329" y="152" on="0"/>
        <pt x="355" y="252" on="1"/>
        <pt x="136" y="252" on="1"/>
      </contour>
      <contour>
        <pt x="372" y="324" on="1"/>
        <pt x="392" y="421" on="0"/>
        <pt x="392" y="477" on="1"/>
        <pt x="392" y="528" on="0"/>
        <pt x="356" y="576" on="0"/>
        <pt x="316" y="576" on="1"/>
        <pt x="254" y="576" on="0"/>
        <pt x="177" y="460" on="0"/>
        <pt x="149" y="324" on="1"/>
      </contour>
    </TTGlyph>
    <TTGlyph name="Thorn" xMin="10" yMin="0" xMax="430" yMax="640">
      <contour>
        <pt x="346" y="516" on="0"/>
        <pt x="430" y="437" on="0"/>
        <pt x="430" y="366" on="1"/>
        <pt x="430" y="341" on="0"/>
        <pt x="424" y="311" on="1"/>
        <pt x="406" y="219" on="0"/>
        <pt x="287" y="124" on="0"/>
        <pt x="200" y="124" on="1"/>
        <pt x="127" y="124" on="1"/>
        <pt x="102" y="0" on="1"/>
        <pt x="10" y="0" on="1"/>
        <pt x="138" y="640" on="1"/>
        <pt x="230" y="640" on="1"/>
        <pt x="206" y="516" on="1"/>
        <pt x="273" y="516" on="1"/>
      </contour>
      <contour>
        <pt x="193" y="196" on="1"/>
        <pt x="256" y="196" on="0"/>
        <pt x="320" y="262" on="0"/>
        <pt x="333" y="326" on="1"/>
        <pt x="338" y="354" on="0"/>
        <pt x="338" y="371" on="1"/>
        <pt x="338" y="408" on="0"/>
        <pt x="297" y="444" on="0"/>
        <pt x="248" y="444" on="1"/>
        <pt x="191" y="444" on="1"/>
        <pt x="142" y="196" on="1"/>
      </contour>
    </TTGlyph>
    <TTGlyph name="U" xMin="57" yMin="-8" xMax="492" yMax="640">
      <contour>
        <pt x="246" y="640" on="1"/>
        <pt x="153" y="172" on="1"/>
        <pt x="146" y="135" on="0"/>
        <pt x="146" y="117" on="1"/>
        <pt x="146" y="90" on="0"/>
        <pt x="172" y="64" on="0"/>
        <pt x="202" y="64" on="1"/>
        <pt x="247" y="64" on="0"/>
        <pt x="297" y="124" on="0"/>
        <pt x="308" y="179" on="1"/>
        <pt x="400" y="640" on="1"/>
        <pt x="492" y="640" on="1"/>
        <pt x="400" y="177" on="1"/>
        <pt x="362" y="-8" on="0"/>
        <pt x="200" y="-8" on="1"/>
        <pt x="133" y="-8" on="0"/>
        <pt x="57" y="58" on="0"/>
        <pt x="57" y="125" on="1"/>
        <pt x="57" y="152" on="0"/>
        <pt x="63" y="183" on="1"/>
        <pt x="154" y="640" on="1"/>
      </contour>
    </TTGlyph>
    <TTGlyph name="U.short" xMin="41" yMin="-8" xMax="463" yMax="576">
      <contour>
        <pt x="217" y="576" on="1"/>
        <pt x="137" y="172" on="1"/>
        <pt x="130" y="135" on="0"/>
        <pt x="130" y="117" on="1"/>
        <pt x="130" y="90" on="0"/>
        <pt x="156" y="64" on="0"/>
        <pt x="186" y="64" on="1"/>
        <pt x="231" y="64" on="0"/>
        <pt x="281" y="124" on="0"/>
        <pt x="292" y="179" on="1"/>
        <pt x="371" y="576" on="1"/>
        <pt x="463" y="576" on="1"/>
        <pt x="384" y="177" on="1"/>
        <pt x="346" y="-8" on="0"/>
        <pt x="184" y="-8" on="1"/>
        <pt x="117" y="-8" on="0"/>
        <pt x="41" y="58" on="0"/>
        <pt x="41" y="125" on="1"/>
        <pt x="41" y="152" on="0"/>
        <pt x="47" y="183" on="1"/>
        <pt x="125" y="576" on="1"/>
      </contour>
    </TTGlyph>
    <TTGlyph name="U.sups" xMin="144" yMin="316" xMax="425" yMax="640">
      <contour>
        <pt x="201" y="316" on="0"/>
        <pt x="144" y="360" on="0"/>
        <pt x="144" y="402" on="1"/>
        <pt x="144" y="415" on="0"/>
        <pt x="147" y="428" on="1"/>
        <pt x="189" y="640" on="1"/>
        <pt x="273" y="640" on="1"/>
        <pt x="230" y="420" on="1"/>
        <pt x="228" y="408" on="0"/>
        <pt x="228" y="404" on="1"/>
        <pt x="228" y="379" on="0"/>
        <pt x="252" y="379" on="1"/>
        <pt x="270" y="379" on="0"/>
        <pt x="294" y="404" on="0"/>
        <pt x="299" y="427" on="1"/>
        <pt x="341" y="640" on="1"/>
        <pt x="425" y="640" on="1"/>
        <pt x="382" y="422" on="1"/>
        <pt x="371" y="367" on="0"/>
        <pt x="299" y="316" on="0"/>
        <pt x="248" y="316" on="1"/>
      </contour>
    </TTGlyph>
    <TTGlyph name="Uacute" xMin="57" yMin="-8" xMax="492" yMax="832">
      <component glyphName="U" x="0" y="0" flags="0x400"/>
      <component glyphName="acutecomb.case" x="16" y="0" flags="0x400"/>
    </TTGlyph>
    <TTGlyph name="Ubreve" xMin="57" yMin="-8" xMax="497" yMax="841">
      <component glyphName="U" x="0" y="0" flags="0x400"/>
      <component glyphName="uni0306.case" x="16" y="0" flags="0x400"/>
    </TTGlyph>
    <TTGlyph name="Ucircumflex" xMin="57" yMin="-8" xMax="492" yMax="842">
      <component glyphName="U" x="0" y="0" flags="0x400"/>
      <component glyphName="uni0302.case" x="16" y="0" flags="0x400"/>
    </TTGlyph>
    <TTGlyph name="Udieresis" xMin="57" yMin="-8" xMax="492" yMax="823">
      <component glyphName="U" x="0" y="0" flags="0x400"/>
      <component glyphName="uni0308.case" x="16" y="0" flags="0x400"/>
    </TTGlyph>
    <TTGlyph name="Ugrave" xMin="57" yMin="-8" xMax="492" yMax="832">
      <component glyphName="U" x="0" y="0" flags="0x400"/>
      <component glyphName="gravecomb.case" x="16" y="0" flags="0x400"/>
    </TTGlyph>
    <TTGlyph name="Uhorn" xMin="57" yMin="-8" xMax="585" yMax="772">
      <component glyphName="U" x="0" y="0" flags="0x400"/>
      <component glyphName="uni031B.case" x="16" y="0" flags="0x400"/>
    </TTGlyph>
    <TTGlyph name="Uhorn.short" xMin="41" yMin="-8" xMax="556" yMax="708">
      <component glyphName="U.short" x="0" y="0" flags="0x400"/>
      <component glyphName="uni031B.case" x="-13" y="-64" flags="0x404"/>
    </TTGlyph>
    <TTGlyph name="Uhungarumlaut" xMin="57" yMin="-8" xMax="522" yMax="832">
      <component glyphName="U" x="0" y="0" flags="0x400"/>
      <component glyphName="uni030B.case" x="16" y="0" flags="0x400"/>
    </TTGlyph>
    <TTGlyph name="Umacron" xMin="57" yMin="-8" xMax="492" yMax="770">
      <component glyphName="U" x="0" y="0" flags="0x400"/>
      <component glyphName="uni0304.case" x="16" y="0" flags="0x400"/>
    </TTGlyph>
    <TTGlyph name="Uogonek" xMin="57" yMin="-197" xMax="492" yMax="640">
      <component glyphName="U" x="0" y="0" flags="0x400"/>
      <component glyphName="uni0328" x="-90" y="0" flags="0x400"/>
    </TTGlyph>
    <TTGlyph name="Upsilon" xMin="70" yMin="0" xMax="487" yMax="640">
      <contour>
        <pt x="153" y="262" on="0"/>
        <pt x="153" y="334" on="1"/>
        <pt x="153" y="504" on="0"/>
        <pt x="70" y="640" on="1"/>
        <pt x="177" y="640" on="1"/>
        <pt x="225" y="530" on="0"/>
        <pt x="225" y="392" on="1"/>
        <pt x="276" y="530" on="0"/>
        <pt x="366" y="640" on="1"/>
        <pt x="487" y="640" on="1"/>
        <pt x="278" y="433" on="0"/>
        <pt x="226" y="167" on="1"/>
        <pt x="193" y="0" on="1"/>
        <pt x="101" y="0" on="1"/>
        <pt x="136" y="174" on="1"/>
      </contour>
    </TTGlyph>
    <TTGlyph name="Upsilondieresis" xMin="70" yMin="0" xMax="487" yMax="823">
      <component glyphName="Upsilon" x="0" y="0" flags="0x400"/>
      <component glyphName="uni0308.case" x="-32" y="0" flags="0x400"/>
    </TTGlyph>
    <TTGlyph name="Upsilontonos" xMin="-13" yMin="0" xMax="487" yMax="704">
      <component glyphName="Upsilon" x="0" y="0" flags="0x400"/>
      <component glyphName="tonos" x="-256" y="0" flags="0x400"/>
    </TTGlyph>
    <TTGlyph name="Uring" xMin="57" yMin="-8" xMax="492" yMax="894">
      <component glyphName="U" x="0" y="0" flags="0x400"/>
      <component glyphName="uni030A.case" x="29" y="64" flags="0x404"/>
    </TTGlyph>
    <TTGlyph name="Utilde" xMin="57" yMin="-8" xMax="519" yMax="840">
      <component glyphName="U" x="0" y="0" flags="0x400"/>
      <component glyphName="tildecomb.case" x="16" y="0" flags="0x400"/>
    </TTGlyph>
    <TTGlyph name="V" xMin="97" yMin="-1" xMax="502" yMax="640">
      <contour>
        <pt x="97" y="142" on="0"/>
        <pt x="97" y="360" on="1"/>
        <pt x="97" y="492" on="0"/>
        <pt x="114" y="640" on="1"/>
        <pt x="208" y="640" on="1"/>
        <pt x="189" y="465" on="0"/>
        <pt x="189" y="310" on="1"/>
        <pt x="189" y="199" on="0"/>
        <pt x="200" y="106" on="1"/>
        <pt x="313" y="312" on="0"/>
        <pt x="406" y="640" on="1"/>
        <pt x="502" y="640" on="1"/>
        <pt x="449" y="452" on="0"/>
        <pt x="307" y="120" on="0"/>
        <pt x="224" y="-1" on="1"/>
        <pt x="140" y="-1" on="1"/>
      </contour>
    </TTGlyph>
    <TTGlyph name="V.sups" xMin="176" yMin="320" xMax="438" yMax="640">
      <contour>
        <pt x="176" y="456" on="0"/>
        <pt x="176" y="585" on="1"/>
        <pt x="176" y="604" on="0"/>
        <pt x="178" y="640" on="1"/>
        <pt x="265" y="640" on="1"/>
        <pt x="261" y="572" on="0"/>
        <pt x="261" y="536" on="1"/>
        <pt x="261" y="502" on="0"/>
        <pt x="265" y="434" on="1"/>
        <pt x="317" y="543" on="0"/>
        <pt x="348" y="640" on="1"/>
        <pt x="438" y="640" on="1"/>
        <pt x="382" y="471" on="0"/>
        <pt x="283" y="320" on="1"/>
        <pt x="210" y="320" on="1"/>
      </contour>
    </TTGlyph>
    <TTGlyph name="W" xMin="69" yMin="0" xMax="632" yMax="640">
      <contour>
        <pt x="69" y="107" on="0"/>
        <pt x="69" y="211" on="1"/>
        <pt x="69" y="400" on="0"/>
        <pt x="111" y="640" on="1"/>
        <pt x="203" y="640" on="1"/>
        <pt x="158" y="390" on="0"/>
        <pt x="158" y="142" on="1"/>
        <pt x="158" y="93" on="1"/>
        <pt x="263" y="329" on="0"/>
        <pt x="315" y="576" on="1"/>
        <pt x="402" y="576" on="1"/>
        <pt x="367" y="389" on="0"/>
        <pt x="367" y="193" on="1"/>
        <pt x="367" y="161" on="0"/>
        <pt x="369" y="97" on="1"/>
        <pt x="479" y="363" on="0"/>
        <pt x="539" y="640" on="1"/>
        <pt x="632" y="640" on="1"/>
        <pt x="592" y="460" on="0"/>
        <pt x="484" y="153" on="0"/>
        <pt x="405" y="0" on="1"/>
        <pt x="306" y="0" on="1"/>
        <pt x="297" y="86" on="0"/>
        <pt x="297" y="168" on="1"/>
        <pt x="297" y="225" on="0"/>
        <pt x="302" y="297" on="1"/>
        <pt x="255" y="148" on="0"/>
        <pt x="180" y="0" on="1"/>
        <pt x="81" y="0" on="1"/>
      </contour>
    </TTGlyph>
    <TTGlyph name="W.short" xMin="55" yMin="0" xMax="487" yMax="576">
      <contour>
        <pt x="55" y="80" on="0"/>
        <pt x="55" y="116" on="1"/>
        <pt x="55" y="218" on="0"/>
        <pt x="78" y="435" on="0"/>
        <pt x="102" y="576" on="1"/>
        <pt x="195" y="576" on="1"/>
        <pt x="166" y="422" on="0"/>
        <pt x="136" y="212" on="0"/>
        <pt x="130" y="109" on="1"/>
        <pt x="198" y="282" on="0"/>
        <pt x="232" y="448" on="1"/>
        <pt x="306" y="448" on="1"/>
        <pt x="271" y="280" on="0"/>
        <pt x="270" y="106" on="1"/>
        <pt x="307" y="209" on="0"/>
        <pt x="361" y="420" on="0"/>
        <pt x="394" y="576" on="1"/>
        <pt x="487" y="576" on="1"/>
        <pt x="446" y="390" on="0"/>
        <pt x="366" y="132" on="0"/>
        <pt x="303" y="0" on="1"/>
        <pt x="223" y="0" on="1"/>
        <pt x="216" y="46" on="0"/>
        <pt x="216" y="100" on="1"/>
        <pt x="216" y="151" on="0"/>
        <pt x="222" y="206" on="1"/>
        <pt x="189" y="88" on="0"/>
        <pt x="141" y="0" on="1"/>
        <pt x="59" y="0" on="1"/>
      </contour>
    </TTGlyph>
    <TTGlyph name="W.sups" xMin="148" yMin="320" xMax="443" yMax="640">
      <contour>
        <pt x="148" y="364" on="0"/>
        <pt x="148" y="405" on="1"/>
        <pt x="148" y="509" on="0"/>
        <pt x="172" y="640" on="1"/>
        <pt x="250" y="640" on="1"/>
        <pt x="222" y="502" on="0"/>
        <pt x="216" y="417" on="1"/>
        <pt x="243" y="488" on="0"/>
        <pt x="259" y="561" on="1"/>
        <pt x="324" y="561" on="1"/>
        <pt x="310" y="490" on="0"/>
        <pt x="307" y="415" on="1"/>
        <pt x="336" y="500" on="0"/>
        <pt x="365" y="640" on="1"/>
        <pt x="443" y="640" on="1"/>
        <pt x="424" y="546" on="0"/>
        <pt x="376" y="402" on="0"/>
        <pt x="339" y="320" on="1"/>
        <pt x="265" y="320" on="1"/>
        <pt x="263" y="358" on="0"/>
        <pt x="263" y="378" on="1"/>
        <pt x="263" y="404" on="0"/>
        <pt x="264" y="417" on="1"/>
        <pt x="246" y="367" on="0"/>
        <pt x="225" y="320" on="1"/>
        <pt x="151" y="320" on="1"/>
      </contour>
    </TTGlyph>
    <TTGlyph name="Wacute" xMin="69" yMin="0" xMax="632" yMax="832">
      <component glyphName="W" x="0" y="0" flags="0x400"/>
      <component glyphName="acutecomb.case" x="64" y="0" flags="0x400"/>
    </TTGlyph>
    <TTGlyph name="Wcircumflex" xMin="69" yMin="0" xMax="632" yMax="842">
      <component glyphName="W" x="0" y="0" flags="0x400"/>
      <component glyphName="uni0302.case" x="64" y="0" flags="0x400"/>
    </TTGlyph>
    <TTGlyph name="Wdieresis" xMin="69" yMin="0" xMax="632" yMax="823">
      <component glyphName="W" x="0" y="0" flags="0x400"/>
      <component glyphName="uni0308.case" x="64" y="0" flags="0x400"/>
    </TTGlyph>
    <TTGlyph name="Wgrave" xMin="69" yMin="0" xMax="632" yMax="832">
      <component glyphName="W" x="0" y="0" flags="0x400"/>
      <component glyphName="gravecomb.case" x="64" y="0" flags="0x400"/>
    </TTGlyph>
    <TTGlyph name="X" xMin="-4" yMin="0" xMax="481" yMax="640">
      <contour>
        <pt x="35" y="97" on="0"/>
        <pt x="115" y="228" on="0"/>
        <pt x="185" y="300" on="1"/>
        <pt x="154" y="348" on="0"/>
        <pt x="127" y="450" on="0"/>
        <pt x="127" y="518" on="1"/>
        <pt x="127" y="566" on="0"/>
        <pt x="135" y="640" on="1"/>
        <pt x="226" y="640" on="1"/>
        <pt x="217" y="548" on="0"/>
        <pt x="217" y="510" on="1"/>
        <pt x="217" y="462" on="0"/>
        <pt x="233" y="388" on="0"/>
        <pt x="250" y="356" on="1"/>
        <pt x="296" y="406" on="0"/>
        <pt x="357" y="532" on="0"/>
        <pt x="388" y="640" on="1"/>
        <pt x="481" y="640" on="1"/>
        <pt x="444" y="515" on="0"/>
        <pt x="365" y="367" on="0"/>
        <pt x="295" y="302" on="1"/>
        <pt x="331" y="236" on="0"/>
        <pt x="359" y="113" on="0"/>
        <pt x="359" y="30" on="1"/>
        <pt x="359" y="0" on="1"/>
        <pt x="268" y="0" on="1"/>
        <pt x="269" y="87" on="0"/>
        <pt x="253" y="191" on="0"/>
        <pt x="228" y="243" on="1"/>
        <pt x="183" y="190" on="0"/>
        <pt x="124" y="83" on="0"/>
        <pt x="92" y="0" on="1"/>
        <pt x="-4" y="0" on="1"/>
      </contour>
    </TTGlyph>
    <TTGlyph name="X.sups" xMin="117" yMin="320" xMax="426" yMax="640">
      <contour>
        <pt x="137" y="371" on="0"/>
        <pt x="181" y="438" on="0"/>
        <pt x="219" y="474" on="1"/>
        <pt x="202" y="499" on="0"/>
        <pt x="187" y="551" on="0"/>
        <pt x="187" y="584" on="1"/>
        <pt x="187" y="598" on="0"/>
        <pt x="191" y="640" on="1"/>
        <pt x="273" y="640" on="1"/>
        <pt x="269" y="596" on="0"/>
        <pt x="269" y="583" on="1"/>
        <pt x="269" y="545" on="0"/>
        <pt x="281" y="521" on="1"/>
        <pt x="300" y="540" on="0"/>
        <pt x="327" y="594" on="0"/>
        <pt x="341" y="640" on="1"/>
        <pt x="426" y="640" on="1"/>
        <pt x="407" y="576" on="0"/>
        <pt x="365" y="500" on="0"/>
        <pt x="327" y="466" on="1"/>
        <pt x="350" y="433" on="0"/>
        <pt x="366" y="368" on="0"/>
        <pt x="366" y="320" on="1"/>
        <pt x="283" y="320" on="1"/>
        <pt x="281" y="358" on="0"/>
        <pt x="274" y="401" on="0"/>
        <pt x="265" y="418" on="1"/>
        <pt x="247" y="400" on="0"/>
        <pt x="221" y="356" on="0"/>
        <pt x="206" y="320" on="1"/>
        <pt x="117" y="320" on="1"/>
      </contour>
    </TTGlyph>
    <TTGlyph name="Xi" xMin="5" yMin="0" xMax="476" yMax="640">
      <contour>
        <pt x="476" y="640" on="1"/>
        <pt x="460" y="560" on="1"/>
        <pt x="122" y="560" on="1"/>
        <pt x="138" y="640" on="1"/>
      </contour>
      <contour>
        <pt x="21" y="80" on="1"/>
        <pt x="369" y="80" on="1"/>
        <pt x="353" y="0" on="1"/>
        <pt x="5" y="0" on="1"/>
      </contour>
      <contour>
        <pt x="125" y="328" on="1"/>
        <pt x="365" y="328" on="1"/>
        <pt x="349" y="248" on="1"/>
        <pt x="109" y="248" on="1"/>
      </contour>
    </TTGlyph>
    <TTGlyph name="Y" xMin="110" yMin="0" xMax="501" yMax="640">
      <contour>
        <pt x="110" y="329" on="0"/>
        <pt x="110" y="520" on="1"/>
        <pt x="110" y="586" on="0"/>
        <pt x="115" y="640" on="1"/>
        <pt x="206" y="640" on="1"/>
        <pt x="196" y="545" on="0"/>
        <pt x="196" y="490" on="1"/>
        <pt x="196" y="430" on="0"/>
        <pt x="213" y="324" on="0"/>
        <pt x="231" y="267" on="1"/>
        <pt x="295" y="356" on="0"/>
        <pt x="374" y="521" on="0"/>
        <pt x="408" y="640" on="1"/>
        <pt x="501" y="640" on="1"/>
        <pt x="457" y="496" on="0"/>
        <pt x="343" y="284" on="0"/>
        <pt x="266" y="202" on="1"/>
        <pt x="225" y="0" on="1"/>
        <pt x="133" y="0" on="1"/>
        <pt x="174" y="202" on="1"/>
      </contour>
    </TTGlyph>
    <TTGlyph name="Y.short" xMin="97" yMin="0" xMax="488" yMax="576">
      <contour>
        <pt x="97" y="302" on="0"/>
        <pt x="97" y="479" on="1"/>
        <pt x="97" y="519" on="0"/>
        <pt x="102" y="576" on="1"/>
        <pt x="193" y="576" on="1"/>
        <pt x="185" y="515" on="0"/>
        <pt x="185" y="452" on="1"/>
        <pt x="185" y="392" on="0"/>
        <pt x="204" y="287" on="0"/>
        <pt x="225" y="230" on="1"/>
        <pt x="286" y="310" on="0"/>
        <pt x="361" y="463" on="0"/>
        <pt x="395" y="576" on="1"/>
        <pt x="488" y="576" on="1"/>
        <pt x="442" y="439" on="0"/>
        <pt x="335" y="244" on="0"/>
        <pt x="260" y="170" on="1"/>
        <pt x="225" y="0" on="1"/>
        <pt x="133" y="0" on="1"/>
        <pt x="168" y="170" on="1"/>
      </contour>
    </TTGlyph>
    <TTGlyph name="Y.sups" xMin="167" yMin="312" xMax="426" yMax="640">
      <contour>
        <pt x="216" y="381" on="0"/>
        <pt x="265" y="409" on="0"/>
        <pt x="281" y="437" on="1"/>
        <pt x="225" y="447" on="0"/>
        <pt x="183" y="507" on="0"/>
        <pt x="183" y="563" on="1"/>
        <pt x="183" y="592" on="0"/>
        <pt x="188" y="640" on="1"/>
        <pt x="272" y="640" on="1"/>
        <pt x="267" y="587" on="0"/>
        <pt x="267" y="564" on="1"/>
        <pt x="267" y="531" on="0"/>
        <pt x="285" y="504" on="0"/>
        <pt x="308" y="499" on="1"/>
        <pt x="322" y="539" on="0"/>
        <pt x="341" y="640" on="1"/>
        <pt x="426" y="640" on="1"/>
        <pt x="407" y="541" on="0"/>
        <pt x="385" y="458" on="0"/>
        <pt x="367" y="421" on="1"/>
        <pt x="321" y="325" on="0"/>
        <pt x="171" y="312" on="1"/>
        <pt x="167" y="374" on="1"/>
      </contour>
    </TTGlyph>
    <TTGlyph name="Yacute" xMin="110" yMin="0" xMax="501" yMax="832">
      <component glyphName="Y" x="0" y="0" flags="0x400"/>
      <component glyphName="acutecomb.case" x="0" y="0" flags="0x400"/>
    </TTGlyph>
    <TTGlyph name="Ycircumflex" xMin="110" yMin="0" xMax="501" yMax="842">
      <component glyphName="Y" x="0" y="0" flags="0x400"/>
      <component glyphName="uni0302.case" x="0" y="0" flags="0x400"/>
    </TTGlyph>
    <TTGlyph name="Ydieresis" xMin="110" yMin="0" xMax="501" yMax="823">
      <component glyphName="Y" x="0" y="0" flags="0x400"/>
      <component glyphName="uni0308.case" x="0" y="0" flags="0x400"/>
    </TTGlyph>
    <TTGlyph name="Ygrave" xMin="110" yMin="0" xMax="501" yMax="832">
      <component glyphName="Y" x="0" y="0" flags="0x400"/>
      <component glyphName="gravecomb.case" x="0" y="0" flags="0x400"/>
    </TTGlyph>
    <TTGlyph name="Z" xMin="-7" yMin="0" xMax="456" yMax="640">
      <contour>
        <pt x="5" y="56" on="1"/>
        <pt x="332" y="568" on="1"/>
        <pt x="119" y="568" on="1"/>
        <pt x="133" y="640" on="1"/>
        <pt x="456" y="640" on="1"/>
        <pt x="445" y="584" on="1"/>
        <pt x="118" y="72" on="1"/>
        <pt x="343" y="72" on="1"/>
        <pt x="328" y="0" on="1"/>
        <pt x="-7" y="0" on="1"/>
      </contour>
    </TTGlyph>
    <TTGlyph name="Z.sups" xMin="131" yMin="320" xMax="410" yMax="640">
      <contour>
        <pt x="142" y="374" on="1"/>
        <pt x="301" y="579" on="1"/>
        <pt x="187" y="579" on="1"/>
        <pt x="199" y="640" on="1"/>
        <pt x="410" y="640" on="1"/>
        <pt x="399" y="587" on="1"/>
        <pt x="240" y="381" on="1"/>
        <pt x="358" y="381" on="1"/>
        <pt x="346" y="320" on="1"/>
        <pt x="131" y="320" on="1"/>
      </contour>
    </TTGlyph>
    <TTGlyph name="Zacute" xMin="-7" yMin="0" xMax="456" yMax="832">
      <component glyphName="Z" x="0" y="0" flags="0x400"/>
      <component glyphName="acutecomb.case" x="-20" y="0" flags="0x400"/>
    </TTGlyph>
    <TTGlyph name="Zcaron" xMin="-7" yMin="0" xMax="477" yMax="842">
      <component glyphName="Z" x="0" y="0" flags="0x400"/>
      <component glyphName="uni030C.case" x="-20" y="0" flags="0x400"/>
    </TTGlyph>
    <TTGlyph name="Zdotaccent" xMin="-7" yMin="0" xMax="456" yMax="822">
      <component glyphName="Z" x="0" y="0" flags="0x400"/>
      <component glyphName="uni0307.case" x="-20" y="0" flags="0x400"/>
    </TTGlyph>
    <TTGlyph name="Zeta" xMin="-7" yMin="0" xMax="456" yMax="640">
      <component glyphName="Z" x="0" y="0" flags="0x400"/>
    </TTGlyph>
    <TTGlyph name="_part.slash.O" xMin="-14" yMin="-21" xMax="501" yMax="661">
      <contour>
        <pt x="501" y="626" on="1"/>
        <pt x="50" y="-21" on="1"/>
        <pt x="-14" y="15" on="1"/>
        <pt x="438" y="661" on="1"/>
      </contour>
    </TTGlyph>
    <TTGlyph name="_part.slash.comp" xMin="60" yMin="142" xMax="407" yMax="396">
      <contour>
        <pt x="374" y="396" on="1"/>
        <pt x="407" y="339" on="1"/>
        <pt x="93" y="142" on="1"/>
        <pt x="60" y="199" on="1"/>
      </contour>
    </TTGlyph>
    <TTGlyph name="_part.slash.o" xMin="4" yMin="-31" xMax="446" yMax="479">
      <contour>
        <pt x="446" y="441" on="1"/>
        <pt x="62" y="-31" on="1"/>
        <pt x="4" y="9" on="1"/>
        <pt x="386" y="479" on="1"/>
      </contour>
    </TTGlyph>
    <TTGlyph name="a" xMin="12" yMin="-4" xMax="381" yMax="454">
      <contour>
        <pt x="213" y="21" on="0"/>
        <pt x="155" y="-4" on="0"/>
        <pt x="120" y="-4" on="1"/>
        <pt x="69" y="-4" on="0"/>
        <pt x="12" y="52" on="0"/>
        <pt x="12" y="100" on="1"/>
        <pt x="12" y="185" on="0"/>
        <pt x="154" y="269" on="0"/>
        <pt x="280" y="271" on="1"/>
        <pt x="283" y="289" on="1"/>
        <pt x="288" y="316" on="0"/>
        <pt x="288" y="330" on="1"/>
        <pt x="288" y="356" on="0"/>
        <pt x="260" y="377" on="0"/>
        <pt x="226" y="377" on="1"/>
        <pt x="174" y="377" on="0"/>
        <pt x="101" y="352" on="1"/>
        <pt x="90" y="423" on="1"/>
        <pt x="169" y="454" on="0"/>
        <pt x="244" y="454" on="1"/>
        <pt x="381" y="454" on="0"/>
        <pt x="381" y="343" on="1"/>
        <pt x="381" y="324" on="0"/>
        <pt x="376" y="296" on="1"/>
        <pt x="330" y="64" on="1"/>
        <pt x="320" y="0" on="1"/>
        <pt x="237" y="0" on="1"/>
        <pt x="240" y="46" on="1"/>
      </contour>
      <contour>
        <pt x="107" y="68" on="0"/>
        <pt x="147" y="68" on="1"/>
        <pt x="176" y="68" on="0"/>
        <pt x="223" y="102" on="0"/>
        <pt x="254" y="141" on="1"/>
        <pt x="267" y="206" on="1"/>
        <pt x="186" y="203" on="0"/>
        <pt x="107" y="154" on="0"/>
        <pt x="107" y="112" on="1"/>
      </contour>
    </TTGlyph>
    <TTGlyph name="aacute" xMin="12" yMin="-4" xMax="439" yMax="704">
      <component glyphName="a" x="0" y="0" flags="0x400"/>
      <component glyphName="acutecomb" x="-15" y="0" flags="0x400"/>
    </TTGlyph>
    <TTGlyph name="abreve" xMin="12" yMin="-4" xMax="428" yMax="649">
      <component glyphName="a" x="0" y="0" flags="0x400"/>
      <component glyphName="uni0306" x="-15" y="0" flags="0x400"/>
    </TTGlyph>
    <TTGlyph name="acircumflex" xMin="12" yMin="-4" xMax="413" yMax="650">
      <component glyphName="a" x="0" y="0" flags="0x400"/>
      <component glyphName="uni0302" x="-15" y="0" flags="0x400"/>
    </TTGlyph>
    <TTGlyph name="acute" xMin="170" yMin="384" xMax="407" yMax="640">
      <contour>
        <pt x="170" y="384" on="1"/>
        <pt x="287" y="640" on="1"/>
        <pt x="407" y="640" on="1"/>
        <pt x="264" y="384" on="1"/>
      </contour>
    </TTGlyph>
    <TTGlyph name="acutecomb" xMin="243" yMin="512" xMax="454" yMax="704">
      <contour>
        <pt x="320" y="704" on="1"/>
        <pt x="454" y="704" on="1"/>
        <pt x="321" y="512" on="1"/>
        <pt x="243" y="512" on="1"/>
      </contour>
    </TTGlyph>
    <TTGlyph name="acutecomb.alt" xMin="243" yMin="510" xMax="444" yMax="652">
      <contour>
        <pt x="310" y="652" on="1"/>
        <pt x="444" y="652" on="1"/>
        <pt x="321" y="510" on="1"/>
        <pt x="243" y="510" on="1"/>
      </contour>
    </TTGlyph>
    <TTGlyph name="acutecomb.case" xMin="281" yMin="702" xMax="474" yMax="832">
      <contour>
        <pt x="340" y="832" on="1"/>
        <pt x="474" y="832" on="1"/>
        <pt x="359" y="702" on="1"/>
        <pt x="281" y="702" on="1"/>
      </contour>
    </TTGlyph>
    <TTGlyph name="adieresis" xMin="12" yMin="-4" xMax="426" yMax="653">
      <component glyphName="a" x="0" y="0" flags="0x400"/>
      <component glyphName="uni0308" x="-15" y="0" flags="0x400"/>
    </TTGlyph>
    <TTGlyph name="ae" xMin="24" yMin="-11" xMax="665" yMax="459">
      <contour>
        <pt x="352" y="-11" on="0"/>
        <pt x="311" y="50" on="1"/>
        <pt x="219" y="-8" on="0"/>
        <pt x="147" y="-8" on="1"/>
        <pt x="92" y="-8" on="0"/>
        <pt x="24" y="48" on="0"/>
        <pt x="24" y="101" on="1"/>
        <pt x="24" y="180" on="0"/>
        <pt x="159" y="264" on="0"/>
        <pt x="304" y="269" on="1"/>
        <pt x="308" y="289" on="1"/>
        <pt x="313" y="316" on="0"/>
        <pt x="313" y="329" on="1"/>
        <pt x="313" y="357" on="0"/>
        <pt x="282" y="379" on="0"/>
        <pt x="246" y="379" on="1"/>
        <pt x="194" y="379" on="0"/>
        <pt x="116" y="353" on="1"/>
        <pt x="105" y="424" on="1"/>
        <pt x="187" y="455" on="0"/>
        <pt x="261" y="455" on="1"/>
        <pt x="360" y="455" on="0"/>
        <pt x="388" y="395" on="1"/>
        <pt x="442" y="459" on="0"/>
        <pt x="526" y="459" on="1"/>
        <pt x="594" y="459" on="0"/>
        <pt x="665" y="378" on="0"/>
        <pt x="665" y="304" on="1"/>
        <pt x="665" y="256" on="0"/>
        <pt x="648" y="191" on="1"/>
        <pt x="394" y="194" on="1"/>
        <pt x="388" y="160" on="0"/>
        <pt x="388" y="135" on="1"/>
        <pt x="388" y="95" on="0"/>
        <pt x="424" y="61" on="0"/>
        <pt x="464" y="61" on="1"/>
        <pt x="494" y="61" on="0"/>
        <pt x="553" y="74" on="0"/>
        <pt x="591" y="87" on="1"/>
        <pt x="600" y="19" on="1"/>
        <pt x="524" y="-11" on="0"/>
        <pt x="456" y="-11" on="1"/>
      </contour>
      <contour>
        <pt x="120" y="88" on="0"/>
        <pt x="143" y="64" on="0"/>
        <pt x="164" y="64" on="1"/>
        <pt x="214" y="64" on="0"/>
        <pt x="289" y="112" on="1"/>
        <pt x="286" y="130" on="0"/>
        <pt x="286" y="151" on="1"/>
        <pt x="286" y="179" on="0"/>
        <pt x="290" y="203" on="1"/>
        <pt x="195" y="198" on="0"/>
        <pt x="120" y="150" on="0"/>
        <pt x="120" y="110" on="1"/>
      </contour>
      <contour>
        <pt x="568" y="265" on="1"/>
        <pt x="574" y="297" on="0"/>
        <pt x="574" y="319" on="1"/>
        <pt x="574" y="387" on="0"/>
        <pt x="518" y="387" on="1"/>
        <pt x="479" y="387" on="0"/>
        <pt x="427" y="330" on="0"/>
        <pt x="409" y="265" on="1"/>
      </contour>
    </TTGlyph>
    <TTGlyph name="aeacute" xMin="24" yMin="-11" xMax="665" yMax="704">
      <component glyphName="ae" x="0" y="0" flags="0x400"/>
      <component glyphName="acutecomb" x="128" y="0" flags="0x400"/>
    </TTGlyph>
    <TTGlyph name="agrave" xMin="12" yMin="-4" xMax="381" yMax="704">
      <component glyphName="a" x="0" y="0" flags="0x400"/>
      <component glyphName="gravecomb" x="-15" y="0" flags="0x400"/>
    </TTGlyph>
    <TTGlyph name="alpha" xMin="26" yMin="-8" xMax="435" yMax="456">
      <contour>
        <pt x="280" y="-6" on="0"/>
        <pt x="271" y="37" on="1"/>
        <pt x="225" y="-8" on="0"/>
        <pt x="161" y="-8" on="1"/>
        <pt x="100" y="-8" on="0"/>
        <pt x="67" y="26" on="1"/>
        <pt x="26" y="66" on="0"/>
        <pt x="26" y="150" on="1"/>
        <pt x="26" y="220" on="0"/>
        <pt x="73" y="357" on="0"/>
        <pt x="118" y="402" on="1"/>
        <pt x="172" y="456" on="0"/>
        <pt x="243" y="456" on="1"/>
        <pt x="312" y="456" on="0"/>
        <pt x="345" y="410" on="1"/>
        <pt x="359" y="448" on="1"/>
        <pt x="435" y="448" on="1"/>
        <pt x="420" y="384" on="1"/>
        <pt x="360" y="87" on="1"/>
        <pt x="359" y="84" on="0"/>
        <pt x="359" y="79" on="1"/>
        <pt x="359" y="66" on="0"/>
        <pt x="376" y="66" on="1"/>
        <pt x="381" y="66" on="0"/>
        <pt x="399" y="69" on="1"/>
        <pt x="393" y="0" on="1"/>
        <pt x="366" y="-6" on="0"/>
        <pt x="337" y="-6" on="1"/>
      </contour>
      <contour>
        <pt x="120" y="99" on="0"/>
        <pt x="139" y="80" on="1"/>
        <pt x="154" y="65" on="0"/>
        <pt x="182" y="65" on="1"/>
        <pt x="206" y="65" on="0"/>
        <pt x="253" y="88" on="0"/>
        <pt x="273" y="111" on="1"/>
        <pt x="320" y="347" on="1"/>
        <pt x="298" y="385" on="0"/>
        <pt x="254" y="385" on="1"/>
        <pt x="216" y="385" on="0"/>
        <pt x="187" y="356" on="1"/>
        <pt x="154" y="323" on="0"/>
        <pt x="120" y="202" on="0"/>
        <pt x="120" y="150" on="1"/>
      </contour>
    </TTGlyph>
    <TTGlyph name="alphatonos" xMin="26" yMin="-8" xMax="435" yMax="704">
      <component glyphName="alpha" x="0" y="0" flags="0x400"/>
      <component glyphName="tonos" x="0" y="0" flags="0x400"/>
    </TTGlyph>
    <TTGlyph name="amacron" xMin="12" yMin="-4" xMax="417" yMax="629">
      <component glyphName="a" x="0" y="0" flags="0x400"/>
      <component glyphName="uni0304" x="-15" y="0" flags="0x400"/>
    </TTGlyph>
    <TTGlyph name="ampersand" xMin="12" yMin="-10" xMax="453" yMax="542">
      <contour>
        <pt x="316" y="470" on="0"/>
        <pt x="279" y="470" on="1"/>
        <pt x="230" y="470" on="0"/>
        <pt x="177" y="424" on="0"/>
        <pt x="170" y="390" on="1"/>
        <pt x="168" y="378" on="0"/>
        <pt x="168" y="373" on="1"/>
        <pt x="168" y="324" on="0"/>
        <pt x="255" y="324" on="1"/>
        <pt x="453" y="324" on="1"/>
        <pt x="439" y="252" on="1"/>
        <pt x="379" y="252" on="1"/>
        <pt x="335" y="17" on="1"/>
        <pt x="294" y="4" on="0"/>
        <pt x="202" y="-10" on="0"/>
        <pt x="167" y="-10" on="1"/>
        <pt x="86" y="-10" on="0"/>
        <pt x="12" y="59" on="0"/>
        <pt x="12" y="115" on="1"/>
        <pt x="12" y="136" on="0"/>
        <pt x="16" y="155" on="1"/>
        <pt x="24" y="194" on="0"/>
        <pt x="77" y="266" on="0"/>
        <pt x="129" y="290" on="1"/>
        <pt x="79" y="319" on="0"/>
        <pt x="79" y="378" on="1"/>
        <pt x="79" y="393" on="0"/>
        <pt x="82" y="408" on="1"/>
        <pt x="94" y="468" on="0"/>
        <pt x="193" y="542" on="0"/>
        <pt x="274" y="542" on="1"/>
        <pt x="329" y="542" on="0"/>
        <pt x="385" y="527" on="1"/>
        <pt x="363" y="461" on="1"/>
      </contour>
      <contour>
        <pt x="104" y="62" on="0"/>
        <pt x="169" y="62" on="1"/>
        <pt x="211" y="62" on="0"/>
        <pt x="251" y="71" on="1"/>
        <pt x="287" y="252" on="1"/>
        <pt x="258" y="252" on="1"/>
        <pt x="177" y="252" on="0"/>
        <pt x="104" y="169" on="0"/>
        <pt x="104" y="115" on="1"/>
      </contour>
    </TTGlyph>
    <TTGlyph name="angle" xMin="27" yMin="64" xMax="381" yMax="529">
      <contour>
        <pt x="27" y="64" on="1"/>
        <pt x="40" y="134" on="1"/>
        <pt x="311" y="529" on="1"/>
        <pt x="381" y="494" on="1"/>
        <pt x="141" y="144" on="1"/>
        <pt x="373" y="144" on="1"/>
        <pt x="357" y="64" on="1"/>
      </contour>
    </TTGlyph>
    <TTGlyph name="anoteleia" xMin="118" yMin="310" xMax="267" yMax="458">
      <component glyphName="period" x="96" y="320" flags="0x404"/>
    </TTGlyph>
    <TTGlyph name="aogonek" xMin="12" yMin="-197" xMax="381" yMax="454">
      <component glyphName="a" x="0" y="0" flags="0x400"/>
      <component glyphName="uni0328" x="-25" y="0" flags="0x400"/>
    </TTGlyph>
    <TTGlyph name="approxequal" xMin="8" yMin="133" xMax="466" yMax="444">
      <contour>
        <pt x="268" y="133" on="0"/>
        <pt x="221" y="153" on="0"/>
        <pt x="196" y="171" on="1"/>
        <pt x="178" y="184" on="0"/>
        <pt x="154" y="195" on="0"/>
        <pt x="140" y="195" on="1"/>
        <pt x="118" y="195" on="0"/>
        <pt x="85" y="163" on="0"/>
        <pt x="76" y="133" on="1"/>
        <pt x="8" y="145" on="1"/>
        <pt x="24" y="208" on="0"/>
        <pt x="91" y="273" on="0"/>
        <pt x="140" y="273" on="1"/>
        <pt x="173" y="273" on="0"/>
        <pt x="219" y="253" on="0"/>
        <pt x="244" y="235" on="1"/>
        <pt x="262" y="222" on="0"/>
        <pt x="286" y="211" on="0"/>
        <pt x="300" y="211" on="1"/>
        <pt x="322" y="211" on="0"/>
        <pt x="355" y="244" on="0"/>
        <pt x="364" y="274" on="1"/>
        <pt x="432" y="262" on="1"/>
        <pt x="416" y="199" on="0"/>
        <pt x="350" y="133" on="0"/>
        <pt x="301" y="133" on="1"/>
      </contour>
      <contour>
        <pt x="58" y="378" on="0"/>
        <pt x="125" y="443" on="0"/>
        <pt x="174" y="443" on="1"/>
        <pt x="207" y="443" on="0"/>
        <pt x="253" y="423" on="0"/>
        <pt x="278" y="405" on="1"/>
        <pt x="296" y="392" on="0"/>
        <pt x="320" y="381" on="0"/>
        <pt x="334" y="381" on="1"/>
        <pt x="356" y="381" on="0"/>
        <pt x="389" y="414" on="0"/>
        <pt x="398" y="444" on="1"/>
        <pt x="466" y="432" on="1"/>
        <pt x="450" y="369" on="0"/>
        <pt x="384" y="303" on="0"/>
        <pt x="335" y="303" on="1"/>
        <pt x="302" y="303" on="0"/>
        <pt x="255" y="323" on="0"/>
        <pt x="230" y="341" on="1"/>
        <pt x="212" y="354" on="0"/>
        <pt x="188" y="365" on="0"/>
        <pt x="174" y="365" on="1"/>
        <pt x="152" y="365" on="0"/>
        <pt x="119" y="333" on="0"/>
        <pt x="110" y="303" on="1"/>
        <pt x="42" y="315" on="1"/>
      </contour>
    </TTGlyph>
    <TTGlyph name="aring" xMin="12" yMin="-4" xMax="401" yMax="702">
      <component glyphName="a" x="0" y="0" flags="0x400"/>
      <component glyphName="uni030A" x="-15" y="0" flags="0x400"/>
    </TTGlyph>
    <TTGlyph name="aringacute" xMin="12" yMin="-4" xMax="474" yMax="876">
      <component glyphName="a" x="0" y="0" flags="0x400"/>
      <component glyphName="uni030A" x="-15" y="0" flags="0x400"/>
      <component glyphName="acutecomb.alt" x="30" y="224" flags="0x404"/>
    </TTGlyph>
    <TTGlyph name="arrowboth" xMin="-11" yMin="108" xMax="462" yMax="468">
      <contour>
        <pt x="216" y="151" on="1"/>
        <pt x="173" y="108" on="1"/>
        <pt x="-11" y="262" on="1"/>
        <pt x="-11" y="314" on="1"/>
        <pt x="173" y="468" on="1"/>
        <pt x="216" y="428" on="1"/>
        <pt x="136" y="330" on="1"/>
        <pt x="316" y="330" on="1"/>
        <pt x="235" y="428" on="1"/>
        <pt x="278" y="468" on="1"/>
        <pt x="462" y="314" on="1"/>
        <pt x="462" y="262" on="1"/>
        <pt x="278" y="108" on="1"/>
        <pt x="235" y="151" on="1"/>
        <pt x="315" y="246" on="1"/>
        <pt x="136" y="246" on="1"/>
      </contour>
    </TTGlyph>
    <TTGlyph name="arrowdown" xMin="44" yMin="49" xMax="404" yMax="517">
      <contour>
        <pt x="266" y="195" on="1"/>
        <pt x="364" y="276" on="1"/>
        <pt x="404" y="233" on="1"/>
        <pt x="250" y="49" on="1"/>
        <pt x="198" y="49" on="1"/>
        <pt x="44" y="233" on="1"/>
        <pt x="87" y="276" on="1"/>
        <pt x="182" y="196" on="1"/>
        <pt x="182" y="517" on="1"/>
        <pt x="266" y="517" on="1"/>
      </contour>
    </TTGlyph>
    <TTGlyph name="arrowleft" xMin="-15" yMin="108" xMax="453" yMax="468">
      <contour>
        <pt x="131" y="246" on="1"/>
        <pt x="212" y="148" on="1"/>
        <pt x="169" y="108" on="1"/>
        <pt x="-15" y="262" on="1"/>
        <pt x="-15" y="314" on="1"/>
        <pt x="169" y="468" on="1"/>
        <pt x="212" y="425" on="1"/>
        <pt x="132" y="330" on="1"/>
        <pt x="453" y="330" on="1"/>
        <pt x="453" y="246" on="1"/>
      </contour>
    </TTGlyph>
    <TTGlyph name="arrowright" xMin="-5" yMin="108" xMax="463" yMax="468">
      <contour>
        <pt x="317" y="330" on="1"/>
        <pt x="236" y="428" on="1"/>
        <pt x="279" y="468" on="1"/>
        <pt x="463" y="314" on="1"/>
        <pt x="463" y="262" on="1"/>
        <pt x="279" y="108" on="1"/>
        <pt x="236" y="151" on="1"/>
        <pt x="316" y="246" on="1"/>
        <pt x="-5" y="246" on="1"/>
        <pt x="-5" y="330" on="1"/>
      </contour>
    </TTGlyph>
    <TTGlyph name="arrowup" xMin="44" yMin="59" xMax="404" yMax="527">
      <contour>
        <pt x="182" y="381" on="1"/>
        <pt x="84" y="300" on="1"/>
        <pt x="44" y="343" on="1"/>
        <pt x="198" y="527" on="1"/>
        <pt x="250" y="527" on="1"/>
        <pt x="404" y="343" on="1"/>
        <pt x="361" y="300" on="1"/>
        <pt x="266" y="380" on="1"/>
        <pt x="266" y="59" on="1"/>
        <pt x="182" y="59" on="1"/>
      </contour>
    </TTGlyph>
    <TTGlyph name="arrowupdn" xMin="44" yMin="52" xMax="404" yMax="525">
      <contour>
        <pt x="87" y="298" on="1"/>
        <pt x="44" y="341" on="1"/>
        <pt x="198" y="525" on="1"/>
        <pt x="250" y="525" on="1"/>
        <pt x="404" y="341" on="1"/>
        <pt x="365" y="298" on="1"/>
        <pt x="266" y="378" on="1"/>
        <pt x="266" y="198" on="1"/>
        <pt x="365" y="279" on="1"/>
        <pt x="404" y="236" on="1"/>
        <pt x="250" y="52" on="1"/>
        <pt x="198" y="52" on="1"/>
        <pt x="44" y="236" on="1"/>
        <pt x="87" y="279" on="1"/>
        <pt x="182" y="199" on="1"/>
        <pt x="182" y="378" on="1"/>
      </contour>
    </TTGlyph>
    <TTGlyph name="arrowupdnbse" xMin="44" yMin="0" xMax="404" yMax="589">
      <contour>
        <pt x="50" y="80" on="1"/>
        <pt x="398" y="80" on="1"/>
        <pt x="398" y="0" on="1"/>
        <pt x="50" y="0" on="1"/>
      </contour>
      <contour>
        <pt x="87" y="343" on="1"/>
        <pt x="182" y="263" on="1"/>
        <pt x="182" y="442" on="1"/>
        <pt x="87" y="362" on="1"/>
        <pt x="44" y="405" on="1"/>
        <pt x="198" y="589" on="1"/>
        <pt x="250" y="589" on="1"/>
        <pt x="404" y="405" on="1"/>
        <pt x="365" y="362" on="1"/>
        <pt x="266" y="442" on="1"/>
        <pt x="266" y="262" on="1"/>
        <pt x="365" y="343" on="1"/>
        <pt x="404" y="300" on="1"/>
        <pt x="250" y="116" on="1"/>
        <pt x="198" y="116" on="1"/>
        <pt x="44" y="300" on="1"/>
      </contour>
    </TTGlyph>
    <TTGlyph name="asciicircum" xMin="36" yMin="192" xMax="398" yMax="566">
      <contour>
        <pt x="340" y="566" on="1"/>
        <pt x="398" y="192" on="1"/>
        <pt x="303" y="192" on="1"/>
        <pt x="272" y="458" on="1"/>
        <pt x="133" y="192" on="1"/>
        <pt x="36" y="192" on="1"/>
        <pt x="244" y="566" on="1"/>
      </contour>
    </TTGlyph>
    <TTGlyph name="asciitilde" xMin="-9" yMin="190" xMax="483" yMax="386">
      <contour>
        <pt x="283" y="190" on="0"/>
        <pt x="238" y="211" on="0"/>
        <pt x="214" y="239" on="0"/>
        <pt x="201" y="262" on="1"/>
        <pt x="188" y="284" on="0"/>
        <pt x="168" y="305" on="0"/>
        <pt x="149" y="305" on="1"/>
        <pt x="116" y="305" on="0"/>
        <pt x="77" y="254" on="0"/>
        <pt x="61" y="197" on="1"/>
        <pt x="-9" y="209" on="1"/>
        <pt x="13" y="300" on="0"/>
        <pt x="88" y="386" on="0"/>
        <pt x="154" y="386" on="1"/>
        <pt x="190" y="386" on="0"/>
        <pt x="236" y="365" on="0"/>
        <pt x="260" y="337" on="0"/>
        <pt x="273" y="314" on="1"/>
        <pt x="286" y="292" on="0"/>
        <pt x="306" y="271" on="0"/>
        <pt x="325" y="271" on="1"/>
        <pt x="358" y="271" on="0"/>
        <pt x="397" y="323" on="0"/>
        <pt x="413" y="380" on="1"/>
        <pt x="483" y="369" on="1"/>
        <pt x="461" y="277" on="0"/>
        <pt x="386" y="190" on="0"/>
        <pt x="319" y="190" on="1"/>
      </contour>
    </TTGlyph>
    <TTGlyph name="asterisk" xMin="23" yMin="64" xMax="451" yMax="512">
      <contour>
        <pt x="291" y="277" on="1"/>
        <pt x="409" y="146" on="1"/>
        <pt x="337" y="89" on="1"/>
        <pt x="258" y="200" on="1"/>
        <pt x="239" y="64" on="1"/>
        <pt x="149" y="82" on="1"/>
        <pt x="183" y="215" on="1"/>
        <pt x="67" y="143" on="1"/>
        <pt x="23" y="224" on="1"/>
        <pt x="182" y="299" on="1"/>
        <pt x="64" y="431" on="1"/>
        <pt x="136" y="488" on="1"/>
        <pt x="215" y="376" on="1"/>
        <pt x="235" y="512" on="1"/>
        <pt x="325" y="494" on="1"/>
        <pt x="290" y="361" on="1"/>
        <pt x="406" y="433" on="1"/>
        <pt x="451" y="353" on="1"/>
      </contour>
    </TTGlyph>
    <TTGlyph name="at" xMin="20" yMin="-128" xMax="436" yMax="586">
      <contour>
        <pt x="337" y="60" on="0"/>
        <pt x="284" y="60" on="1"/>
        <pt x="224" y="60" on="0"/>
        <pt x="159" y="121" on="0"/>
        <pt x="159" y="178" on="1"/>
        <pt x="159" y="198" on="0"/>
        <pt x="164" y="226" on="1"/>
        <pt x="177" y="294" on="0"/>
        <pt x="261" y="377" on="0"/>
        <pt x="340" y="392" on="1"/>
        <pt x="347" y="434" on="0"/>
        <pt x="347" y="454" on="1"/>
        <pt x="347" y="485" on="0"/>
        <pt x="322" y="515" on="0"/>
        <pt x="295" y="515" on="1"/>
        <pt x="255" y="515" on="0"/>
        <pt x="197" y="455" on="0"/>
        <pt x="150" y="325" on="0"/>
        <pt x="129" y="216" on="1"/>
        <pt x="108" y="111" on="0"/>
        <pt x="108" y="52" on="1"/>
        <pt x="108" y="-7" on="0"/>
        <pt x="149" y="-56" on="0"/>
        <pt x="192" y="-56" on="1"/>
        <pt x="233" y="-56" on="0"/>
        <pt x="282" y="-42" on="1"/>
        <pt x="292" y="-107" on="1"/>
        <pt x="265" y="-117" on="0"/>
        <pt x="205" y="-128" on="0"/>
        <pt x="180" y="-128" on="1"/>
        <pt x="98" y="-128" on="0"/>
        <pt x="20" y="-35" on="0"/>
        <pt x="20" y="62" on="1"/>
        <pt x="20" y="129" on="0"/>
        <pt x="40" y="231" on="1"/>
        <pt x="76" y="414" on="0"/>
        <pt x="197" y="586" on="0"/>
        <pt x="300" y="586" on="1"/>
        <pt x="369" y="586" on="0"/>
        <pt x="436" y="511" on="0"/>
        <pt x="436" y="443" on="1"/>
        <pt x="436" y="417" on="0"/>
        <pt x="429" y="377" on="1"/>
        <pt x="370" y="69" on="1"/>
      </contour>
      <contour>
        <pt x="250" y="186" on="0"/>
        <pt x="250" y="172" on="1"/>
        <pt x="250" y="152" on="0"/>
        <pt x="267" y="133" on="0"/>
        <pt x="286" y="134" on="1"/>
        <pt x="323" y="311" on="1"/>
        <pt x="293" y="299" on="0"/>
        <pt x="263" y="253" on="0"/>
        <pt x="255" y="213" on="1"/>
      </contour>
    </TTGlyph>
    <TTGlyph name="atilde" xMin="12" yMin="-4" xMax="450" yMax="648">
      <component glyphName="a" x="0" y="0" flags="0x400"/>
      <component glyphName="tildecomb" x="-15" y="0" flags="0x400"/>
    </TTGlyph>
    <TTGlyph name="b" xMin="8" yMin="-8" xMax="416" yMax="640">
      <contour>
        <pt x="23" y="65" on="1"/>
        <pt x="138" y="640" on="1"/>
        <pt x="230" y="640" on="1"/>
        <pt x="187" y="425" on="1"/>
        <pt x="228" y="456" on="0"/>
        <pt x="281" y="456" on="1"/>
        <pt x="342" y="456" on="0"/>
        <pt x="375" y="422" on="1"/>
        <pt x="416" y="382" on="0"/>
        <pt x="416" y="298" on="1"/>
        <pt x="416" y="228" on="0"/>
        <pt x="369" y="91" on="0"/>
        <pt x="324" y="46" on="1"/>
        <pt x="270" y="-8" on="0"/>
        <pt x="199" y="-8" on="1"/>
        <pt x="132" y="-8" on="0"/>
        <pt x="97" y="37" on="1"/>
        <pt x="84" y="0" on="1"/>
        <pt x="8" y="0" on="1"/>
      </contour>
      <contour>
        <pt x="143" y="63" on="0"/>
        <pt x="188" y="63" on="1"/>
        <pt x="226" y="63" on="0"/>
        <pt x="255" y="92" on="1"/>
        <pt x="288" y="125" on="0"/>
        <pt x="322" y="246" on="0"/>
        <pt x="322" y="298" on="1"/>
        <pt x="322" y="349" on="0"/>
        <pt x="303" y="368" on="1"/>
        <pt x="288" y="383" on="0"/>
        <pt x="260" y="383" on="1"/>
        <pt x="211" y="383" on="0"/>
        <pt x="170" y="338" on="1"/>
        <pt x="166" y="319" on="1"/>
        <pt x="123" y="100" on="1"/>
      </contour>
    </TTGlyph>
    <TTGlyph name="backslash" xMin="64" yMin="-69" xMax="294" yMax="710">
      <contour>
        <pt x="203" y="-69" on="1"/>
        <pt x="64" y="698" on="1"/>
        <pt x="155" y="710" on="1"/>
        <pt x="294" y="-57" on="1"/>
      </contour>
    </TTGlyph>
    <TTGlyph name="bar" xMin="120" yMin="-64" xMax="366" yMax="704">
      <contour>
        <pt x="120" y="-64" on="1"/>
        <pt x="274" y="704" on="1"/>
        <pt x="366" y="704" on="1"/>
        <pt x="212" y="-64" on="1"/>
      </contour>
    </TTGlyph>
    <TTGlyph name="beta" xMin="-28" yMin="-192" xMax="440" yMax="648">
      <contour>
        <pt x="122" y="561" on="0"/>
        <pt x="229" y="648" on="0"/>
        <pt x="303" y="648" on="1"/>
        <pt x="373" y="648" on="0"/>
        <pt x="440" y="576" on="0"/>
        <pt x="440" y="522" on="1"/>
        <pt x="440" y="501" on="0"/>
        <pt x="436" y="485" on="1"/>
        <pt x="427" y="440" on="0"/>
        <pt x="373" y="373" on="0"/>
        <pt x="329" y="355" on="1"/>
        <pt x="410" y="324" on="0"/>
        <pt x="410" y="230" on="1"/>
        <pt x="410" y="202" on="0"/>
        <pt x="404" y="173" on="1"/>
        <pt x="387" y="92" on="0"/>
        <pt x="285" y="-6" on="0"/>
        <pt x="203" y="-6" on="1"/>
        <pt x="147" y="-6" on="0"/>
        <pt x="108" y="28" on="1"/>
        <pt x="64" y="-192" on="1"/>
        <pt x="-28" y="-192" on="1"/>
        <pt x="106" y="481" on="1"/>
      </contour>
      <contour>
        <pt x="150" y="65" on="0"/>
        <pt x="199" y="65" on="1"/>
        <pt x="287" y="65" on="0"/>
        <pt x="312" y="188" on="1"/>
        <pt x="317" y="218" on="0"/>
        <pt x="317" y="237" on="1"/>
        <pt x="317" y="277" on="0"/>
        <pt x="275" y="317" on="0"/>
        <pt x="227" y="317" on="1"/>
        <pt x="205" y="317" on="1"/>
        <pt x="219" y="387" on="1"/>
        <pt x="235" y="387" on="1"/>
        <pt x="280" y="387" on="0"/>
        <pt x="334" y="441" on="0"/>
        <pt x="342" y="486" on="1"/>
        <pt x="346" y="503" on="0"/>
        <pt x="346" y="521" on="1"/>
        <pt x="346" y="576" on="0"/>
        <pt x="292" y="576" on="1"/>
        <pt x="257" y="576" on="0"/>
        <pt x="207" y="523" on="0"/>
        <pt x="197" y="473" on="1"/>
        <pt x="122" y="99" on="1"/>
      </contour>
    </TTGlyph>
    <TTGlyph name="block" xMin="-5" yMin="-197" xMax="453" yMax="837">
      <contour>
        <pt x="-5" y="-197" on="1"/>
        <pt x="-5" y="837" on="1"/>
        <pt x="453" y="837" on="1"/>
        <pt x="453" y="-197" on="1"/>
      </contour>
    </TTGlyph>
    <TTGlyph name="braceleft" xMin="92" yMin="-64" xMax="442" yMax="704">
      <contour>
        <pt x="206" y="-54" on="0"/>
        <pt x="115" y="-4" on="0"/>
        <pt x="115" y="51" on="1"/>
        <pt x="115" y="67" on="0"/>
        <pt x="124" y="101" on="0"/>
        <pt x="133" y="124" on="1"/>
        <pt x="149" y="171" on="0"/>
        <pt x="154" y="196" on="1"/>
        <pt x="156" y="210" on="0"/>
        <pt x="156" y="215" on="1"/>
        <pt x="156" y="239" on="0"/>
        <pt x="126" y="266" on="0"/>
        <pt x="92" y="272" on="1"/>
        <pt x="106" y="369" on="1"/>
        <pt x="191" y="383" on="0"/>
        <pt x="206" y="459" on="1"/>
        <pt x="210" y="476" on="0"/>
        <pt x="212" y="513" on="0"/>
        <pt x="212" y="518" on="1"/>
        <pt x="214" y="555" on="0"/>
        <pt x="218" y="576" on="1"/>
        <pt x="230" y="640" on="0"/>
        <pt x="338" y="693" on="0"/>
        <pt x="439" y="704" on="1"/>
        <pt x="442" y="638" on="1"/>
        <pt x="370" y="625" on="0"/>
        <pt x="309" y="590" on="0"/>
        <pt x="301" y="552" on="1"/>
        <pt x="299" y="541" on="0"/>
        <pt x="297" y="513" on="0"/>
        <pt x="297" y="508" on="1"/>
        <pt x="297" y="469" on="0"/>
        <pt x="290" y="435" on="1"/>
        <pt x="279" y="384" on="0"/>
        <pt x="222" y="332" on="0"/>
        <pt x="169" y="318" on="1"/>
        <pt x="206" y="305" on="0"/>
        <pt x="244" y="263" on="0"/>
        <pt x="244" y="227" on="1"/>
        <pt x="244" y="209" on="0"/>
        <pt x="240" y="190" on="1"/>
        <pt x="235" y="161" on="0"/>
        <pt x="221" y="128" on="1"/>
        <pt x="209" y="92" on="0"/>
        <pt x="205" y="74" on="1"/>
        <pt x="203" y="64" on="0"/>
        <pt x="203" y="59" on="1"/>
        <pt x="203" y="35" on="0"/>
        <pt x="249" y="11" on="0"/>
        <pt x="309" y="0" on="1"/>
        <pt x="292" y="-64" on="1"/>
      </contour>
    </TTGlyph>
    <TTGlyph name="braceright" xMin="45" yMin="-64" xMax="395" yMax="704">
      <contour>
        <pt x="117" y="15" on="0"/>
        <pt x="178" y="50" on="0"/>
        <pt x="186" y="89" on="1"/>
        <pt x="188" y="100" on="0"/>
        <pt x="190" y="127" on="0"/>
        <pt x="190" y="132" on="1"/>
        <pt x="190" y="171" on="0"/>
        <pt x="197" y="205" on="1"/>
        <pt x="207" y="256" on="0"/>
        <pt x="265" y="308" on="0"/>
        <pt x="317" y="323" on="1"/>
        <pt x="280" y="336" on="0"/>
        <pt x="242" y="378" on="0"/>
        <pt x="242" y="414" on="1"/>
        <pt x="242" y="433" on="0"/>
        <pt x="246" y="450" on="1"/>
        <pt x="253" y="482" on="0"/>
        <pt x="264" y="511" on="1"/>
        <pt x="276" y="542" on="0"/>
        <pt x="281" y="567" on="1"/>
        <pt x="283" y="579" on="0"/>
        <pt x="283" y="583" on="1"/>
        <pt x="283" y="606" on="0"/>
        <pt x="237" y="629" on="0"/>
        <pt x="177" y="640" on="1"/>
        <pt x="195" y="704" on="1"/>
        <pt x="281" y="694" on="0"/>
        <pt x="371" y="644" on="0"/>
        <pt x="371" y="590" on="1"/>
        <pt x="371" y="576" on="0"/>
        <pt x="368" y="561" on="1"/>
        <pt x="364" y="538" on="0"/>
        <pt x="353" y="512" on="1"/>
        <pt x="337" y="467" on="0"/>
        <pt x="333" y="444" on="1"/>
        <pt x="331" y="430" on="0"/>
        <pt x="331" y="424" on="1"/>
        <pt x="331" y="401" on="0"/>
        <pt x="362" y="374" on="0"/>
        <pt x="395" y="368" on="1"/>
        <pt x="381" y="271" on="1"/>
        <pt x="295" y="257" on="0"/>
        <pt x="280" y="181" on="1"/>
        <pt x="275" y="156" on="0"/>
        <pt x="275" y="123" on="1"/>
        <pt x="273" y="86" on="0"/>
        <pt x="269" y="65" on="1"/>
        <pt x="256" y="0" on="0"/>
        <pt x="148" y="-53" on="0"/>
        <pt x="47" y="-64" on="1"/>
        <pt x="45" y="2" on="1"/>
      </contour>
    </TTGlyph>
    <TTGlyph name="bracketleft" xMin="76" yMin="-64" xMax="446" yMax="704">
      <contour>
        <pt x="308" y="632" on="1"/>
        <pt x="183" y="8" on="1"/>
        <pt x="307" y="8" on="1"/>
        <pt x="292" y="-64" on="1"/>
        <pt x="76" y="-64" on="1"/>
        <pt x="230" y="704" on="1"/>
        <pt x="446" y="704" on="1"/>
        <pt x="432" y="632" on="1"/>
      </contour>
    </TTGlyph>
    <TTGlyph name="bracketright" xMin="40" yMin="-64" xMax="410" yMax="704">
      <contour>
        <pt x="40" y="-64" on="1"/>
        <pt x="55" y="8" on="1"/>
        <pt x="179" y="8" on="1"/>
        <pt x="304" y="632" on="1"/>
        <pt x="180" y="632" on="1"/>
        <pt x="194" y="704" on="1"/>
        <pt x="410" y="704" on="1"/>
        <pt x="256" y="-64" on="1"/>
      </contour>
    </TTGlyph>
    <TTGlyph name="breve" xMin="170" yMin="499" xMax="443" yMax="649">
      <component glyphName="uni0306" x="0" y="0" flags="0x400"/>
    </TTGlyph>
    <TTGlyph name="brokenbar" xMin="120" yMin="-64" xMax="366" yMax="704">
      <contour>
        <pt x="210" y="384" on="1"/>
        <pt x="274" y="704" on="1"/>
        <pt x="366" y="704" on="1"/>
        <pt x="302" y="384" on="1"/>
      </contour>
      <contour>
        <pt x="184" y="256" on="1"/>
        <pt x="276" y="256" on="1"/>
        <pt x="212" y="-64" on="1"/>
        <pt x="120" y="-64" on="1"/>
      </contour>
    </TTGlyph>
    <TTGlyph name="bullet" xMin="111" yMin="110" xMax="337" yMax="338">
      <contour>
        <pt x="285" y="338" on="0"/>
        <pt x="337" y="285" on="0"/>
        <pt x="337" y="242" on="1"/>
        <pt x="337" y="206" on="0"/>
        <pt x="301" y="146" on="0"/>
        <pt x="241" y="110" on="0"/>
        <pt x="207" y="110" on="1"/>
        <pt x="164" y="110" on="0"/>
        <pt x="111" y="164" on="0"/>
        <pt x="111" y="206" on="1"/>
        <pt x="111" y="241" on="0"/>
        <pt x="147" y="302" on="0"/>
        <pt x="207" y="338" on="0"/>
        <pt x="241" y="338" on="1"/>
      </contour>
    </TTGlyph>
    <TTGlyph name="c" xMin="37" yMin="-7" xMax="381" yMax="455">
      <contour>
        <pt x="37" y="-7" on="0"/>
        <pt x="37" y="144" on="1"/>
        <pt x="37" y="180" on="0"/>
        <pt x="47" y="232" on="1"/>
        <pt x="67" y="335" on="0"/>
        <pt x="170" y="455" on="0"/>
        <pt x="267" y="455" on="1"/>
        <pt x="329" y="455" on="0"/>
        <pt x="381" y="432" on="1"/>
        <pt x="358" y="368" on="1"/>
        <pt x="320" y="381" on="0"/>
        <pt x="277" y="381" on="1"/>
        <pt x="219" y="381" on="0"/>
        <pt x="158" y="308" on="0"/>
        <pt x="140" y="217" on="1"/>
        <pt x="130" y="170" on="0"/>
        <pt x="130" y="137" on="1"/>
        <pt x="130" y="99" on="0"/>
        <pt x="164" y="67" on="0"/>
        <pt x="203" y="67" on="1"/>
        <pt x="240" y="67" on="0"/>
        <pt x="295" y="83" on="1"/>
        <pt x="302" y="13" on="1"/>
        <pt x="250" y="-7" on="0"/>
        <pt x="186" y="-7" on="1"/>
      </contour>
    </TTGlyph>
    <TTGlyph name="cacute" xMin="37" yMin="-7" xMax="448" yMax="704">
      <component glyphName="c" x="0" y="0" flags="0x400"/>
      <component glyphName="acutecomb" x="-6" y="0" flags="0x400"/>
    </TTGlyph>
    <TTGlyph name="caron" xMin="162" yMin="509" xMax="459" yMax="650">
      <component glyphName="uni030C" x="0" y="0" flags="0x400"/>
    </TTGlyph>
    <TTGlyph name="carriagereturn" xMin="-5" yMin="44" xMax="433" yMax="448">
      <contour>
        <pt x="222" y="84" on="1"/>
        <pt x="179" y="44" on="1"/>
        <pt x="-5" y="198" on="1"/>
        <pt x="-5" y="250" on="1"/>
        <pt x="179" y="404" on="1"/>
        <pt x="222" y="361" on="1"/>
        <pt x="142" y="266" on="1"/>
        <pt x="345" y="266" on="1"/>
        <pt x="345" y="448" on="1"/>
        <pt x="433" y="448" on="1"/>
        <pt x="433" y="182" on="1"/>
        <pt x="142" y="182" on="1"/>
      </contour>
    </TTGlyph>
    <TTGlyph name="ccaron" xMin="37" yMin="-7" xMax="453" yMax="650">
      <component glyphName="c" x="0" y="0" flags="0x400"/>
      <component glyphName="uni030C" x="-6" y="0" flags="0x400"/>
    </TTGlyph>
    <TTGlyph name="ccedilla" xMin="0" yMin="-192" xMax="381" yMax="455">
      <component glyphName="c" x="0" y="0" flags="0x400"/>
      <component glyphName="uni0327" x="-48" y="0" flags="0x400"/>
    </TTGlyph>
    <TTGlyph name="ccircumflex" xMin="37" yMin="-7" xMax="422" yMax="650">
      <component glyphName="c" x="0" y="0" flags="0x400"/>
      <component glyphName="uni0302" x="-6" y="0" flags="0x400"/>
    </TTGlyph>
    <TTGlyph name="cdotaccent" xMin="37" yMin="-7" xMax="381" yMax="654">
      <component glyphName="c" x="0" y="0" flags="0x400"/>
      <component glyphName="uni0307" x="-6" y="0" flags="0x400"/>
    </TTGlyph>
    <TTGlyph name="cedilla" xMin="48" yMin="-192" xMax="283" yMax="14">
      <component glyphName="uni0327" x="0" y="0" flags="0x400"/>
    </TTGlyph>
    <TTGlyph name="cent" xMin="54" yMin="-64" xMax="419" yMax="640">
      <contour>
        <pt x="354" y="445" on="0"/>
        <pt x="305" y="445" on="1"/>
        <pt x="241" y="445" on="0"/>
        <pt x="174" y="372" on="0"/>
        <pt x="156" y="281" on="1"/>
        <pt x="147" y="236" on="0"/>
        <pt x="147" y="206" on="1"/>
        <pt x="147" y="165" on="0"/>
        <pt x="186" y="131" on="0"/>
        <pt x="231" y="131" on="1"/>
        <pt x="273" y="131" on="0"/>
        <pt x="333" y="147" on="1"/>
        <pt x="340" y="77" on="1"/>
        <pt x="288" y="60" on="0"/>
        <pt x="233" y="58" on="1"/>
        <pt x="209" y="-64" on="1"/>
        <pt x="125" y="-64" on="1"/>
        <pt x="151" y="65" on="1"/>
        <pt x="54" y="92" on="0"/>
        <pt x="54" y="212" on="1"/>
        <pt x="54" y="253" on="0"/>
        <pt x="63" y="296" on="1"/>
        <pt x="100" y="485" on="0"/>
        <pt x="240" y="514" on="1"/>
        <pt x="265" y="640" on="1"/>
        <pt x="349" y="640" on="1"/>
        <pt x="324" y="518" on="1"/>
        <pt x="376" y="513" on="0"/>
        <pt x="419" y="496" on="1"/>
        <pt x="396" y="432" on="1"/>
      </contour>
    </TTGlyph>
    <TTGlyph name="chi" xMin="-65" yMin="-192" xMax="452" yMax="448">
      <contour>
        <pt x="452" y="448" on="1"/>
        <pt x="260" y="152" on="1"/>
        <pt x="293" y="103" on="0"/>
        <pt x="323" y="-3" on="0"/>
        <pt x="323" y="-73" on="1"/>
        <pt x="323" y="-120" on="0"/>
        <pt x="315" y="-192" on="1"/>
        <pt x="222" y="-192" on="1"/>
        <pt x="232" y="-102" on="0"/>
        <pt x="232" y="-57" on="1"/>
        <pt x="232" y="20" on="0"/>
        <pt x="209" y="73" on="1"/>
        <pt x="37" y="-192" on="1"/>
        <pt x="-65" y="-192" on="1"/>
        <pt x="153" y="144" on="1"/>
        <pt x="117" y="210" on="0"/>
        <pt x="88" y="329" on="0"/>
        <pt x="88" y="411" on="1"/>
        <pt x="89" y="448" on="1"/>
        <pt x="182" y="448" on="1"/>
        <pt x="181" y="430" on="0"/>
        <pt x="181" y="397" on="1"/>
        <pt x="181" y="344" on="0"/>
        <pt x="193" y="265" on="0"/>
        <pt x="207" y="228" on="1"/>
        <pt x="350" y="448" on="1"/>
      </contour>
    </TTGlyph>
    <TTGlyph name="circle" xMin="54" yMin="120" xMax="394" yMax="456">
      <contour>
        <pt x="177" y="120" on="0"/>
        <pt x="99" y="164" on="0"/>
        <pt x="54" y="241" on="0"/>
        <pt x="54" y="288" on="1"/>
        <pt x="54" y="335" on="0"/>
        <pt x="99" y="412" on="0"/>
        <pt x="177" y="456" on="0"/>
        <pt x="224" y="456" on="1"/>
        <pt x="271" y="456" on="0"/>
        <pt x="349" y="412" on="0"/>
        <pt x="394" y="335" on="0"/>
        <pt x="394" y="288" on="1"/>
        <pt x="394" y="241" on="0"/>
        <pt x="349" y="164" on="0"/>
        <pt x="271" y="120" on="0"/>
        <pt x="224" y="120" on="1"/>
      </contour>
      <contour>
        <pt x="124" y="244" on="0"/>
        <pt x="181" y="184" on="0"/>
        <pt x="224" y="184" on="1"/>
        <pt x="267" y="184" on="0"/>
        <pt x="324" y="244" on="0"/>
        <pt x="324" y="288" on="1"/>
        <pt x="324" y="332" on="0"/>
        <pt x="267" y="392" on="0"/>
        <pt x="224" y="392" on="1"/>
        <pt x="181" y="392" on="0"/>
        <pt x="124" y="332" on="0"/>
        <pt x="124" y="288" on="1"/>
      </contour>
    </TTGlyph>
    <TTGlyph name="circumflex" xMin="131" yMin="509" xMax="428" yMax="650">
      <component glyphName="uni0302" x="0" y="0" flags="0x400"/>
    </TTGlyph>
    <TTGlyph name="club" xMin="32" yMin="64" xMax="416" yMax="512">
      <contour>
        <pt x="416" y="384" on="1"/>
        <pt x="378" y="192" on="1"/>
        <pt x="314" y="192" on="1"/>
        <pt x="326" y="256" on="1"/>
        <pt x="262" y="256" on="1"/>
        <pt x="237" y="128" on="1"/>
        <pt x="365" y="128" on="1"/>
        <pt x="352" y="64" on="1"/>
        <pt x="32" y="64" on="1"/>
        <pt x="45" y="128" on="1"/>
        <pt x="173" y="128" on="1"/>
        <pt x="198" y="256" on="1"/>
        <pt x="134" y="256" on="1"/>
        <pt x="122" y="192" on="1"/>
        <pt x="58" y="192" on="1"/>
        <pt x="96" y="384" on="1"/>
        <pt x="160" y="384" on="1"/>
        <pt x="147" y="320" on="1"/>
        <pt x="211" y="320" on="1"/>
        <pt x="237" y="448" on="1"/>
        <pt x="173" y="448" on="1"/>
        <pt x="186" y="512" on="1"/>
        <pt x="378" y="512" on="1"/>
        <pt x="365" y="448" on="1"/>
        <pt x="301" y="448" on="1"/>
        <pt x="275" y="320" on="1"/>
        <pt x="339" y="320" on="1"/>
        <pt x="352" y="384" on="1"/>
      </contour>
    </TTGlyph>
    <TTGlyph name="colon" xMin="22" yMin="-10" xMax="235" yMax="458">
      <contour>
        <pt x="58" y="-10" on="0"/>
        <pt x="22" y="22" on="0"/>
        <pt x="22" y="51" on="1"/>
        <pt x="22" y="92" on="0"/>
        <pt x="71" y="138" on="0"/>
        <pt x="105" y="138" on="1"/>
        <pt x="134" y="138" on="0"/>
        <pt x="171" y="105" on="0"/>
        <pt x="171" y="76" on="1"/>
        <pt x="171" y="35" on="0"/>
        <pt x="122" y="-10" on="0"/>
        <pt x="87" y="-10" on="1"/>
      </contour>
      <contour>
        <pt x="86" y="412" on="0"/>
        <pt x="135" y="458" on="0"/>
        <pt x="169" y="458" on="1"/>
        <pt x="198" y="458" on="0"/>
        <pt x="235" y="425" on="0"/>
        <pt x="235" y="396" on="1"/>
        <pt x="235" y="355" on="0"/>
        <pt x="186" y="310" on="0"/>
        <pt x="151" y="310" on="1"/>
        <pt x="122" y="310" on="0"/>
        <pt x="86" y="342" on="0"/>
        <pt x="86" y="371" on="1"/>
      </contour>
    </TTGlyph>
    <TTGlyph name="colon.alt" xMin="35" yMin="54" xMax="248" yMax="522">
      <component glyphName="colon" x="13" y="64" flags="0x404"/>
    </TTGlyph>
    <TTGlyph name="colonmonetary" xMin="53" yMin="-128" xMax="467" yMax="704">
      <contour>
        <pt x="225" y="461" on="1"/>
        <pt x="205" y="434" on="0"/>
        <pt x="178" y="349" on="0"/>
        <pt x="164" y="280" on="1"/>
        <pt x="145" y="185" on="0"/>
        <pt x="145" y="149" on="1"/>
        <pt x="145" y="103" on="0"/>
        <pt x="192" y="63" on="0"/>
        <pt x="251" y="63" on="1"/>
        <pt x="293" y="63" on="0"/>
        <pt x="342" y="75" on="1"/>
        <pt x="348" y="6" on="1"/>
        <pt x="309" y="-4" on="0"/>
        <pt x="274" y="-7" on="1"/>
        <pt x="242" y="-128" on="1"/>
        <pt x="176" y="-128" on="1"/>
        <pt x="208" y="-8" on="1"/>
        <pt x="183" y="-6" on="0"/>
        <pt x="166" y="-2" on="1"/>
        <pt x="132" y="-128" on="1"/>
        <pt x="66" y="-128" on="1"/>
        <pt x="106" y="23" on="1"/>
        <pt x="79" y="43" on="0"/>
        <pt x="53" y="111" on="0"/>
        <pt x="53" y="161" on="1"/>
        <pt x="53" y="212" on="0"/>
        <pt x="69" y="295" on="1"/>
        <pt x="95" y="423" on="0"/>
        <pt x="182" y="554" on="0"/>
        <pt x="256" y="573" on="1"/>
        <pt x="291" y="704" on="1"/>
        <pt x="357" y="704" on="1"/>
        <pt x="324" y="583" on="1"/>
        <pt x="342" y="583" on="1"/>
        <pt x="359" y="583" on="0"/>
        <pt x="368" y="582" on="1"/>
        <pt x="401" y="704" on="1"/>
        <pt x="467" y="704" on="1"/>
        <pt x="432" y="573" on="1"/>
        <pt x="444" y="571" on="0"/>
        <pt x="450" y="569" on="1"/>
        <pt x="428" y="503" on="1"/>
        <pt x="414" y="506" on="1"/>
        <pt x="357" y="296" on="1"/>
        <pt x="291" y="296" on="1"/>
        <pt x="349" y="511" on="1"/>
        <pt x="321" y="511" on="0"/>
        <pt x="304" y="507" on="1"/>
        <pt x="247" y="296" on="1"/>
        <pt x="181" y="296" on="1"/>
      </contour>
    </TTGlyph>
    <TTGlyph name="comma" xMin="3" yMin="-143" xMax="169" yMax="136">
      <contour>
        <pt x="56" y="-45" on="0"/>
        <pt x="75" y="-5" on="1"/>
        <pt x="51" y="-5" on="0"/>
        <pt x="22" y="25" on="0"/>
        <pt x="22" y="50" on="1"/>
        <pt x="22" y="89" on="0"/>
        <pt x="70" y="136" on="0"/>
        <pt x="103" y="136" on="1"/>
        <pt x="132" y="136" on="0"/>
        <pt x="169" y="103" on="0"/>
        <pt x="169" y="68" on="1"/>
        <pt x="169" y="59" on="0"/>
        <pt x="165" y="35" on="1"/>
        <pt x="155" y="-13" on="0"/>
        <pt x="92" y="-105" on="0"/>
        <pt x="47" y="-143" on="1"/>
        <pt x="3" y="-98" on="1"/>
      </contour>
    </TTGlyph>
    <TTGlyph name="copyright" xMin="5" yMin="7" xMax="456" yMax="505">
      <contour>
        <pt x="137" y="7" on="0"/>
        <pt x="54" y="51" on="0"/>
        <pt x="5" y="137" on="0"/>
        <pt x="5" y="198" on="1"/>
        <pt x="5" y="230" on="0"/>
        <pt x="12" y="264" on="1"/>
        <pt x="28" y="342" on="0"/>
        <pt x="110" y="451" on="0"/>
        <pt x="219" y="505" on="0"/>
        <pt x="275" y="505" on="1"/>
        <pt x="325" y="505" on="0"/>
        <pt x="407" y="462" on="0"/>
        <pt x="456" y="377" on="0"/>
        <pt x="456" y="317" on="1"/>
        <pt x="456" y="283" on="0"/>
        <pt x="449" y="249" on="1"/>
        <pt x="434" y="172" on="0"/>
        <pt x="351" y="62" on="0"/>
        <pt x="242" y="7" on="0"/>
        <pt x="186" y="7" on="1"/>
      </contour>
      <contour>
        <pt x="64" y="218" on="0"/>
        <pt x="64" y="192" on="1"/>
        <pt x="64" y="130" on="0"/>
        <pt x="128" y="63" on="0"/>
        <pt x="186" y="63" on="1"/>
        <pt x="261" y="63" on="0"/>
        <pt x="372" y="171" on="0"/>
        <pt x="391" y="264" on="1"/>
        <pt x="397" y="296" on="0"/>
        <pt x="397" y="321" on="1"/>
        <pt x="397" y="382" on="0"/>
        <pt x="333" y="449" on="0"/>
        <pt x="275" y="449" on="1"/>
        <pt x="199" y="449" on="0"/>
        <pt x="89" y="342" on="0"/>
        <pt x="70" y="249" on="1"/>
      </contour>
      <contour>
        <pt x="125" y="325" on="0"/>
        <pt x="197" y="397" on="0"/>
        <pt x="261" y="397" on="1"/>
        <pt x="306" y="397" on="0"/>
        <pt x="349" y="380" on="1"/>
        <pt x="329" y="333" on="1"/>
        <pt x="302" y="342" on="0"/>
        <pt x="271" y="342" on="1"/>
        <pt x="236" y="342" on="0"/>
        <pt x="197" y="301" on="0"/>
        <pt x="187" y="252" on="1"/>
        <pt x="182" y="227" on="0"/>
        <pt x="182" y="215" on="1"/>
        <pt x="182" y="194" on="0"/>
        <pt x="203" y="176" on="0"/>
        <pt x="227" y="176" on="1"/>
        <pt x="252" y="176" on="0"/>
        <pt x="296" y="187" on="1"/>
        <pt x="304" y="135" on="1"/>
        <pt x="258" y="120" on="0"/>
        <pt x="217" y="120" on="1"/>
        <pt x="162" y="120" on="0"/>
        <pt x="109" y="174" on="0"/>
        <pt x="109" y="221" on="1"/>
        <pt x="109" y="239" on="0"/>
        <pt x="114" y="266" on="1"/>
      </contour>
    </TTGlyph>
    <TTGlyph name="currency" xMin="13" yMin="54" xMax="460" yMax="522">
      <contour>
        <pt x="305" y="464" on="0"/>
        <pt x="340" y="449" on="1"/>
        <pt x="406" y="522" on="1"/>
        <pt x="460" y="478" on="1"/>
        <pt x="393" y="406" on="1"/>
        <pt x="422" y="369" on="0"/>
        <pt x="422" y="317" on="1"/>
        <pt x="422" y="297" on="0"/>
        <pt x="418" y="281" on="1"/>
        <pt x="411" y="247" on="0"/>
        <pt x="374" y="187" on="0"/>
        <pt x="347" y="164" on="1"/>
        <pt x="384" y="98" on="1"/>
        <pt x="316" y="54" on="1"/>
        <pt x="278" y="125" on="1"/>
        <pt x="241" y="112" on="0"/>
        <pt x="207" y="112" on="1"/>
        <pt x="166" y="112" on="0"/>
        <pt x="134" y="128" on="1"/>
        <pt x="66" y="54" on="1"/>
        <pt x="13" y="98" on="1"/>
        <pt x="79" y="170" on="1"/>
        <pt x="51" y="207" on="0"/>
        <pt x="51" y="259" on="1"/>
        <pt x="51" y="280" on="0"/>
        <pt x="55" y="296" on="1"/>
        <pt x="62" y="329" on="0"/>
        <pt x="99" y="389" on="0"/>
        <pt x="126" y="412" on="1"/>
        <pt x="90" y="478" on="1"/>
        <pt x="156" y="522" on="1"/>
        <pt x="194" y="452" on="1"/>
        <pt x="229" y="464" on="0"/>
        <pt x="266" y="464" on="1"/>
      </contour>
      <contour>
        <pt x="138" y="226" on="0"/>
        <pt x="177" y="184" on="0"/>
        <pt x="210" y="184" on="1"/>
        <pt x="242" y="184" on="0"/>
        <pt x="299" y="221" on="0"/>
        <pt x="335" y="283" on="0"/>
        <pt x="335" y="318" on="1"/>
        <pt x="335" y="350" on="0"/>
        <pt x="296" y="392" on="0"/>
        <pt x="263" y="392" on="1"/>
        <pt x="231" y="392" on="0"/>
        <pt x="174" y="355" on="0"/>
        <pt x="138" y="294" on="0"/>
        <pt x="138" y="259" on="1"/>
      </contour>
    </TTGlyph>
    <TTGlyph name="d" xMin="29" yMin="-8" xMax="476" yMax="640">
      <contour>
        <pt x="278" y="40" on="1"/>
        <pt x="229" y="-8" on="0"/>
        <pt x="164" y="-8" on="1"/>
        <pt x="103" y="-8" on="0"/>
        <pt x="70" y="26" on="1"/>
        <pt x="29" y="66" on="0"/>
        <pt x="29" y="150" on="1"/>
        <pt x="29" y="220" on="0"/>
        <pt x="76" y="357" on="0"/>
        <pt x="121" y="402" on="1"/>
        <pt x="175" y="456" on="0"/>
        <pt x="246" y="456" on="1"/>
        <pt x="307" y="456" on="0"/>
        <pt x="340" y="420" on="1"/>
        <pt x="384" y="640" on="1"/>
        <pt x="476" y="640" on="1"/>
        <pt x="361" y="65" on="1"/>
        <pt x="350" y="0" on="1"/>
        <pt x="276" y="0" on="1"/>
      </contour>
      <contour>
        <pt x="123" y="99" on="0"/>
        <pt x="142" y="80" on="1"/>
        <pt x="157" y="65" on="0"/>
        <pt x="185" y="65" on="1"/>
        <pt x="210" y="65" on="0"/>
        <pt x="260" y="90" on="0"/>
        <pt x="280" y="115" on="1"/>
        <pt x="325" y="343" on="1"/>
        <pt x="305" y="385" on="0"/>
        <pt x="257" y="385" on="1"/>
        <pt x="219" y="385" on="0"/>
        <pt x="190" y="356" on="1"/>
        <pt x="157" y="323" on="0"/>
        <pt x="123" y="202" on="0"/>
        <pt x="123" y="150" on="1"/>
      </contour>
    </TTGlyph>
    <TTGlyph name="dagger" xMin="92" yMin="0" xMax="437" yMax="640">
      <contour>
        <pt x="316" y="462" on="1"/>
        <pt x="437" y="462" on="1"/>
        <pt x="422" y="390" on="1"/>
        <pt x="301" y="390" on="1"/>
        <pt x="223" y="0" on="1"/>
        <pt x="135" y="0" on="1"/>
        <pt x="213" y="390" on="1"/>
        <pt x="92" y="390" on="1"/>
        <pt x="107" y="462" on="1"/>
        <pt x="228" y="462" on="1"/>
        <pt x="263" y="640" on="1"/>
        <pt x="351" y="640" on="1"/>
      </contour>
    </TTGlyph>
    <TTGlyph name="daggerdbl" xMin="50" yMin="0" xMax="437" yMax="640">
      <contour>
        <pt x="316" y="462" on="1"/>
        <pt x="437" y="462" on="1"/>
        <pt x="422" y="390" on="1"/>
        <pt x="301" y="390" on="1"/>
        <pt x="273" y="250" on="1"/>
        <pt x="394" y="250" on="1"/>
        <pt x="380" y="178" on="1"/>
        <pt x="259" y="178" on="1"/>
        <pt x="223" y="0" on="1"/>
        <pt x="135" y="0" on="1"/>
        <pt x="171" y="178" on="1"/>
        <pt x="50" y="178" on="1"/>
        <pt x="64" y="250" on="1"/>
        <pt x="185" y="250" on="1"/>
        <pt x="213" y="390" on="1"/>
        <pt x="92" y="390" on="1"/>
        <pt x="107" y="462" on="1"/>
        <pt x="228" y="462" on="1"/>
        <pt x="263" y="640" on="1"/>
        <pt x="351" y="640" on="1"/>
      </contour>
    </TTGlyph>
    <TTGlyph name="dcaron" xMin="29" yMin="-8" xMax="631" yMax="640">
      <component glyphName="d" x="0" y="0" flags="0x400"/>
      <component glyphName="uni030C.alt" x="101" y="0" flags="0x400"/>
    </TTGlyph>
    <TTGlyph name="dcroat" xMin="29" yMin="-8" xMax="512" yMax="640">
      <component glyphName="d" x="0" y="0" flags="0x400"/>
      <component glyphName="uni0335" x="148" y="310" flags="0x404"/>
    </TTGlyph>
    <TTGlyph name="degree" xMin="138" yMin="377" xMax="425" yMax="647">
      <contour>
        <pt x="359" y="647" on="0"/>
        <pt x="425" y="584" on="0"/>
        <pt x="425" y="535" on="1"/>
        <pt x="425" y="520" on="0"/>
        <pt x="422" y="505" on="1"/>
        <pt x="411" y="451" on="0"/>
        <pt x="321" y="377" on="0"/>
        <pt x="261" y="377" on="1"/>
        <pt x="204" y="377" on="0"/>
        <pt x="138" y="441" on="0"/>
        <pt x="138" y="491" on="1"/>
        <pt x="138" y="533" on="0"/>
        <pt x="181" y="604" on="0"/>
        <pt x="257" y="647" on="0"/>
        <pt x="303" y="647" on="1"/>
      </contour>
      <contour>
        <pt x="214" y="467" on="0"/>
        <pt x="237" y="441" on="0"/>
        <pt x="262" y="441" on="1"/>
        <pt x="296" y="441" on="0"/>
        <pt x="340" y="487" on="0"/>
        <pt x="347" y="520" on="1"/>
        <pt x="349" y="532" on="0"/>
        <pt x="349" y="538" on="1"/>
        <pt x="349" y="558" on="0"/>
        <pt x="326" y="583" on="0"/>
        <pt x="301" y="583" on="1"/>
        <pt x="262" y="583" on="0"/>
        <pt x="214" y="523" on="0"/>
        <pt x="214" y="488" on="1"/>
      </contour>
    </TTGlyph>
    <TTGlyph name="delta" xMin="32" yMin="-13" xMax="468" yMax="642">
      <contour>
        <pt x="109" y="-13" on="0"/>
        <pt x="32" y="68" on="0"/>
        <pt x="32" y="134" on="1"/>
        <pt x="32" y="154" on="0"/>
        <pt x="37" y="182" on="1"/>
        <pt x="50" y="250" on="0"/>
        <pt x="139" y="359" on="0"/>
        <pt x="207" y="394" on="1"/>
        <pt x="186" y="415" on="0"/>
        <pt x="163" y="457" on="0"/>
        <pt x="163" y="485" on="1"/>
        <pt x="163" y="500" on="0"/>
        <pt x="166" y="516" on="1"/>
        <pt x="177" y="572" on="0"/>
        <pt x="272" y="642" on="0"/>
        <pt x="357" y="642" on="1"/>
        <pt x="416" y="642" on="0"/>
        <pt x="468" y="633" on="1"/>
        <pt x="453" y="564" on="1"/>
        <pt x="404" y="570" on="0"/>
        <pt x="358" y="570" on="1"/>
        <pt x="310" y="570" on="0"/>
        <pt x="258" y="528" on="0"/>
        <pt x="258" y="497" on="1"/>
        <pt x="258" y="479" on="0"/>
        <pt x="271" y="463" on="1"/>
        <pt x="280" y="450" on="0"/>
        <pt x="307" y="427" on="1"/>
        <pt x="339" y="398" on="0"/>
        <pt x="353" y="380" on="1"/>
        <pt x="402" y="318" on="0"/>
        <pt x="402" y="244" on="1"/>
        <pt x="402" y="219" on="0"/>
        <pt x="396" y="189" on="1"/>
        <pt x="377" y="94" on="0"/>
        <pt x="261" y="-13" on="0"/>
        <pt x="177" y="-13" on="1"/>
      </contour>
      <contour>
        <pt x="126" y="148" on="0"/>
        <pt x="126" y="130" on="1"/>
        <pt x="126" y="96" on="0"/>
        <pt x="156" y="59" on="0"/>
        <pt x="185" y="59" on="1"/>
        <pt x="228" y="59" on="0"/>
        <pt x="290" y="128" on="0"/>
        <pt x="303" y="192" on="1"/>
        <pt x="308" y="220" on="0"/>
        <pt x="308" y="238" on="1"/>
        <pt x="308" y="273" on="0"/>
        <pt x="283" y="324" on="0"/>
        <pt x="261" y="346" on="1"/>
        <pt x="201" y="312" on="0"/>
        <pt x="142" y="231" on="0"/>
        <pt x="131" y="176" on="1"/>
      </contour>
    </TTGlyph>
    <TTGlyph name="diamond" xMin="71" yMin="80" xMax="395" yMax="456">
      <contour>
        <pt x="247" y="456" on="1"/>
        <pt x="291" y="456" on="1"/>
        <pt x="395" y="284" on="1"/>
        <pt x="391" y="252" on="1"/>
        <pt x="218" y="80" on="1"/>
        <pt x="174" y="80" on="1"/>
        <pt x="71" y="252" on="1"/>
        <pt x="75" y="284" on="1"/>
      </contour>
    </TTGlyph>
    <TTGlyph name="dieresis" xMin="153" yMin="523" xMax="441" yMax="653">
      <component glyphName="uni0308" x="0" y="0" flags="0x400"/>
    </TTGlyph>
    <TTGlyph name="dieresistonos" xMin="105" yMin="512" xMax="489" yMax="704">
      <contour>
        <pt x="389" y="704" on="1"/>
        <pt x="312" y="512" on="1"/>
        <pt x="232" y="512" on="1"/>
        <pt x="273" y="704" on="1"/>
      </contour>
      <contour>
        <pt x="119" y="653" on="0"/>
        <pt x="172" y="653" on="1"/>
        <pt x="193" y="653" on="0"/>
        <pt x="219" y="626" on="0"/>
        <pt x="219" y="602" on="1"/>
        <pt x="219" y="597" on="0"/>
        <pt x="217" y="585" on="1"/>
        <pt x="205" y="523" on="0"/>
        <pt x="152" y="523" on="1"/>
        <pt x="132" y="523" on="0"/>
        <pt x="105" y="549" on="0"/>
        <pt x="105" y="573" on="1"/>
        <pt x="105" y="578" on="0"/>
        <pt x="107" y="592" on="1"/>
      </contour>
      <contour>
        <pt x="389" y="653" on="0"/>
        <pt x="442" y="653" on="1"/>
        <pt x="463" y="653" on="0"/>
        <pt x="489" y="626" on="0"/>
        <pt x="489" y="602" on="1"/>
        <pt x="489" y="597" on="0"/>
        <pt x="487" y="585" on="1"/>
        <pt x="475" y="523" on="0"/>
        <pt x="422" y="523" on="1"/>
        <pt x="402" y="523" on="0"/>
        <pt x="375" y="549" on="0"/>
        <pt x="375" y="573" on="1"/>
        <pt x="375" y="578" on="0"/>
        <pt x="377" y="592" on="1"/>
      </contour>
    </TTGlyph>
    <TTGlyph name="divide" xMin="29" yMin="47" xMax="445" yMax="529">
      <contour>
        <pt x="45" y="328" on="1"/>
        <pt x="445" y="328" on="1"/>
        <pt x="429" y="248" on="1"/>
        <pt x="29" y="248" on="1"/>
      </contour>
      <contour>
        <pt x="129" y="149" on="0"/>
        <pt x="179" y="195" on="0"/>
        <pt x="213" y="195" on="1"/>
        <pt x="241" y="195" on="0"/>
        <pt x="278" y="162" on="0"/>
        <pt x="278" y="133" on="1"/>
        <pt x="278" y="92" on="0"/>
        <pt x="229" y="47" on="0"/>
        <pt x="195" y="47" on="1"/>
        <pt x="166" y="47" on="0"/>
        <pt x="129" y="80" on="0"/>
        <pt x="129" y="109" on="1"/>
      </contour>
      <contour>
        <pt x="196" y="483" on="0"/>
        <pt x="245" y="529" on="0"/>
        <pt x="279" y="529" on="1"/>
        <pt x="308" y="529" on="0"/>
        <pt x="345" y="496" on="0"/>
        <pt x="345" y="467" on="1"/>
        <pt x="345" y="426" on="0"/>
        <pt x="296" y="381" on="0"/>
        <pt x="261" y="381" on="1"/>
        <pt x="232" y="381" on="0"/>
        <pt x="196" y="413" on="0"/>
        <pt x="196" y="442" on="1"/>
      </contour>
    </TTGlyph>
    <TTGlyph name="dkshade" xMin="0" yMin="-192" xMax="384" yMax="832">
      <contour>
        <pt x="64" y="-128" on="1"/>
        <pt x="0" y="-128" on="1"/>
        <pt x="0" y="64" on="1"/>
        <pt x="64" y="64" on="1"/>
        <pt x="64" y="128" on="1"/>
        <pt x="0" y="128" on="1"/>
        <pt x="0" y="320" on="1"/>
        <pt x="64" y="320" on="1"/>
        <pt x="64" y="384" on="1"/>
        <pt x="0" y="384" on="1"/>
        <pt x="0" y="576" on="1"/>
        <pt x="64" y="576" on="1"/>
        <pt x="64" y="640" on="1"/>
        <pt x="0" y="640" on="1"/>
        <pt x="0" y="832" on="1"/>
        <pt x="384" y="832" on="1"/>
        <pt x="384" y="768" on="1"/>
        <pt x="320" y="768" on="1"/>
        <pt x="320" y="704" on="1"/>
        <pt x="384" y="704" on="1"/>
        <pt x="384" y="512" on="1"/>
        <pt x="320" y="512" on="1"/>
        <pt x="320" y="448" on="1"/>
        <pt x="384" y="448" on="1"/>
        <pt x="384" y="256" on="1"/>
        <pt x="320" y="256" on="1"/>
        <pt x="320" y="192" on="1"/>
        <pt x="384" y="192" on="1"/>
        <pt x="384" y="0" on="1"/>
        <pt x="320" y="0" on="1"/>
        <pt x="320" y="-64" on="1"/>
        <pt x="384" y="-64" on="1"/>
        <pt x="384" y="-192" on="1"/>
        <pt x="320" y="-192" on="1"/>
        <pt x="320" y="-128" on="1"/>
        <pt x="256" y="-128" on="1"/>
        <pt x="256" y="-192" on="1"/>
        <pt x="192" y="-192" on="1"/>
        <pt x="192" y="-128" on="1"/>
        <pt x="128" y="-128" on="1"/>
        <pt x="128" y="-192" on="1"/>
        <pt x="64" y="-192" on="1"/>
      </contour>
      <contour>
        <pt x="128" y="-64" on="1"/>
        <pt x="128" y="0" on="1"/>
        <pt x="64" y="0" on="1"/>
        <pt x="64" y="-64" on="1"/>
      </contour>
      <contour>
        <pt x="128" y="192" on="1"/>
        <pt x="128" y="256" on="1"/>
        <pt x="64" y="256" on="1"/>
        <pt x="64" y="192" on="1"/>
      </contour>
      <contour>
        <pt x="128" y="448" on="1"/>
        <pt x="128" y="512" on="1"/>
        <pt x="64" y="512" on="1"/>
        <pt x="64" y="448" on="1"/>
      </contour>
      <contour>
        <pt x="128" y="704" on="1"/>
        <pt x="128" y="768" on="1"/>
        <pt x="64" y="768" on="1"/>
        <pt x="64" y="704" on="1"/>
      </contour>
      <contour>
        <pt x="192" y="64" on="1"/>
        <pt x="192" y="128" on="1"/>
        <pt x="128" y="128" on="1"/>
        <pt x="128" y="64" on="1"/>
      </contour>
      <contour>
        <pt x="192" y="320" on="1"/>
        <pt x="192" y="384" on="1"/>
        <pt x="128" y="384" on="1"/>
        <pt x="128" y="320" on="1"/>
      </contour>
      <contour>
        <pt x="192" y="576" on="1"/>
        <pt x="192" y="640" on="1"/>
        <pt x="128" y="640" on="1"/>
        <pt x="128" y="576" on="1"/>
      </contour>
      <contour>
        <pt x="256" y="-64" on="1"/>
        <pt x="256" y="0" on="1"/>
        <pt x="192" y="0" on="1"/>
        <pt x="192" y="-64" on="1"/>
      </contour>
      <contour>
        <pt x="256" y="192" on="1"/>
        <pt x="256" y="256" on="1"/>
        <pt x="192" y="256" on="1"/>
        <pt x="192" y="192" on="1"/>
      </contour>
      <contour>
        <pt x="256" y="448" on="1"/>
        <pt x="256" y="512" on="1"/>
        <pt x="192" y="512" on="1"/>
        <pt x="192" y="448" on="1"/>
      </contour>
      <contour>
        <pt x="256" y="704" on="1"/>
        <pt x="256" y="768" on="1"/>
        <pt x="192" y="768" on="1"/>
        <pt x="192" y="704" on="1"/>
      </contour>
      <contour>
        <pt x="320" y="64" on="1"/>
        <pt x="320" y="128" on="1"/>
        <pt x="256" y="128" on="1"/>
        <pt x="256" y="64" on="1"/>
      </contour>
      <contour>
        <pt x="320" y="320" on="1"/>
        <pt x="320" y="384" on="1"/>
        <pt x="256" y="384" on="1"/>
        <pt x="256" y="320" on="1"/>
      </contour>
      <contour>
        <pt x="320" y="576" on="1"/>
        <pt x="320" y="640" on="1"/>
        <pt x="256" y="640" on="1"/>
        <pt x="256" y="576" on="1"/>
      </contour>
    </TTGlyph>
    <TTGlyph name="dnblock" xMin="-5" yMin="-197" xMax="453" yMax="325">
      <contour>
        <pt x="-5" y="-197" on="1"/>
        <pt x="-5" y="325" on="1"/>
        <pt x="453" y="325" on="1"/>
        <pt x="453" y="-197" on="1"/>
      </contour>
    </TTGlyph>
    <TTGlyph name="dollar" xMin="9" yMin="-128" xMax="446" yMax="704">
      <contour>
        <pt x="136" y="-7" on="1"/>
        <pt x="64" y="-2" on="0"/>
        <pt x="9" y="24" on="1"/>
        <pt x="32" y="89" on="1"/>
        <pt x="95" y="65" on="0"/>
        <pt x="161" y="65" on="1"/>
        <pt x="226" y="65" on="0"/>
        <pt x="288" y="106" on="0"/>
        <pt x="288" y="143" on="1"/>
        <pt x="288" y="170" on="0"/>
        <pt x="249" y="206" on="0"/>
        <pt x="208" y="230" on="1"/>
        <pt x="169" y="253" on="0"/>
        <pt x="123" y="289" on="0"/>
        <pt x="89" y="349" on="0"/>
        <pt x="89" y="391" on="1"/>
        <pt x="89" y="464" on="0"/>
        <pt x="172" y="563" on="0"/>
        <pt x="252" y="578" on="1"/>
        <pt x="278" y="704" on="1"/>
        <pt x="362" y="704" on="1"/>
        <pt x="338" y="584" on="1"/>
        <pt x="400" y="581" on="0"/>
        <pt x="446" y="564" on="1"/>
        <pt x="429" y="497" on="1"/>
        <pt x="382" y="511" on="0"/>
        <pt x="324" y="511" on="1"/>
        <pt x="254" y="511" on="0"/>
        <pt x="184" y="456" on="0"/>
        <pt x="184" y="404" on="1"/>
        <pt x="184" y="370" on="0"/>
        <pt x="227" y="328" on="0"/>
        <pt x="271" y="304" on="1"/>
        <pt x="308" y="282" on="0"/>
        <pt x="352" y="249" on="0"/>
        <pt x="383" y="194" on="0"/>
        <pt x="383" y="155" on="1"/>
        <pt x="383" y="92" on="0"/>
        <pt x="299" y="8" on="0"/>
        <pt x="220" y="-4" on="1"/>
        <pt x="196" y="-128" on="1"/>
        <pt x="112" y="-128" on="1"/>
      </contour>
    </TTGlyph>
    <TTGlyph name="dong" xMin="-21" yMin="-136" xMax="512" yMax="640">
      <component glyphName="dcroat" x="0" y="0" flags="0x400"/>
      <component glyphName="minus" x="-62" y="-384" flags="0x404"/>
    </TTGlyph>
    <TTGlyph name="dotaccent" xMin="121" yMin="526" xMax="250" yMax="654">
      <component glyphName="uni0307" x="-112" y="0" flags="0x400"/>
    </TTGlyph>
    <TTGlyph name="dotbelowcomb" xMin="91" yMin="-184" xMax="220" yMax="-56">
      <component glyphName="uni0307" x="-142" y="-710" flags="0x404"/>
    </TTGlyph>
    <TTGlyph name="dotlessi" xMin="56" yMin="0" xMax="239" yMax="448">
      <contour>
        <pt x="131" y="375" on="1"/>
        <pt x="56" y="381" on="1"/>
        <pt x="70" y="448" on="1"/>
        <pt x="239" y="448" on="1"/>
        <pt x="149" y="0" on="1"/>
        <pt x="56" y="0" on="1"/>
      </contour>
    </TTGlyph>
    <TTGlyph name="dotlessi.cv02" xMin="21" yMin="0" xMax="203" yMax="448">
      <contour>
        <pt x="111" y="448" on="1"/>
        <pt x="203" y="448" on="1"/>
        <pt x="113" y="0" on="1"/>
        <pt x="21" y="0" on="1"/>
      </contour>
    </TTGlyph>
    <TTGlyph name="dotmath" xMin="54" yMin="214" xMax="203" yMax="362">
      <component glyphName="period" x="32" y="224" flags="0x404"/>
    </TTGlyph>
    <TTGlyph name="e" xMin="32" yMin="-13" xMax="395" yMax="461">
      <contour>
        <pt x="62" y="335" on="0"/>
        <pt x="168" y="461" on="0"/>
        <pt x="255" y="461" on="1"/>
        <pt x="324" y="461" on="0"/>
        <pt x="395" y="380" on="0"/>
        <pt x="395" y="309" on="1"/>
        <pt x="395" y="257" on="0"/>
        <pt x="375" y="191" on="1"/>
        <pt x="130" y="194" on="1"/>
        <pt x="124" y="160" on="0"/>
        <pt x="124" y="136" on="1"/>
        <pt x="124" y="94" on="0"/>
        <pt x="162" y="59" on="0"/>
        <pt x="203" y="59" on="1"/>
        <pt x="249" y="59" on="0"/>
        <pt x="319" y="83" on="1"/>
        <pt x="327" y="15" on="1"/>
        <pt x="251" y="-13" on="0"/>
        <pt x="189" y="-13" on="1"/>
        <pt x="107" y="-13" on="0"/>
        <pt x="32" y="71" on="0"/>
        <pt x="32" y="145" on="1"/>
        <pt x="32" y="180" on="0"/>
        <pt x="42" y="232" on="1"/>
      </contour>
      <contour>
        <pt x="297" y="265" on="1"/>
        <pt x="304" y="297" on="0"/>
        <pt x="304" y="324" on="1"/>
        <pt x="304" y="358" on="0"/>
        <pt x="278" y="389" on="0"/>
        <pt x="252" y="389" on="1"/>
        <pt x="215" y="389" on="0"/>
        <pt x="163" y="330" on="0"/>
        <pt x="145" y="265" on="1"/>
      </contour>
    </TTGlyph>
    <TTGlyph name="eacute" xMin="32" yMin="-13" xMax="443" yMax="704">
      <component glyphName="e" x="0" y="0" flags="0x400"/>
      <component glyphName="acutecomb" x="-11" y="0" flags="0x400"/>
    </TTGlyph>
    <TTGlyph name="ebreve" xMin="32" yMin="-13" xMax="432" yMax="649">
      <component glyphName="e" x="0" y="0" flags="0x400"/>
      <component glyphName="uni0306" x="-11" y="0" flags="0x400"/>
    </TTGlyph>
    <TTGlyph name="ecaron" xMin="32" yMin="-13" xMax="448" yMax="650">
      <component glyphName="e" x="0" y="0" flags="0x400"/>
      <component glyphName="uni030C" x="-11" y="0" flags="0x400"/>
    </TTGlyph>
    <TTGlyph name="ecircumflex" xMin="32" yMin="-13" xMax="417" yMax="650">
      <component glyphName="e" x="0" y="0" flags="0x400"/>
      <component glyphName="uni0302" x="-11" y="0" flags="0x400"/>
    </TTGlyph>
    <TTGlyph name="edieresis" xMin="32" yMin="-13" xMax="430" yMax="653">
      <component glyphName="e" x="0" y="0" flags="0x400"/>
      <component glyphName="uni0308" x="-11" y="0" flags="0x400"/>
    </TTGlyph>
    <TTGlyph name="edotaccent" xMin="32" yMin="-13" xMax="395" yMax="654">
      <component glyphName="e" x="0" y="0" flags="0x400"/>
      <component glyphName="uni0307" x="-11" y="0" flags="0x400"/>
    </TTGlyph>
    <TTGlyph name="egrave" xMin="32" yMin="-13" xMax="395" yMax="704">
      <component glyphName="e" x="0" y="0" flags="0x400"/>
      <component glyphName="gravecomb" x="-11" y="0" flags="0x400"/>
    </TTGlyph>
    <TTGlyph name="eight" xMin="8" yMin="-11" xMax="441" yMax="586">
      <contour>
        <pt x="92" y="-11" on="0"/>
        <pt x="8" y="58" on="0"/>
        <pt x="8" y="114" on="1"/>
        <pt x="8" y="129" on="0"/>
        <pt x="11" y="145" on="1"/>
        <pt x="30" y="238" on="0"/>
        <pt x="129" y="302" on="1"/>
        <pt x="90" y="344" on="0"/>
        <pt x="90" y="393" on="1"/>
        <pt x="90" y="404" on="0"/>
        <pt x="94" y="426" on="1"/>
        <pt x="103" y="472" on="0"/>
        <pt x="163" y="545" on="0"/>
        <pt x="252" y="586" on="0"/>
        <pt x="302" y="586" on="1"/>
        <pt x="366" y="586" on="0"/>
        <pt x="441" y="524" on="0"/>
        <pt x="441" y="469" on="1"/>
        <pt x="441" y="459" on="0"/>
        <pt x="437" y="435" on="1"/>
        <pt x="430" y="396" on="0"/>
        <pt x="379" y="316" on="0"/>
        <pt x="336" y="284" on="1"/>
        <pt x="373" y="259" on="0"/>
        <pt x="408" y="208" on="0"/>
        <pt x="408" y="175" on="1"/>
        <pt x="408" y="129" on="0"/>
        <pt x="348" y="43" on="0"/>
        <pt x="240" y="-11" on="0"/>
        <pt x="172" y="-11" on="1"/>
      </contour>
      <contour>
        <pt x="107" y="155" on="0"/>
        <pt x="107" y="140" on="1"/>
        <pt x="107" y="105" on="0"/>
        <pt x="151" y="61" on="0"/>
        <pt x="197" y="61" on="1"/>
        <pt x="245" y="61" on="0"/>
        <pt x="303" y="106" on="0"/>
        <pt x="308" y="132" on="1"/>
        <pt x="310" y="144" on="0"/>
        <pt x="310" y="148" on="1"/>
        <pt x="310" y="173" on="0"/>
        <pt x="262" y="217" on="0"/>
        <pt x="200" y="249" on="1"/>
        <pt x="195" y="252" on="0"/>
        <pt x="184" y="258" on="0"/>
        <pt x="177" y="263" on="1"/>
        <pt x="145" y="241" on="0"/>
        <pt x="115" y="192" on="0"/>
        <pt x="109" y="163" on="1"/>
      </contour>
      <contour>
        <pt x="187" y="390" on="0"/>
        <pt x="228" y="345" on="0"/>
        <pt x="280" y="317" on="1"/>
        <pt x="328" y="359" on="0"/>
        <pt x="340" y="420" on="1"/>
        <pt x="343" y="434" on="0"/>
        <pt x="343" y="446" on="1"/>
        <pt x="343" y="476" on="0"/>
        <pt x="310" y="514" on="0"/>
        <pt x="277" y="514" on="1"/>
        <pt x="231" y="514" on="0"/>
        <pt x="187" y="453" on="0"/>
        <pt x="187" y="416" on="1"/>
      </contour>
    </TTGlyph>
    <TTGlyph name="eight.dnom" xMin="-30" yMin="-198" xMax="238" yMax="134">
      <component glyphName="uni2078" x="-102" y="-512" flags="0x404"/>
    </TTGlyph>
    <TTGlyph name="eight.numr" xMin="72" yMin="314" xMax="340" yMax="646">
      <component glyphName="uni2078" x="0" y="0" flags="0x400"/>
    </TTGlyph>
    <TTGlyph name="eight.osf" xMin="8" yMin="-11" xMax="441" yMax="586">
      <component glyphName="eight" x="0" y="0" flags="0x400"/>
    </TTGlyph>
    <TTGlyph name="ellipsis" xMin="22" yMin="-10" xMax="683" yMax="138">
      <component glyphName="period" x="0" y="0" flags="0x400"/>
      <component glyphName="period" x="256" y="0" flags="0x400"/>
      <component glyphName="period" x="512" y="0" flags="0x400"/>
    </TTGlyph>
    <TTGlyph name="emacron" xMin="32" yMin="-13" xMax="421" yMax="629">
      <component glyphName="e" x="0" y="0" flags="0x400"/>
      <component glyphName="uni0304" x="-11" y="0" flags="0x400"/>
    </TTGlyph>
    <TTGlyph name="emdash" xMin="-5" yMin="248" xMax="927" yMax="328">
      <contour>
        <pt x="-5" y="248" on="1"/>
        <pt x="11" y="328" on="1"/>
        <pt x="927" y="328" on="1"/>
        <pt x="911" y="248" on="1"/>
      </contour>
    </TTGlyph>
    <TTGlyph name="emptyset" xMin="-15" yMin="-17" xMax="463" yMax="593">
      <contour>
        <pt x="177" y="52" on="0"/>
        <pt x="134" y="68" on="1"/>
        <pt x="79" y="-17" on="1"/>
        <pt x="2" y="18" on="1"/>
        <pt x="62" y="111" on="1"/>
        <pt x="26" y="143" on="0"/>
        <pt x="-15" y="235" on="0"/>
        <pt x="-15" y="288" on="1"/>
        <pt x="-15" y="355" on="0"/>
        <pt x="47" y="463" on="0"/>
        <pt x="156" y="525" on="0"/>
        <pt x="224" y="525" on="1"/>
        <pt x="276" y="525" on="0"/>
        <pt x="319" y="507" on="1"/>
        <pt x="375" y="593" on="1"/>
        <pt x="451" y="558" on="1"/>
        <pt x="389" y="463" on="1"/>
        <pt x="424" y="430" on="0"/>
        <pt x="463" y="340" on="0"/>
        <pt x="463" y="288" on="1"/>
        <pt x="463" y="221" on="0"/>
        <pt x="401" y="114" on="0"/>
        <pt x="292" y="52" on="0"/>
        <pt x="224" y="52" on="1"/>
      </contour>
      <contour>
        <pt x="74" y="222" on="0"/>
        <pt x="106" y="178" on="1"/>
        <pt x="280" y="447" on="1"/>
        <pt x="256" y="457" on="0"/>
        <pt x="224" y="457" on="1"/>
        <pt x="157" y="457" on="0"/>
        <pt x="74" y="364" on="0"/>
        <pt x="74" y="288" on="1"/>
      </contour>
      <contour>
        <pt x="199" y="120" on="0"/>
        <pt x="224" y="120" on="1"/>
        <pt x="291" y="120" on="0"/>
        <pt x="374" y="213" on="0"/>
        <pt x="374" y="288" on="1"/>
        <pt x="374" y="351" on="0"/>
        <pt x="345" y="394" on="1"/>
        <pt x="173" y="128" on="1"/>
      </contour>
    </TTGlyph>
    <TTGlyph name="endash" xMin="30" yMin="248" xMax="444" yMax="328">
      <contour>
        <pt x="30" y="248" on="1"/>
        <pt x="46" y="328" on="1"/>
        <pt x="444" y="328" on="1"/>
        <pt x="428" y="248" on="1"/>
      </contour>
    </TTGlyph>
    <TTGlyph name="eng" xMin="10" yMin="-197" xMax="414" yMax="452">
      <contour>
        <pt x="87" y="384" on="1"/>
        <pt x="98" y="448" on="1"/>
        <pt x="181" y="448" on="1"/>
        <pt x="177" y="403" on="1"/>
        <pt x="243" y="452" on="0"/>
        <pt x="305" y="452" on="1"/>
        <pt x="356" y="452" on="0"/>
        <pt x="414" y="400" on="0"/>
        <pt x="414" y="349" on="1"/>
        <pt x="414" y="332" on="0"/>
        <pt x="409" y="305" on="1"/>
        <pt x="346" y="-10" on="1"/>
        <pt x="331" y="-84" on="0"/>
        <pt x="260" y="-171" on="0"/>
        <pt x="187" y="-197" on="1"/>
        <pt x="162" y="-124" on="1"/>
        <pt x="204" y="-107" on="0"/>
        <pt x="244" y="-58" on="0"/>
        <pt x="254" y="-10" on="1"/>
        <pt x="256" y="0" on="1"/>
        <pt x="318" y="307" on="1"/>
        <pt x="321" y="322" on="0"/>
        <pt x="321" y="334" on="1"/>
        <pt x="321" y="357" on="0"/>
        <pt x="299" y="378" on="0"/>
        <pt x="276" y="378" on="1"/>
        <pt x="252" y="378" on="0"/>
        <pt x="195" y="350" on="0"/>
        <pt x="168" y="327" on="1"/>
        <pt x="102" y="0" on="1"/>
        <pt x="10" y="0" on="1"/>
      </contour>
    </TTGlyph>
    <TTGlyph name="eogonek" xMin="32" yMin="-197" xMax="395" yMax="461">
      <component glyphName="e" x="0" y="0" flags="0x400"/>
      <component glyphName="uni0328" x="-65" y="0" flags="0x400"/>
    </TTGlyph>
    <TTGlyph name="epsilon" xMin="18" yMin="-7" xMax="393" yMax="455">
      <contour>
        <pt x="95" y="-7" on="0"/>
        <pt x="18" y="52" on="0"/>
        <pt x="18" y="99" on="1"/>
        <pt x="18" y="112" on="0"/>
        <pt x="21" y="124" on="1"/>
        <pt x="37" y="204" on="0"/>
        <pt x="120" y="233" on="1"/>
        <pt x="67" y="257" on="0"/>
        <pt x="67" y="310" on="1"/>
        <pt x="67" y="324" on="0"/>
        <pt x="69" y="332" on="1"/>
        <pt x="79" y="385" on="0"/>
        <pt x="175" y="455" on="0"/>
        <pt x="267" y="455" on="1"/>
        <pt x="336" y="455" on="0"/>
        <pt x="393" y="432" on="1"/>
        <pt x="370" y="369" on="1"/>
        <pt x="323" y="383" on="0"/>
        <pt x="268" y="383" on="1"/>
        <pt x="215" y="383" on="0"/>
        <pt x="159" y="341" on="0"/>
        <pt x="159" y="306" on="1"/>
        <pt x="159" y="267" on="0"/>
        <pt x="225" y="267" on="1"/>
        <pt x="311" y="267" on="1"/>
        <pt x="297" y="197" on="1"/>
        <pt x="217" y="197" on="1"/>
        <pt x="169" y="197" on="0"/>
        <pt x="115" y="147" on="0"/>
        <pt x="115" y="115" on="1"/>
        <pt x="115" y="89" on="0"/>
        <pt x="156" y="65" on="0"/>
        <pt x="202" y="65" on="1"/>
        <pt x="232" y="65" on="0"/>
        <pt x="285" y="74" on="0"/>
        <pt x="318" y="83" on="1"/>
        <pt x="327" y="15" on="1"/>
        <pt x="257" y="-7" on="0"/>
        <pt x="179" y="-7" on="1"/>
      </contour>
    </TTGlyph>
    <TTGlyph name="epsilontonos" xMin="18" yMin="-7" xMax="393" yMax="704">
      <component glyphName="epsilon" x="0" y="0" flags="0x400"/>
      <component glyphName="tonos" x="-14" y="0" flags="0x400"/>
    </TTGlyph>
    <TTGlyph name="equal" xMin="20" yMin="164" xMax="454" yMax="412">
      <contour>
        <pt x="20" y="164" on="1"/>
        <pt x="36" y="244" on="1"/>
        <pt x="420" y="244" on="1"/>
        <pt x="404" y="164" on="1"/>
      </contour>
      <contour>
        <pt x="70" y="412" on="1"/>
        <pt x="454" y="412" on="1"/>
        <pt x="438" y="332" on="1"/>
        <pt x="54" y="332" on="1"/>
      </contour>
    </TTGlyph>
    <TTGlyph name="equivalence" xMin="7" yMin="98" xMax="467" yMax="478">
      <contour>
        <pt x="7" y="98" on="1"/>
        <pt x="23" y="178" on="1"/>
        <pt x="407" y="178" on="1"/>
        <pt x="391" y="98" on="1"/>
      </contour>
      <contour>
        <pt x="53" y="328" on="1"/>
        <pt x="437" y="328" on="1"/>
        <pt x="421" y="248" on="1"/>
        <pt x="37" y="248" on="1"/>
      </contour>
      <contour>
        <pt x="83" y="478" on="1"/>
        <pt x="467" y="478" on="1"/>
        <pt x="451" y="398" on="1"/>
        <pt x="67" y="398" on="1"/>
      </contour>
    </TTGlyph>
    <TTGlyph name="estimated" xMin="43" yMin="-13" xMax="407" yMax="461">
      <contour>
        <pt x="115" y="-13" on="0"/>
        <pt x="43" y="78" on="0"/>
        <pt x="43" y="151" on="1"/>
        <pt x="43" y="186" on="0"/>
        <pt x="51" y="228" on="1"/>
        <pt x="71" y="330" on="0"/>
        <pt x="183" y="461" on="0"/>
        <pt x="273" y="461" on="1"/>
        <pt x="342" y="461" on="0"/>
        <pt x="407" y="379" on="0"/>
        <pt x="407" y="307" on="1"/>
        <pt x="407" y="272" on="0"/>
        <pt x="397" y="220" on="1"/>
        <pt x="391" y="191" on="1"/>
        <pt x="157" y="191" on="1"/>
        <pt x="148" y="142" on="0"/>
        <pt x="148" y="110" on="1"/>
        <pt x="148" y="74" on="0"/>
        <pt x="176" y="41" on="0"/>
        <pt x="209" y="41" on="1"/>
        <pt x="255" y="41" on="0"/>
        <pt x="312" y="58" on="1"/>
        <pt x="322" y="7" on="1"/>
        <pt x="255" y="-13" on="0"/>
        <pt x="194" y="-13" on="1"/>
      </contour>
      <contour>
        <pt x="289" y="247" on="1"/>
        <pt x="302" y="313" on="0"/>
        <pt x="302" y="353" on="1"/>
        <pt x="302" y="382" on="0"/>
        <pt x="285" y="407" on="0"/>
        <pt x="265" y="407" on="1"/>
        <pt x="232" y="407" on="0"/>
        <pt x="188" y="332" on="0"/>
        <pt x="169" y="247" on="1"/>
      </contour>
    </TTGlyph>
    <TTGlyph name="eta" xMin="10" yMin="-192" xMax="414" yMax="452">
      <contour>
        <pt x="87" y="384" on="1"/>
        <pt x="98" y="448" on="1"/>
        <pt x="181" y="448" on="1"/>
        <pt x="177" y="403" on="1"/>
        <pt x="243" y="452" on="0"/>
        <pt x="305" y="452" on="1"/>
        <pt x="356" y="452" on="0"/>
        <pt x="414" y="400" on="0"/>
        <pt x="414" y="349" on="1"/>
        <pt x="414" y="332" on="0"/>
        <pt x="409" y="305" on="1"/>
        <pt x="310" y="-192" on="1"/>
        <pt x="218" y="-192" on="1"/>
        <pt x="318" y="307" on="1"/>
        <pt x="321" y="324" on="0"/>
        <pt x="321" y="335" on="1"/>
        <pt x="321" y="378" on="0"/>
        <pt x="276" y="378" on="1"/>
        <pt x="252" y="378" on="0"/>
        <pt x="195" y="350" on="0"/>
        <pt x="168" y="327" on="1"/>
        <pt x="102" y="0" on="1"/>
        <pt x="10" y="0" on="1"/>
      </contour>
    </TTGlyph>
    <TTGlyph name="etatonos" xMin="10" yMin="-192" xMax="414" yMax="704">
      <component glyphName="eta" x="0" y="0" flags="0x400"/>
      <component glyphName="tonos" x="0" y="0" flags="0x400"/>
    </TTGlyph>
    <TTGlyph name="eth" xMin="33" yMin="-8" xMax="421" yMax="646">
      <contour>
        <pt x="283" y="624" on="0"/>
        <pt x="315" y="592" on="1"/>
        <pt x="391" y="639" on="1"/>
        <pt x="421" y="590" on="1"/>
        <pt x="352" y="548" on="1"/>
        <pt x="419" y="456" on="0"/>
        <pt x="419" y="340" on="1"/>
        <pt x="419" y="292" on="0"/>
        <pt x="409" y="245" on="1"/>
        <pt x="384" y="120" on="0"/>
        <pt x="268" y="-8" on="0"/>
        <pt x="181" y="-8" on="1"/>
        <pt x="112" y="-8" on="0"/>
        <pt x="33" y="76" on="0"/>
        <pt x="33" y="148" on="1"/>
        <pt x="33" y="180" on="0"/>
        <pt x="40" y="211" on="1"/>
        <pt x="59" y="306" on="0"/>
        <pt x="175" y="414" on="0"/>
        <pt x="248" y="414" on="1"/>
        <pt x="289" y="414" on="0"/>
        <pt x="325" y="395" on="1"/>
        <pt x="316" y="453" on="0"/>
        <pt x="280" y="503" on="1"/>
        <pt x="191" y="448" on="1"/>
        <pt x="160" y="497" on="1"/>
        <pt x="241" y="547" on="1"/>
        <pt x="219" y="567" on="0"/>
        <pt x="197" y="585" on="1"/>
        <pt x="252" y="646" on="1"/>
      </contour>
      <contour>
        <pt x="124" y="159" on="0"/>
        <pt x="124" y="138" on="1"/>
        <pt x="124" y="64" on="0"/>
        <pt x="186" y="64" on="1"/>
        <pt x="238" y="64" on="0"/>
        <pt x="300" y="164" on="0"/>
        <pt x="319" y="257" on="1"/>
        <pt x="327" y="293" on="0"/>
        <pt x="328" y="323" on="1"/>
        <pt x="296" y="342" on="0"/>
        <pt x="258" y="342" on="1"/>
        <pt x="159" y="342" on="0"/>
        <pt x="131" y="196" on="1"/>
      </contour>
    </TTGlyph>
    <TTGlyph name="exclam" xMin="117" yMin="-10" xMax="363" yMax="640">
      <contour>
        <pt x="251" y="640" on="1"/>
        <pt x="363" y="640" on="1"/>
        <pt x="261" y="202" on="1"/>
        <pt x="179" y="202" on="1"/>
      </contour>
      <contour>
        <pt x="117" y="86" on="0"/>
        <pt x="165" y="128" on="0"/>
        <pt x="199" y="128" on="1"/>
        <pt x="228" y="128" on="0"/>
        <pt x="266" y="97" on="0"/>
        <pt x="266" y="69" on="1"/>
        <pt x="266" y="64" on="0"/>
        <pt x="264" y="52" on="1"/>
        <pt x="258" y="22" on="0"/>
        <pt x="213" y="-10" on="0"/>
        <pt x="183" y="-10" on="1"/>
        <pt x="154" y="-10" on="0"/>
        <pt x="117" y="21" on="0"/>
        <pt x="117" y="49" on="1"/>
      </contour>
    </TTGlyph>
    <TTGlyph name="exclamdbl" xMin="16" yMin="-10" xMax="464" yMax="640">
      <component glyphName="exclam" x="-101" y="0" flags="0x400"/>
      <component glyphName="exclam" x="101" y="0" flags="0x400"/>
    </TTGlyph>
    <TTGlyph name="exclamdown" xMin="85" yMin="-192" xMax="331" yMax="458">
      <contour>
        <pt x="197" y="-192" on="1"/>
        <pt x="85" y="-192" on="1"/>
        <pt x="187" y="246" on="1"/>
        <pt x="269" y="246" on="1"/>
      </contour>
      <contour>
        <pt x="190" y="426" on="0"/>
        <pt x="235" y="458" on="0"/>
        <pt x="265" y="458" on="1"/>
        <pt x="294" y="458" on="0"/>
        <pt x="331" y="427" on="0"/>
        <pt x="331" y="399" on="1"/>
        <pt x="331" y="362" on="0"/>
        <pt x="283" y="320" on="0"/>
        <pt x="249" y="320" on="1"/>
        <pt x="220" y="320" on="0"/>
        <pt x="182" y="351" on="0"/>
        <pt x="182" y="379" on="1"/>
        <pt x="182" y="384" on="0"/>
        <pt x="184" y="396" on="1"/>
      </contour>
    </TTGlyph>
</ttFont>
